STARTFONT 2.1
FONT -Baekmuk-Gulim-Medium-R-Normal--16-160-75-75-M-160-ksx1001.1997-0
SIZE 16 75 75
FONTBOUNDINGBOX 16 16 0 -2
STARTPROPERTIES 18
FOUNDRY "Baekmuk"
FAMILY_NAME "Gulim"
WEIGHT_NAME "Medium"
SLANT "R"
SETWIDTH_NAME "Normal"
ADD_STYLE_NAME ""
PIXEL_SIZE 16
POINT_SIZE 160
RESOLUTION_X 75
RESOLUTION_Y 75
SPACING "M"
AVERAGE_WIDTH 160
CHARSET_REGISTRY "ksx1001.1997"
CHARSET_ENCODING "0"
DEFAULT_CHAR 8481
FONT_ASCENT 14
FONT_DESCENT 2
COPYRIGHT "(c)Hwan Design Inc. and Mizi Research Inc."
ENDPROPERTIES
CHARS 8224
STARTCHAR 3000
ENCODING 8481
SWIDTH 1600 0
DWIDTH 16 0
BBX 0 0 0 0
BITMAP
ENDCHAR
STARTCHAR 3001
ENCODING 8482
SWIDTH 1600 0
DWIDTH 16 0
BBX 2 3 11 9
BITMAP
80
C0
40
ENDCHAR
STARTCHAR 3002
ENCODING 8483
SWIDTH 1600 0
DWIDTH 16 0
BBX 3 4 10 9
BITMAP
40
A0
A0
40
ENDCHAR
STARTCHAR 00B7
ENCODING 8484
SWIDTH 1600 0
DWIDTH 16 0
BBX 2 2 7 4
BITMAP
C0
C0
ENDCHAR
STARTCHAR 2025
ENCODING 8485
SWIDTH 1600 0
DWIDTH 16 0
BBX 8 2 4 4
BITMAP
83
83
ENDCHAR
STARTCHAR 2026
ENCODING 8486
SWIDTH 1600 0
DWIDTH 16 0
BBX 10 2 3 4
BITMAP
8840
8840
ENDCHAR
STARTCHAR 00A8
ENCODING 8487
SWIDTH 1600 0
DWIDTH 16 0
BBX 5 1 5 9
BITMAP
88
ENDCHAR
STARTCHAR 3003
ENCODING 8488
SWIDTH 1600 0
DWIDTH 16 0
BBX 4 6 6 2
BITMAP
50
50
50
90
A0
20
ENDCHAR
STARTCHAR 00AD
ENCODING 8489
SWIDTH 1600 0
DWIDTH 16 0
BBX 7 1 4 4
BITMAP
FE
ENDCHAR
STARTCHAR 2015
ENCODING 8490
SWIDTH 1600 0
DWIDTH 16 0
BBX 14 1 1 4
BITMAP
FFFC
ENDCHAR
STARTCHAR 2225
ENCODING 8491
SWIDTH 1600 0
DWIDTH 16 0
BBX 4 11 6 0
BITMAP
90
90
90
90
90
90
90
90
90
90
90
ENDCHAR
STARTCHAR FF3C
ENCODING 8492
SWIDTH 1600 0
DWIDTH 16 0
BBX 12 13 2 -2
BITMAP
8000
4000
2000
1000
0800
0400
0600
0200
0100
0080
0040
0020
0010
ENDCHAR
STARTCHAR 223C
ENCODING 8493
SWIDTH 1600 0
DWIDTH 16 0
BBX 8 3 4 3
BITMAP
60
99
0E
ENDCHAR
STARTCHAR 2018
ENCODING 8494
SWIDTH 1600 0
DWIDTH 16 0
BBX 2 4 10 8
BITMAP
40
80
C0
C0
ENDCHAR
STARTCHAR 2019
ENCODING 8495
SWIDTH 1600 0
DWIDTH 16 0
BBX 1 3 4 9
BITMAP
80
80
80
ENDCHAR
STARTCHAR 201C
ENCODING 8496
SWIDTH 1600 0
DWIDTH 16 0
BBX 4 4 9 8
BITMAP
10
90
90
80
ENDCHAR
STARTCHAR 201D
ENCODING 8497
SWIDTH 1600 0
DWIDTH 16 0
BBX 5 3 2 9
BITMAP
D8
48
90
ENDCHAR
STARTCHAR 3014
ENCODING 8498
SWIDTH 1600 0
DWIDTH 16 0
BBX 3 15 11 -2
BITMAP
E0
80
80
80
80
80
80
80
80
80
80
80
80
C0
20
ENDCHAR
STARTCHAR 3015
ENCODING 8499
SWIDTH 1600 0
DWIDTH 16 0
BBX 3 15 2 -2
BITMAP
E0
20
20
20
20
20
20
20
20
20
20
20
20
60
80
ENDCHAR
STARTCHAR 3008
ENCODING 8500
SWIDTH 1600 0
DWIDTH 16 0
BBX 5 14 9 -2
BITMAP
08
08
10
20
40
40
80
80
80
40
20
20
10
08
ENDCHAR
STARTCHAR 3009
ENCODING 8501
SWIDTH 1600 0
DWIDTH 16 0
BBX 5 12 2 -1
BITMAP
80
40
40
20
10
10
08
10
20
20
40
80
ENDCHAR
STARTCHAR 300A
ENCODING 8502
SWIDTH 1600 0
DWIDTH 16 0
BBX 6 14 8 -2
BITMAP
04
14
28
28
50
50
A0
A0
60
50
30
28
18
14
ENDCHAR
STARTCHAR 300B
ENCODING 8503
SWIDTH 1600 0
DWIDTH 16 0
BBX 5 14 2 -2
BITMAP
40
A0
A0
50
50
28
28
18
28
50
50
A0
A0
40
ENDCHAR
STARTCHAR 300C
ENCODING 8504
SWIDTH 1600 0
DWIDTH 16 0
BBX 6 8 10 5
BITMAP
FC
80
80
80
80
80
80
80
ENDCHAR
STARTCHAR 300D
ENCODING 8505
SWIDTH 1600 0
DWIDTH 16 0
BBX 6 8 0 -2
BITMAP
04
04
04
04
04
04
04
FC
ENDCHAR
STARTCHAR 300E
ENCODING 8506
SWIDTH 1600 0
DWIDTH 16 0
BBX 5 8 10 5
BITMAP
F8
88
F8
C0
C0
C0
C0
C0
ENDCHAR
STARTCHAR 300F
ENCODING 8507
SWIDTH 1600 0
DWIDTH 16 0
BBX 6 7 0 -2
BITMAP
1C
14
14
14
14
E4
FC
ENDCHAR
STARTCHAR 3010
ENCODING 8508
SWIDTH 1600 0
DWIDTH 16 0
BBX 3 14 10 -2
BITMAP
E0
C0
C0
80
80
80
80
80
80
80
80
C0
C0
E0
ENDCHAR
STARTCHAR 3011
ENCODING 8509
SWIDTH 1600 0
DWIDTH 16 0
BBX 3 14 2 -2
BITMAP
E0
60
60
20
20
20
20
20
20
20
20
60
60
E0
ENDCHAR
STARTCHAR 00B1
ENCODING 8510
SWIDTH 1600 0
DWIDTH 16 0
BBX 9 11 3 0
BITMAP
0800
0800
0800
0800
0800
FF80
0800
0800
0800
0800
FF80
ENDCHAR
STARTCHAR 00D7
ENCODING 8511
SWIDTH 1600 0
DWIDTH 16 0
BBX 9 9 3 0
BITMAP
4080
2100
1200
0C00
0C00
1400
2200
4100
C080
ENDCHAR
STARTCHAR 00F7
ENCODING 8512
SWIDTH 1600 0
DWIDTH 16 0
BBX 10 9 3 0
BITMAP
0800
0800
0000
0000
FFC0
0000
0000
0800
0800
ENDCHAR
STARTCHAR 2260
ENCODING 8513
SWIDTH 1600 0
DWIDTH 16 0
BBX 10 9 3 1
BITMAP
1000
1000
0800
FFC0
0800
0800
FFC0
0400
0400
ENDCHAR
STARTCHAR 2264
ENCODING 8514
SWIDTH 1600 0
DWIDTH 16 0
BBX 10 10 3 0
BITMAP
0040
0180
0600
3800
C000
3000
0C00
0380
0040
FFC0
ENDCHAR
STARTCHAR 2265
ENCODING 8515
SWIDTH 1600 0
DWIDTH 16 0
BBX 10 9 3 0
BITMAP
6000
1800
0600
0180
0700
1800
6000
8000
FFC0
ENDCHAR
STARTCHAR 221E
ENCODING 8516
SWIDTH 1600 0
DWIDTH 16 0
BBX 12 6 2 2
BITMAP
78E0
CD10
8610
8610
CD30
79E0
ENDCHAR
STARTCHAR 2234
ENCODING 8517
SWIDTH 1600 0
DWIDTH 16 0
BBX 7 8 4 1
BITMAP
10
10
00
00
00
00
82
82
ENDCHAR
STARTCHAR 00B0
ENCODING 8518
SWIDTH 1600 0
DWIDTH 16 0
BBX 3 4 2 9
BITMAP
40
A0
A0
40
ENDCHAR
STARTCHAR 2032
ENCODING 8519
SWIDTH 1600 0
DWIDTH 16 0
BBX 2 3 2 9
BITMAP
40
80
80
ENDCHAR
STARTCHAR 2033
ENCODING 8520
SWIDTH 1600 0
DWIDTH 16 0
BBX 5 5 2 8
BITMAP
08
58
50
A0
20
ENDCHAR
STARTCHAR 2103
ENCODING 8521
SWIDTH 1600 0
DWIDTH 16 0
BBX 10 11 3 0
BITMAP
EF00
9880
7040
2040
2000
2000
2000
2040
1040
1880
0F00
ENDCHAR
STARTCHAR 212B
ENCODING 8522
SWIDTH 1600 0
DWIDTH 16 0
BBX 8 12 4 0
BITMAP
38
28
10
18
18
28
24
44
7C
42
82
81
ENDCHAR
STARTCHAR FFE0
ENCODING 8523
SWIDTH 1600 0
DWIDTH 16 0
BBX 12 13 2 -1
BITMAP
0010
1FA0
20C0
2040
41C0
4200
4200
4400
4840
3040
3080
4F00
8000
ENDCHAR
STARTCHAR FFE1
ENCODING 8524
SWIDTH 1600 0
DWIDTH 16 0
BBX 10 11 3 0
BITMAP
0F00
0880
1080
1080
1000
7F80
0800
0800
7840
9880
7700
ENDCHAR
STARTCHAR FFE5
ENCODING 8525
SWIDTH 1600 0
DWIDTH 16 0
BBX 9 12 3 0
BITMAP
4100
4100
2200
EF80
1400
1400
FF80
0800
0800
0800
0800
0800
ENDCHAR
STARTCHAR 2642
ENCODING 8526
SWIDTH 1600 0
DWIDTH 16 0
BBX 7 14 4 -2
BITMAP
10
30
38
54
94
92
10
10
30
68
44
44
44
38
ENDCHAR
STARTCHAR 2640
ENCODING 8527
SWIDTH 1600 0
DWIDTH 16 0
BBX 9 14 3 -2
BITMAP
1E00
3300
2100
2100
3300
1C00
0800
0800
FF80
0800
0800
0800
0800
0800
ENDCHAR
STARTCHAR 2220
ENCODING 8528
SWIDTH 1600 0
DWIDTH 16 0
BBX 9 9 3 0
BITMAP
0100
0200
0400
0800
1000
3000
2000
4000
FF80
ENDCHAR
STARTCHAR 22A5
ENCODING 8529
SWIDTH 1600 0
DWIDTH 16 0
BBX 10 9 3 0
BITMAP
0800
0800
0800
0800
0800
0800
0800
0800
FFC0
ENDCHAR
STARTCHAR 2312
ENCODING 8530
SWIDTH 1600 0
DWIDTH 16 0
BBX 9 3 3 8
BITMAP
3E00
4180
8080
ENDCHAR
STARTCHAR 2202
ENCODING 8531
SWIDTH 1600 0
DWIDTH 16 0
BBX 7 11 4 0
BITMAP
3C
44
02
02
12
3E
44
44
84
48
78
ENDCHAR
STARTCHAR 2207
ENCODING 8532
SWIDTH 1600 0
DWIDTH 16 0
BBX 10 9 3 1
BITMAP
FFC0
8080
4080
4100
2100
2200
1200
0C00
0C00
ENDCHAR
STARTCHAR 2261
ENCODING 8533
SWIDTH 1600 0
DWIDTH 16 0
BBX 10 6 3 2
BITMAP
FFC0
0000
0000
FFC0
0000
FFC0
ENDCHAR
STARTCHAR 2252
ENCODING 8534
SWIDTH 1600 0
DWIDTH 16 0
BBX 10 9 3 0
BITMAP
2000
2000
FFC0
0000
0000
FFC0
0000
0100
0100
ENDCHAR
STARTCHAR 00A7
ENCODING 8535
SWIDTH 1600 0
DWIDTH 16 0
BBX 6 13 5 -2
BITMAP
70
88
88
C0
70
8C
C4
64
38
08
44
44
38
ENDCHAR
STARTCHAR 203B
ENCODING 8536
SWIDTH 1600 0
DWIDTH 16 0
BBX 9 10 3 0
BITMAP
8000
4880
2900
1200
5500
4900
1400
2A00
2900
4080
ENDCHAR
STARTCHAR 2606
ENCODING 8537
SWIDTH 1600 0
DWIDTH 16 0
BBX 12 13 2 -2
BITMAP
0400
0400
0600
0A00
F9F0
4020
20C0
1080
2080
2680
3980
60C0
4040
ENDCHAR
STARTCHAR 2605
ENCODING 8538
SWIDTH 1600 0
DWIDTH 16 0
BBX 11 11 2 -1
BITMAP
0400
0600
0E00
FFE0
7FC0
3F80
1F00
1F00
1B80
3180
2000
ENDCHAR
STARTCHAR 25CB
ENCODING 8539
SWIDTH 1600 0
DWIDTH 16 0
BBX 11 12 2 -1
BITMAP
1F00
2080
4040
8020
8020
8020
8020
8020
8020
4040
2080
1F00
ENDCHAR
STARTCHAR 25CF
ENCODING 8540
SWIDTH 1600 0
DWIDTH 16 0
BBX 11 12 2 -1
BITMAP
1F00
3F80
7FC0
7FE0
FFE0
FFE0
FFE0
FFE0
7FE0
7FC0
3F80
1F00
ENDCHAR
STARTCHAR 25CE
ENCODING 8541
SWIDTH 1600 0
DWIDTH 16 0
BBX 11 12 2 -1
BITMAP
1F00
2080
4E40
9120
A0A0
A0A0
A0A0
A0A0
9120
4E40
2080
1F00
ENDCHAR
STARTCHAR 25C7
ENCODING 8542
SWIDTH 1600 0
DWIDTH 16 0
BBX 12 13 2 -2
BITMAP
0600
0900
1080
2040
4040
8020
8010
4020
2040
2080
1100
0A00
0400
ENDCHAR
STARTCHAR 25C6
ENCODING 8543
SWIDTH 1600 0
DWIDTH 16 0
BBX 12 14 2 -2
BITMAP
0400
0E00
0F00
1F80
3FC0
7FE0
FFF0
FFF0
7FE0
3FC0
1F80
0F00
0E00
0400
ENDCHAR
STARTCHAR 25A1
ENCODING 8544
SWIDTH 1600 0
DWIDTH 16 0
BBX 11 12 2 -1
BITMAP
FFE0
8020
8020
8020
8020
8020
8020
8020
8020
8020
8020
FFE0
ENDCHAR
STARTCHAR 25A0
ENCODING 8545
SWIDTH 1600 0
DWIDTH 16 0
BBX 10 12 3 -1
BITMAP
FFC0
FFC0
FFC0
FFC0
FFC0
FFC0
FFC0
FFC0
FFC0
FFC0
FFC0
FFC0
ENDCHAR
STARTCHAR 25B3
ENCODING 8546
SWIDTH 1600 0
DWIDTH 16 0
BBX 11 10 2 0
BITMAP
0400
0600
0A00
0900
1100
2080
2040
4040
4020
FFE0
ENDCHAR
STARTCHAR 25B2
ENCODING 8547
SWIDTH 1600 0
DWIDTH 16 0
BBX 11 10 2 0
BITMAP
0400
0600
0E00
0F00
1F00
1F80
3FC0
7FC0
7FE0
FFE0
ENDCHAR
STARTCHAR 25BD
ENCODING 8548
SWIDTH 1600 0
DWIDTH 16 0
BBX 11 10 2 0
BITMAP
FFE0
4020
4040
2040
2080
1100
0900
0A00
0600
0400
ENDCHAR
STARTCHAR 25BC
ENCODING 8549
SWIDTH 1600 0
DWIDTH 16 0
BBX 11 9 2 1
BITMAP
FFE0
7FE0
7FC0
3F80
1F80
1F00
0F00
0600
0400
ENDCHAR
STARTCHAR 2192
ENCODING 8550
SWIDTH 1600 0
DWIDTH 16 0
BBX 13 5 1 2
BITMAP
0020
0010
FFF8
0020
0040
ENDCHAR
STARTCHAR 2190
ENCODING 8551
SWIDTH 1600 0
DWIDTH 16 0
BBX 12 5 2 2
BITMAP
2000
4000
FFF0
2000
1000
ENDCHAR
STARTCHAR 2191
ENCODING 8552
SWIDTH 1600 0
DWIDTH 16 0
BBX 5 12 6 -2
BITMAP
20
70
A8
20
20
20
20
20
20
20
20
20
ENDCHAR
STARTCHAR 2193
ENCODING 8553
SWIDTH 1600 0
DWIDTH 16 0
BBX 5 12 6 -2
BITMAP
20
20
20
20
20
20
20
20
20
A8
70
20
ENDCHAR
STARTCHAR 2194
ENCODING 8554
SWIDTH 1600 0
DWIDTH 16 0
BBX 11 4 2 3
BITMAP
0040
4020
FFE0
4040
ENDCHAR
STARTCHAR 3013
ENCODING 8555
SWIDTH 1600 0
DWIDTH 16 0
BBX 10 4 3 3
BITMAP
FFC0
0000
0000
FFC0
ENDCHAR
STARTCHAR 226A
ENCODING 8556
SWIDTH 1600 0
DWIDTH 16 0
BBX 11 11 3 -1
BITMAP
0240
0C80
1300
2400
C800
9000
4C00
3200
0900
06C0
0220
ENDCHAR
STARTCHAR 226B
ENCODING 8557
SWIDTH 1600 0
DWIDTH 16 0
BBX 11 11 2 -1
BITMAP
9800
6400
3300
0980
0640
0320
06C0
0900
1200
6C00
9000
ENDCHAR
STARTCHAR 221A
ENCODING 8558
SWIDTH 1600 0
DWIDTH 16 0
BBX 13 13 2 -1
BITMAP
03F8
0200
0200
0400
0400
0400
0800
0800
0800
D000
5000
3000
2000
ENDCHAR
STARTCHAR 223D
ENCODING 8559
SWIDTH 1600 0
DWIDTH 16 0
BBX 11 6 2 2
BITMAP
71C0
8220
8420
8420
8A20
71C0
ENDCHAR
STARTCHAR 221D
ENCODING 8560
SWIDTH 1600 0
DWIDTH 16 0
BBX 10 6 3 2
BITMAP
71C0
CA40
8400
8400
8A40
71C0
ENDCHAR
STARTCHAR 2235
ENCODING 8561
SWIDTH 1600 0
DWIDTH 16 0
BBX 7 8 4 0
BITMAP
82
82
00
00
00
00
10
10
ENDCHAR
STARTCHAR 222B
ENCODING 8562
SWIDTH 1600 0
DWIDTH 16 0
BBX 6 12 5 0
BITMAP
18
14
20
20
20
20
20
20
20
20
40
C0
ENDCHAR
STARTCHAR 222C
ENCODING 8563
SWIDTH 1600 0
DWIDTH 16 0
BBX 10 12 3 0
BITMAP
1980
1540
2200
2200
2200
2200
2200
2200
2200
2200
D400
8C00
ENDCHAR
STARTCHAR 2208
ENCODING 8564
SWIDTH 1600 0
DWIDTH 16 0
BBX 11 9 3 0
BITMAP
3FE0
4000
8000
8000
FFC0
8000
8000
4000
3FC0
ENDCHAR
STARTCHAR 220B
ENCODING 8565
SWIDTH 1600 0
DWIDTH 16 0
BBX 11 9 2 0
BITMAP
FF80
0040
0020
0020
FFE0
0020
0020
0040
FF80
ENDCHAR
STARTCHAR 2286
ENCODING 8566
SWIDTH 1600 0
DWIDTH 16 0
BBX 10 9 3 0
BITMAP
7F00
8000
8000
8000
8000
6000
1F80
0000
FFC0
ENDCHAR
STARTCHAR 2287
ENCODING 8567
SWIDTH 1600 0
DWIDTH 16 0
BBX 10 9 3 0
BITMAP
7F00
0080
0080
0080
0080
0300
FC00
0000
FFC0
ENDCHAR
STARTCHAR 2282
ENCODING 8568
SWIDTH 1600 0
DWIDTH 16 0
BBX 11 9 3 0
BITMAP
1FE0
6000
C000
8000
8000
8000
8000
4000
3FE0
ENDCHAR
STARTCHAR 2283
ENCODING 8569
SWIDTH 1600 0
DWIDTH 16 0
BBX 11 9 2 0
BITMAP
FF80
0040
0020
0020
0020
0020
0020
0040
FF80
ENDCHAR
STARTCHAR 222A
ENCODING 8570
SWIDTH 1600 0
DWIDTH 16 0
BBX 8 11 4 0
BITMAP
81
81
81
81
81
81
81
81
81
42
3C
ENDCHAR
STARTCHAR 2229
ENCODING 8571
SWIDTH 1600 0
DWIDTH 16 0
BBX 8 11 4 0
BITMAP
7E
42
81
81
81
81
81
81
81
81
81
ENDCHAR
STARTCHAR 2227
ENCODING 8572
SWIDTH 1600 0
DWIDTH 16 0
BBX 9 9 3 0
BITMAP
0C00
0C00
1200
1200
2100
2100
4080
4080
8000
ENDCHAR
STARTCHAR 2228
ENCODING 8573
SWIDTH 1600 0
DWIDTH 16 0
BBX 9 9 3 1
BITMAP
8000
8080
4080
4100
2100
2200
1200
1400
0C00
ENDCHAR
STARTCHAR FFE2
ENCODING 8574
SWIDTH 1600 0
DWIDTH 16 0
BBX 9 6 3 2
BITMAP
FF80
0080
0080
0080
0080
0080
ENDCHAR
STARTCHAR 21D2
ENCODING 8737
SWIDTH 1600 0
DWIDTH 16 0
BBX 13 8 1 1
BITMAP
0040
0020
FFE0
0010
0008
FFF0
0020
0040
ENDCHAR
STARTCHAR 21D4
ENCODING 8738
SWIDTH 1600 0
DWIDTH 16 0
BBX 11 8 2 1
BITMAP
1000
1080
3FC0
4020
8020
4020
3FC0
1080
ENDCHAR
STARTCHAR 2200
ENCODING 8739
SWIDTH 1600 0
DWIDTH 16 0
BBX 10 11 3 1
BITMAP
8040
8040
4080
4080
3F00
2100
2100
1200
1200
0C00
0C00
ENDCHAR
STARTCHAR 2203
ENCODING 8740
SWIDTH 1600 0
DWIDTH 16 0
BBX 7 10 4 0
BITMAP
FE
02
02
02
FE
02
02
02
02
FE
ENDCHAR
STARTCHAR 00B4
ENCODING 8741
SWIDTH 1600 0
DWIDTH 16 0
BBX 1 1 7 11
BITMAP
80
ENDCHAR
STARTCHAR FF5E
ENCODING 8742
SWIDTH 1600 0
DWIDTH 16 0
BBX 8 2 4 10
BITMAP
71
8E
ENDCHAR
STARTCHAR 02C7
ENCODING 8743
SWIDTH 1600 0
DWIDTH 16 0
BBX 4 2 6 10
BITMAP
90
E0
ENDCHAR
STARTCHAR 02D8
ENCODING 8744
SWIDTH 1600 0
DWIDTH 16 0
BBX 6 3 5 10
BITMAP
04
88
78
ENDCHAR
STARTCHAR 02DD
ENCODING 8745
SWIDTH 1600 0
DWIDTH 16 0
BBX 3 1 6 11
BITMAP
A0
ENDCHAR
STARTCHAR 02DA
ENCODING 8746
SWIDTH 1600 0
DWIDTH 16 0
BBX 3 3 6 9
BITMAP
E0
A0
E0
ENDCHAR
STARTCHAR 02D9
ENCODING 8747
SWIDTH 1600 0
DWIDTH 16 0
BBX 1 2 7 10
BITMAP
80
80
ENDCHAR
STARTCHAR 00B8
ENCODING 8748
SWIDTH 1600 0
DWIDTH 16 0
BBX 3 3 6 -2
BITMAP
20
20
E0
ENDCHAR
STARTCHAR 02DB
ENCODING 8749
SWIDTH 1600 0
DWIDTH 16 0
BBX 3 3 7 -2
BITMAP
80
A0
C0
ENDCHAR
STARTCHAR 00A1
ENCODING 8750
SWIDTH 1600 0
DWIDTH 16 0
BBX 1 11 7 0
BITMAP
80
80
00
80
80
80
80
80
80
80
80
ENDCHAR
STARTCHAR 00BF
ENCODING 8751
SWIDTH 1600 0
DWIDTH 16 0
BBX 6 11 5 0
BITMAP
10
10
00
10
10
30
C0
84
84
84
78
ENDCHAR
STARTCHAR 02D0
ENCODING 8752
SWIDTH 1600 0
DWIDTH 16 0
BBX 2 7 7 2
BITMAP
C0
80
00
00
00
80
C0
ENDCHAR
STARTCHAR 222E
ENCODING 8753
SWIDTH 1600 0
DWIDTH 16 0
BBX 6 12 5 0
BITMAP
0C
14
10
20
30
70
70
30
20
20
A0
C0
ENDCHAR
STARTCHAR 2211
ENCODING 8754
SWIDTH 1600 0
DWIDTH 16 0
BBX 11 11 2 0
BITMAP
FFE0
4020
2020
1020
0C00
0400
0800
1020
2020
4020
FFE0
ENDCHAR
STARTCHAR 220F
ENCODING 8755
SWIDTH 1600 0
DWIDTH 16 0
BBX 12 11 2 0
BITMAP
FFF0
2040
2040
2040
2040
2040
2040
2040
2040
2040
2040
ENDCHAR
STARTCHAR 00A4
ENCODING 8756
SWIDTH 1600 0
DWIDTH 16 0
BBX 10 12 2 -1
BITMAP
8000
5FC0
2080
2080
4040
4040
4040
4040
2080
2080
5F40
8000
ENDCHAR
STARTCHAR 2109
ENCODING 8757
SWIDTH 1600 0
DWIDTH 16 0
BBX 11 12 2 0
BITMAP
07E0
E400
A400
4400
0400
07C0
0400
0400
0400
0400
0400
0400
ENDCHAR
STARTCHAR 2030
ENCODING 8758
SWIDTH 1600 0
DWIDTH 16 0
BBX 12 14 2 -1
BITMAP
6080
9080
9100
9200
9200
9400
6800
0E60
1990
2990
2990
4990
8990
8660
ENDCHAR
STARTCHAR 25C1
ENCODING 8759
SWIDTH 1600 0
DWIDTH 16 0
BBX 8 12 4 -1
BITMAP
01
03
0D
11
61
81
C1
21
19
0D
03
01
ENDCHAR
STARTCHAR 25C0
ENCODING 8760
SWIDTH 1600 0
DWIDTH 16 0
BBX 8 12 4 -1
BITMAP
01
03
0F
1F
3F
FF
FF
7F
1F
0F
03
01
ENDCHAR
STARTCHAR 25B7
ENCODING 8761
SWIDTH 1600 0
DWIDTH 16 0
BBX 8 12 4 -1
BITMAP
80
C0
B0
88
84
83
83
84
98
B0
C0
80
ENDCHAR
STARTCHAR 25B6
ENCODING 8762
SWIDTH 1600 0
DWIDTH 16 0
BBX 8 11 4 -1
BITMAP
C0
E0
F8
FC
FE
FF
FC
F8
E0
C0
80
ENDCHAR
STARTCHAR 2664
ENCODING 8763
SWIDTH 1600 0
DWIDTH 16 0
BBX 10 13 3 -2
BITMAP
0C00
1200
1200
2100
4080
4080
8040
8040
8040
DEC0
2D00
1400
1E00
ENDCHAR
STARTCHAR 2660
ENCODING 8764
SWIDTH 1600 0
DWIDTH 16 0
BBX 10 13 3 -1
BITMAP
0800
0C00
1E00
3F00
7F00
7F80
FF80
FFC0
FFC0
FFC0
6F80
0C00
1C00
ENDCHAR
STARTCHAR 2661
ENCODING 8765
SWIDTH 1600 0
DWIDTH 16 0
BBX 10 12 3 -1
BITMAP
7380
CCC0
8C40
8840
8040
8040
4080
4080
2100
1200
1200
0C00
ENDCHAR
STARTCHAR 2665
ENCODING 8766
SWIDTH 1600 0
DWIDTH 16 0
BBX 11 14 2 -2
BITMAP
39C0
7BE0
FFE0
FFE0
FFE0
7FE0
7FE0
7FC0
3FC0
1F80
1F00
0F00
0600
0400
ENDCHAR
STARTCHAR 2667
ENCODING 8767
SWIDTH 1600 0
DWIDTH 16 0
BBX 12 13 2 -1
BITMAP
0F00
1980
1080
1080
0980
69E0
9910
8010
8010
CF30
76E0
0A00
0F00
ENDCHAR
STARTCHAR 2663
ENCODING 8768
SWIDTH 1600 0
DWIDTH 16 0
BBX 12 13 2 -1
BITMAP
0E00
1F00
1F00
1F00
0F00
7FE0
FFF0
FFF0
FFF0
FDE0
2640
0600
0E00
ENDCHAR
STARTCHAR 2299
ENCODING 8769
SWIDTH 1600 0
DWIDTH 16 0
BBX 12 13 2 -1
BITMAP
1F80
30C0
4020
5F20
BF90
BF90
BFD0
BF90
BF90
5FA0
4F20
30C0
1F80
ENDCHAR
STARTCHAR 25C8
ENCODING 8770
SWIDTH 1600 0
DWIDTH 16 0
BBX 12 14 2 -2
BITMAP
0400
0A00
1500
2E80
5F40
9FA0
BFD0
BFB0
5F20
2F40
1680
1900
0E00
0400
ENDCHAR
STARTCHAR 25A3
ENCODING 8771
SWIDTH 1600 0
DWIDTH 16 0
BBX 11 12 2 -1
BITMAP
FFE0
8020
8020
9FA0
9FA0
9FA0
9FA0
9FA0
9FA0
8020
8020
FFE0
ENDCHAR
STARTCHAR 25D0
ENCODING 8772
SWIDTH 1600 0
DWIDTH 16 0
BBX 11 13 3 -1
BITMAP
1F00
3980
7840
F840
F820
F820
F820
F820
F820
F840
7840
3980
1F00
ENDCHAR
STARTCHAR 25D1
ENCODING 8773
SWIDTH 1600 0
DWIDTH 16 0
BBX 11 13 2 -1
BITMAP
1F00
3380
43C0
43E0
83E0
83E0
83E0
83E0
83E0
C3E0
43C0
3380
1F00
ENDCHAR
STARTCHAR 2592
ENCODING 8774
SWIDTH 1600 0
DWIDTH 16 0
BBX 11 12 2 -1
BITMAP
FFE0
D060
8020
A820
D060
A820
D060
A820
D060
A820
8020
FFE0
ENDCHAR
STARTCHAR 25A4
ENCODING 8775
SWIDTH 1600 0
DWIDTH 16 0
BBX 11 12 2 -1
BITMAP
FFE0
8020
FFE0
8020
8020
FFE0
8020
8020
FFE0
8020
8020
FFE0
ENDCHAR
STARTCHAR 25A5
ENCODING 8776
SWIDTH 1600 0
DWIDTH 16 0
BBX 11 12 2 -1
BITMAP
FFE0
94A0
94A0
94A0
94A0
94A0
94A0
94A0
94A0
94A0
94A0
FFE0
ENDCHAR
STARTCHAR 25A8
ENCODING 8777
SWIDTH 1600 0
DWIDTH 16 0
BBX 11 12 2 -1
BITMAP
FFE0
8460
88A0
9120
A220
C420
8860
90A0
A120
A220
C420
FFE0
ENDCHAR
STARTCHAR 25A7
ENCODING 8778
SWIDTH 1600 0
DWIDTH 16 0
BBX 11 12 2 -1
BITMAP
FFE0
C420
A220
9120
90A0
8860
C420
A220
9120
88A0
8460
FFE0
ENDCHAR
STARTCHAR 25A6
ENCODING 8779
SWIDTH 1600 0
DWIDTH 16 0
BBX 11 12 2 -1
BITMAP
FFE0
94A0
FFE0
94A0
94A0
FFE0
94A0
94A0
FFE0
94A0
94A0
FFE0
ENDCHAR
STARTCHAR 25A9
ENCODING 8780
SWIDTH 1600 0
DWIDTH 16 0
BBX 11 12 2 -1
BITMAP
FFE0
CA60
B2A0
B120
CAA0
8460
C620
A9E0
9120
A9A0
C660
FFE0
ENDCHAR
STARTCHAR 2668
ENCODING 8781
SWIDTH 1600 0
DWIDTH 16 0
BBX 12 12 2 -1
BITMAP
0200
1500
1500
1500
1280
1280
32C0
52B0
9510
9010
6060
1F80
ENDCHAR
STARTCHAR 260F
ENCODING 8782
SWIDTH 1600 0
DWIDTH 16 0
BBX 14 11 1 -1
BITMAP
0FC0
7C38
BFEC
AB44
CFD8
1860
3850
2850
2498
2318
1FE0
ENDCHAR
STARTCHAR 260E
ENCODING 8783
SWIDTH 1600 0
DWIDTH 16 0
BBX 12 10 2 0
BITMAP
1F80
7FE0
F170
FF70
9080
2080
20C0
60E0
71E0
7FE0
ENDCHAR
STARTCHAR 261C
ENCODING 8784
SWIDTH 1600 0
DWIDTH 16 0
BBX 13 7 1 2
BITMAP
0780
F978
E638
1F18
1D98
0F78
0280
ENDCHAR
STARTCHAR 261E
ENCODING 8785
SWIDTH 1600 0
DWIDTH 16 0
BBX 13 7 1 2
BITMAP
0F00
F4F8
E338
CFC0
CEC0
E500
1A00
ENDCHAR
STARTCHAR 00B6
ENCODING 8786
SWIDTH 1600 0
DWIDTH 16 0
BBX 8 14 3 -2
BITMAP
7D
C5
85
85
C5
3D
05
05
05
05
05
05
05
01
ENDCHAR
STARTCHAR 2020
ENCODING 8787
SWIDTH 1600 0
DWIDTH 16 0
BBX 7 14 4 -2
BITMAP
10
10
10
FE
10
10
10
10
10
10
10
10
10
10
ENDCHAR
STARTCHAR 2021
ENCODING 8788
SWIDTH 1600 0
DWIDTH 16 0
BBX 7 14 4 -2
BITMAP
10
10
FE
10
10
FE
10
10
10
10
10
10
10
10
ENDCHAR
STARTCHAR 2195
ENCODING 8789
SWIDTH 1600 0
DWIDTH 16 0
BBX 4 11 6 0
BITMAP
60
D0
40
40
40
40
40
40
40
D0
60
ENDCHAR
STARTCHAR 2197
ENCODING 8790
SWIDTH 1600 0
DWIDTH 16 0
BBX 9 9 3 0
BITMAP
0380
0300
0700
0C00
0800
1000
2000
4000
8000
ENDCHAR
STARTCHAR 2199
ENCODING 8791
SWIDTH 1600 0
DWIDTH 16 0
BBX 8 9 4 1
BITMAP
01
02
04
08
10
30
E0
C0
E0
ENDCHAR
STARTCHAR 2196
ENCODING 8792
SWIDTH 1600 0
DWIDTH 16 0
BBX 9 10 4 -1
BITMAP
E000
C000
A000
9000
0800
0400
0600
0300
0100
0080
ENDCHAR
STARTCHAR 2198
ENCODING 8793
SWIDTH 1600 0
DWIDTH 16 0
BBX 8 10 4 0
BITMAP
80
80
40
20
10
08
04
03
01
07
ENDCHAR
STARTCHAR 266D
ENCODING 8794
SWIDTH 1600 0
DWIDTH 16 0
BBX 5 11 5 0
BITMAP
80
80
80
80
B0
C8
88
88
90
90
E0
ENDCHAR
STARTCHAR 2669
ENCODING 8795
SWIDTH 1600 0
DWIDTH 16 0
BBX 3 13 6 -1
BITMAP
20
20
20
20
20
20
20
20
20
20
20
E0
C0
ENDCHAR
STARTCHAR 266A
ENCODING 8796
SWIDTH 1600 0
DWIDTH 16 0
BBX 7 12 4 -1
BITMAP
30
38
2C
26
22
22
24
24
20
20
E0
C0
ENDCHAR
STARTCHAR 266C
ENCODING 8797
SWIDTH 1600 0
DWIDTH 16 0
BBX 10 12 3 -1
BITMAP
3FC0
2040
2040
3FC0
2040
2040
2040
2040
2040
60C0
E1C0
C180
ENDCHAR
STARTCHAR 327F
ENCODING 8798
SWIDTH 1600 0
DWIDTH 16 0
BBX 11 13 2 -1
BITMAP
1F00
2080
4040
5120
9220
9400
FCE0
1420
9220
9120
4140
2080
1F00
ENDCHAR
STARTCHAR 321C
ENCODING 8799
SWIDTH 1600 0
DWIDTH 16 0
BBX 13 12 1 -1
BITMAP
2020
5FD0
4310
8588
98E8
8008
BFE8
8208
8208
4210
4220
2220
ENDCHAR
STARTCHAR 2116
ENCODING 8800
SWIDTH 1600 0
DWIDTH 16 0
BBX 14 11 1 0
BITMAP
8400
C400
C400
A4E0
A490
9508
9508
8D08
8D08
8490
84F4
ENDCHAR
STARTCHAR 33C7
ENCODING 8801
SWIDTH 1600 0
DWIDTH 16 0
BBX 14 11 1 0
BITMAP
3800
4C00
8400
80F0
8090
8108
8108
8508
8508
4C90
78F4
ENDCHAR
STARTCHAR 2122
ENCODING 8802
SWIDTH 1600 0
DWIDTH 16 0
BBX 11 11 2 0
BITMAP
FA20
2220
2220
2260
2360
2360
23A0
23A0
23A0
22A0
22A0
ENDCHAR
STARTCHAR 33C2
ENCODING 8803
SWIDTH 1600 0
DWIDTH 16 0
BBX 14 8 1 0
BITMAP
61A0
9150
9150
7150
9150
9150
9150
7D54
ENDCHAR
STARTCHAR 33D8
ENCODING 8804
SWIDTH 1600 0
DWIDTH 16 0
BBX 14 10 1 -2
BITMAP
B1A0
D950
8950
8950
8950
8950
D950
F554
8000
8000
ENDCHAR
STARTCHAR 2121
ENCODING 8805
SWIDTH 1600 0
DWIDTH 16 0
BBX 12 11 1 0
BITMAP
FC10
1010
1010
1390
1490
1850
17D0
1810
1850
1450
1390
ENDCHAR
STARTCHAR FF01
ENCODING 8993
SWIDTH 1600 0
DWIDTH 16 0
BBX 2 13 7 -1
BITMAP
40
40
40
40
40
40
40
40
40
40
00
80
80
ENDCHAR
STARTCHAR FF02
ENCODING 8994
SWIDTH 1600 0
DWIDTH 16 0
BBX 6 4 5 8
BITMAP
24
28
50
80
ENDCHAR
STARTCHAR FF03
ENCODING 8995
SWIDTH 1600 0
DWIDTH 16 0
BBX 11 12 2 -1
BITMAP
0880
0880
0880
7FE0
1080
1100
1100
1100
FFC0
1100
2100
2000
ENDCHAR
STARTCHAR FF04
ENCODING 8996
SWIDTH 1600 0
DWIDTH 16 0
BBX 10 13 3 -1
BITMAP
1200
3F00
D2C0
9240
9200
7200
1F80
1240
1240
9240
5280
3F00
1200
ENDCHAR
STARTCHAR FF05
ENCODING 8997
SWIDTH 1600 0
DWIDTH 16 0
BBX 12 13 2 -1
BITMAP
1000
6830
8460
84C0
8580
4A00
3400
09E0
1210
2210
4210
8120
00C0
ENDCHAR
STARTCHAR FF06
ENCODING 8998
SWIDTH 1600 0
DWIDTH 16 0
BBX 8 11 4 0
BITMAP
3C
22
22
24
18
70
C9
85
82
86
79
ENDCHAR
STARTCHAR FF07
ENCODING 8999
SWIDTH 1600 0
DWIDTH 16 0
BBX 2 4 7 9
BITMAP
40
40
40
80
ENDCHAR
STARTCHAR FF08
ENCODING 9000
SWIDTH 1600 0
DWIDTH 16 0
BBX 4 14 6 -2
BITMAP
10
20
40
40
80
80
80
80
80
80
40
60
20
10
ENDCHAR
STARTCHAR FF09
ENCODING 9001
SWIDTH 1600 0
DWIDTH 16 0
BBX 4 14 6 -2
BITMAP
80
40
20
20
10
10
10
10
10
10
20
60
40
80
ENDCHAR
STARTCHAR FF0A
ENCODING 9002
SWIDTH 1600 0
DWIDTH 16 0
BBX 8 8 4 1
BITMAP
66
24
18
EF
99
3C
24
24
ENDCHAR
STARTCHAR FF0B
ENCODING 9003
SWIDTH 1600 0
DWIDTH 16 0
BBX 11 12 2 -1
BITMAP
0400
0400
0400
0400
0400
FFE0
0400
0400
0400
0400
0400
0400
ENDCHAR
STARTCHAR FF0C
ENCODING 9004
SWIDTH 1600 0
DWIDTH 16 0
BBX 2 4 7 -2
BITMAP
C0
C0
40
80
ENDCHAR
STARTCHAR FF0D
ENCODING 9005
SWIDTH 1600 0
DWIDTH 16 0
BBX 11 1 3 5
BITMAP
FFE0
ENDCHAR
STARTCHAR FF0E
ENCODING 9006
SWIDTH 1600 0
DWIDTH 16 0
BBX 2 2 7 -1
BITMAP
C0
C0
ENDCHAR
STARTCHAR FF0F
ENCODING 9007
SWIDTH 1600 0
DWIDTH 16 0
BBX 6 14 5 -2
BITMAP
04
04
08
08
08
10
10
20
20
20
40
40
80
80
ENDCHAR
STARTCHAR FF10
ENCODING 9008
SWIDTH 1600 0
DWIDTH 16 0
BBX 8 11 4 0
BITMAP
3C
42
C3
81
81
81
81
81
C3
42
3C
ENDCHAR
STARTCHAR FF11
ENCODING 9009
SWIDTH 1600 0
DWIDTH 16 0
BBX 4 11 5 0
BITMAP
30
70
50
90
10
10
10
10
10
10
10
ENDCHAR
STARTCHAR FF12
ENCODING 9010
SWIDTH 1600 0
DWIDTH 16 0
BBX 8 11 4 0
BITMAP
3C
42
81
83
02
0C
10
60
C0
80
FF
ENDCHAR
STARTCHAR FF13
ENCODING 9011
SWIDTH 1600 0
DWIDTH 16 0
BBX 8 11 4 0
BITMAP
3C
42
82
02
04
3C
02
81
81
C2
3C
ENDCHAR
STARTCHAR FF14
ENCODING 9012
SWIDTH 1600 0
DWIDTH 16 0
BBX 8 11 3 0
BITMAP
06
0E
0A
12
22
62
42
82
FF
02
02
ENDCHAR
STARTCHAR FF15
ENCODING 9013
SWIDTH 1600 0
DWIDTH 16 0
BBX 8 11 4 0
BITMAP
FE
80
80
80
BC
C2
01
81
82
C6
3C
ENDCHAR
STARTCHAR FF16
ENCODING 9014
SWIDTH 1600 0
DWIDTH 16 0
BBX 8 11 4 0
BITMAP
3C
62
41
80
BE
C3
81
81
81
42
3C
ENDCHAR
STARTCHAR FF17
ENCODING 9015
SWIDTH 1600 0
DWIDTH 16 0
BBX 8 11 4 0
BITMAP
FF
01
02
02
04
04
08
10
10
20
20
ENDCHAR
STARTCHAR FF18
ENCODING 9016
SWIDTH 1600 0
DWIDTH 16 0
BBX 8 11 4 0
BITMAP
3C
42
81
81
42
7E
C3
81
81
42
3C
ENDCHAR
STARTCHAR FF19
ENCODING 9017
SWIDTH 1600 0
DWIDTH 16 0
BBX 8 11 4 0
BITMAP
3C
42
81
81
81
43
3D
01
82
42
3C
ENDCHAR
STARTCHAR FF1A
ENCODING 9018
SWIDTH 1600 0
DWIDTH 16 0
BBX 1 10 8 0
BITMAP
80
80
00
00
00
00
00
00
80
80
ENDCHAR
STARTCHAR FF1B
ENCODING 9019
SWIDTH 1600 0
DWIDTH 16 0
BBX 2 11 7 -1
BITMAP
40
40
00
00
00
00
00
00
C0
40
40
ENDCHAR
STARTCHAR FF1C
ENCODING 9020
SWIDTH 1600 0
DWIDTH 16 0
BBX 11 12 2 -1
BITMAP
0060
0180
0600
1800
6000
C000
4000
3000
0C00
0300
00C0
0020
ENDCHAR
STARTCHAR FF1D
ENCODING 9021
SWIDTH 1600 0
DWIDTH 16 0
BBX 11 5 3 3
BITMAP
FFE0
0000
0000
0000
FFE0
ENDCHAR
STARTCHAR FF1E
ENCODING 9022
SWIDTH 1600 0
DWIDTH 16 0
BBX 11 12 3 0
BITMAP
8000
6000
1800
0C00
0300
00C0
0060
00C0
0300
0C00
3000
C000
ENDCHAR
STARTCHAR FF1F
ENCODING 9023
SWIDTH 1600 0
DWIDTH 16 0
BBX 9 13 4 -1
BITMAP
3E00
C100
8080
8080
8080
6300
0C00
1000
1000
1000
1000
0000
1000
ENDCHAR
STARTCHAR FF20
ENCODING 9024
SWIDTH 1600 0
DWIDTH 16 0
BBX 12 13 2 -1
BITMAP
0600
39C0
6020
4010
8F90
9090
9090
9090
9090
49E0
4600
2000
1F80
ENDCHAR
STARTCHAR FF21
ENCODING 9025
SWIDTH 1600 0
DWIDTH 16 0
BBX 10 13 3 -1
BITMAP
0C00
0C00
0C00
1200
1200
2200
2100
2100
4080
7F80
4080
8040
8040
ENDCHAR
STARTCHAR FF22
ENCODING 9026
SWIDTH 1600 0
DWIDTH 16 0
BBX 9 12 4 0
BITMAP
FF00
8080
8080
8080
8180
FF00
8080
8080
8080
8080
8080
FF00
ENDCHAR
STARTCHAR FF23
ENCODING 9027
SWIDTH 1600 0
DWIDTH 16 0
BBX 10 12 3 0
BITMAP
1E00
2180
4080
8040
8000
8000
8000
8000
8040
4080
2180
1E00
ENDCHAR
STARTCHAR FF24
ENCODING 9028
SWIDTH 1600 0
DWIDTH 16 0
BBX 9 12 4 0
BITMAP
FC00
8300
8100
8080
8080
8080
8080
8080
8080
8100
8300
FE00
ENDCHAR
STARTCHAR FF25
ENCODING 9029
SWIDTH 1600 0
DWIDTH 16 0
BBX 8 12 4 0
BITMAP
FF
80
80
80
80
80
FF
80
80
80
80
FF
ENDCHAR
STARTCHAR FF26
ENCODING 9030
SWIDTH 1600 0
DWIDTH 16 0
BBX 8 13 4 -1
BITMAP
FF
80
80
80
80
80
FF
80
80
80
80
80
80
ENDCHAR
STARTCHAR FF27
ENCODING 9031
SWIDTH 1600 0
DWIDTH 16 0
BBX 10 13 3 -1
BITMAP
1E00
2100
4080
C040
8000
8000
87C0
8040
8040
C040
4080
2180
1E00
ENDCHAR
STARTCHAR FF28
ENCODING 9032
SWIDTH 1600 0
DWIDTH 16 0
BBX 8 12 4 0
BITMAP
81
81
81
81
81
FF
81
81
81
81
81
81
ENDCHAR
STARTCHAR FF29
ENCODING 9033
SWIDTH 1600 0
DWIDTH 16 0
BBX 1 12 8 0
BITMAP
80
80
80
80
80
80
80
80
80
80
80
80
ENDCHAR
STARTCHAR FF2A
ENCODING 9034
SWIDTH 1600 0
DWIDTH 16 0
BBX 8 12 3 0
BITMAP
01
01
01
01
01
01
01
81
81
C1
42
3C
ENDCHAR
STARTCHAR FF2B
ENCODING 9035
SWIDTH 1600 0
DWIDTH 16 0
BBX 8 12 5 0
BITMAP
81
82
84
88
B0
E0
E0
B0
88
84
82
81
ENDCHAR
STARTCHAR FF2C
ENCODING 9036
SWIDTH 1600 0
DWIDTH 16 0
BBX 9 12 4 0
BITMAP
8000
8000
8000
8000
8000
8000
8000
8000
8000
8000
8000
FF80
ENDCHAR
STARTCHAR FF2D
ENCODING 9037
SWIDTH 1600 0
DWIDTH 16 0
BBX 12 12 2 0
BITMAP
8030
C030
C030
A050
A050
9090
9090
8910
8910
8A10
8610
8410
ENDCHAR
STARTCHAR FF2E
ENCODING 9038
SWIDTH 1600 0
DWIDTH 16 0
BBX 8 12 4 0
BITMAP
81
C1
C1
A1
91
91
89
89
85
85
83
81
ENDCHAR
STARTCHAR FF2F
ENCODING 9039
SWIDTH 1600 0
DWIDTH 16 0
BBX 10 13 3 -1
BITMAP
1E00
2100
4080
80C0
8040
8040
8040
8040
8040
C0C0
4080
2100
1E00
ENDCHAR
STARTCHAR FF30
ENCODING 9040
SWIDTH 1600 0
DWIDTH 16 0
BBX 10 12 4 0
BITMAP
FF80
80C0
8040
8040
8040
8080
FF00
8000
8000
8000
8000
8000
ENDCHAR
STARTCHAR FF31
ENCODING 9041
SWIDTH 1600 0
DWIDTH 16 0
BBX 10 14 3 -2
BITMAP
1E00
6180
4080
8040
8040
8040
8040
8040
8040
4080
6100
3E00
6200
01C0
ENDCHAR
STARTCHAR FF32
ENCODING 9042
SWIDTH 1600 0
DWIDTH 16 0
BBX 10 13 3 -1
BITMAP
FF80
80C0
8040
8040
8040
8080
FF00
8180
8080
8080
8080
8040
8040
ENDCHAR
STARTCHAR FF33
ENCODING 9043
SWIDTH 1600 0
DWIDTH 16 0
BBX 9 13 4 -1
BITMAP
3C00
4300
8100
8000
8000
6000
1E00
0100
0080
8080
8080
6100
3E00
ENDCHAR
STARTCHAR FF34
ENCODING 9044
SWIDTH 1600 0
DWIDTH 16 0
BBX 9 12 4 0
BITMAP
FF80
0800
0800
0800
0800
0800
0800
0800
0800
0800
0800
0800
ENDCHAR
STARTCHAR FF35
ENCODING 9045
SWIDTH 1600 0
DWIDTH 16 0
BBX 8 12 4 0
BITMAP
81
81
81
81
81
81
81
81
81
83
42
3C
ENDCHAR
STARTCHAR FF36
ENCODING 9046
SWIDTH 1600 0
DWIDTH 16 0
BBX 9 12 3 0
BITMAP
8080
4080
4080
4100
2100
2100
2200
1200
1200
1200
0C00
0C00
ENDCHAR
STARTCHAR FF37
ENCODING 9047
SWIDTH 1600 0
DWIDTH 16 0
BBX 14 12 1 0
BITMAP
8304
4308
4308
4308
4488
2490
2490
2490
2450
1860
1860
1820
ENDCHAR
STARTCHAR FF38
ENCODING 9048
SWIDTH 1600 0
DWIDTH 16 0
BBX 10 12 3 0
BITMAP
4080
2100
2100
1200
0C00
0C00
0C00
1200
3100
2100
4080
8040
ENDCHAR
STARTCHAR FF39
ENCODING 9049
SWIDTH 1600 0
DWIDTH 16 0
BBX 9 12 3 0
BITMAP
8080
C100
4100
2200
2400
1400
0800
0800
0800
0800
0800
0800
ENDCHAR
STARTCHAR FF3A
ENCODING 9050
SWIDTH 1600 0
DWIDTH 16 0
BBX 9 12 3 0
BITMAP
7F80
0080
0100
0200
0400
0C00
0800
1000
2000
4000
4000
FF80
ENDCHAR
STARTCHAR FF3B
ENCODING 9051
SWIDTH 1600 0
DWIDTH 16 0
BBX 5 14 6 -2
BITMAP
F8
80
80
80
80
80
80
80
80
80
80
80
80
78
ENDCHAR
STARTCHAR FFE6
ENCODING 9052
SWIDTH 1600 0
DWIDTH 16 0
BBX 14 13 1 -1
BITMAP
4308
4308
4308
2510
FFFC
2490
2490
2490
FFFC
24A0
1860
1860
1860
ENDCHAR
STARTCHAR FF3D
ENCODING 9053
SWIDTH 1600 0
DWIDTH 16 0
BBX 5 14 5 -2
BITMAP
F8
08
08
08
08
08
08
08
08
08
08
08
08
F8
ENDCHAR
STARTCHAR FF3E
ENCODING 9054
SWIDTH 1600 0
DWIDTH 16 0
BBX 4 1 6 11
BITMAP
F0
ENDCHAR
STARTCHAR FF3F
ENCODING 9055
SWIDTH 1600 0
DWIDTH 16 0
BBX 14 1 1 -2
BITMAP
FFFC
ENDCHAR
STARTCHAR FF40
ENCODING 9056
SWIDTH 1600 0
DWIDTH 16 0
BBX 2 3 7 9
BITMAP
80
80
40
ENDCHAR
STARTCHAR FF41
ENCODING 9057
SWIDTH 1600 0
DWIDTH 16 0
BBX 7 8 4 0
BITMAP
3C
42
02
3E
C2
82
86
7A
ENDCHAR
STARTCHAR FF42
ENCODING 9058
SWIDTH 1600 0
DWIDTH 16 0
BBX 7 11 5 0
BITMAP
80
80
80
B8
C4
82
82
82
82
C4
B8
ENDCHAR
STARTCHAR FF43
ENCODING 9059
SWIDTH 1600 0
DWIDTH 16 0
BBX 7 8 4 0
BITMAP
3C
46
82
80
80
82
42
3C
ENDCHAR
STARTCHAR FF44
ENCODING 9060
SWIDTH 1600 0
DWIDTH 16 0
BBX 6 10 5 0
BITMAP
04
04
74
4C
84
84
84
84
CC
74
ENDCHAR
STARTCHAR FF45
ENCODING 9061
SWIDTH 1600 0
DWIDTH 16 0
BBX 7 8 4 0
BITMAP
3C
42
82
7E
80
40
42
3C
ENDCHAR
STARTCHAR FF46
ENCODING 9062
SWIDTH 1600 0
DWIDTH 16 0
BBX 6 11 5 0
BITMAP
18
24
20
20
FC
20
20
20
20
20
20
ENDCHAR
STARTCHAR FF47
ENCODING 9063
SWIDTH 1600 0
DWIDTH 16 0
BBX 7 10 4 -2
BITMAP
3A
46
82
82
82
82
46
3A
84
78
ENDCHAR
STARTCHAR FF48
ENCODING 9064
SWIDTH 1600 0
DWIDTH 16 0
BBX 6 11 5 0
BITMAP
80
80
80
B8
C4
84
84
84
84
84
84
ENDCHAR
STARTCHAR FF49
ENCODING 9065
SWIDTH 1600 0
DWIDTH 16 0
BBX 1 11 7 0
BITMAP
80
00
80
80
80
80
80
80
80
80
80
ENDCHAR
STARTCHAR FF4A
ENCODING 9066
SWIDTH 1600 0
DWIDTH 16 0
BBX 5 13 4 -2
BITMAP
08
00
08
08
08
08
08
08
08
08
08
08
F0
ENDCHAR
STARTCHAR FF4B
ENCODING 9067
SWIDTH 1600 0
DWIDTH 16 0
BBX 6 11 5 0
BITMAP
80
80
80
88
90
A0
A0
B0
98
8C
84
ENDCHAR
STARTCHAR FF4C
ENCODING 9068
SWIDTH 1600 0
DWIDTH 16 0
BBX 1 11 8 0
BITMAP
80
80
80
80
80
80
80
80
80
80
80
ENDCHAR
STARTCHAR FF4D
ENCODING 9069
SWIDTH 1600 0
DWIDTH 16 0
BBX 10 9 3 0
BITMAP
3180
CEC0
8440
8440
8440
8440
8440
8440
8440
ENDCHAR
STARTCHAR FF4E
ENCODING 9070
SWIDTH 1600 0
DWIDTH 16 0
BBX 6 9 5 0
BITMAP
90
E8
84
84
84
84
84
84
84
ENDCHAR
STARTCHAR FF4F
ENCODING 9071
SWIDTH 1600 0
DWIDTH 16 0
BBX 8 9 4 0
BITMAP
3C
42
81
81
81
81
81
42
3C
ENDCHAR
STARTCHAR FF50
ENCODING 9072
SWIDTH 1600 0
DWIDTH 16 0
BBX 6 11 5 -2
BITMAP
80
F0
C8
84
84
84
84
88
C8
B0
80
ENDCHAR
STARTCHAR FF51
ENCODING 9073
SWIDTH 1600 0
DWIDTH 16 0
BBX 7 10 4 -2
BITMAP
7E
C6
82
82
82
82
46
3A
02
02
ENDCHAR
STARTCHAR FF52
ENCODING 9074
SWIDTH 1600 0
DWIDTH 16 0
BBX 5 9 6 0
BITMAP
B0
C8
80
80
80
80
80
80
80
ENDCHAR
STARTCHAR FF53
ENCODING 9075
SWIDTH 1600 0
DWIDTH 16 0
BBX 6 9 5 0
BITMAP
78
8C
84
C0
38
04
84
84
78
ENDCHAR
STARTCHAR FF54
ENCODING 9076
SWIDTH 1600 0
DWIDTH 16 0
BBX 5 11 6 0
BITMAP
40
40
40
F8
40
40
40
40
40
48
38
ENDCHAR
STARTCHAR FF55
ENCODING 9077
SWIDTH 1600 0
DWIDTH 16 0
BBX 6 9 5 0
BITMAP
84
84
84
84
84
84
84
CC
74
ENDCHAR
STARTCHAR FF56
ENCODING 9078
SWIDTH 1600 0
DWIDTH 16 0
BBX 7 8 4 0
BITMAP
82
42
42
24
24
28
18
18
ENDCHAR
STARTCHAR FF57
ENCODING 9079
SWIDTH 1600 0
DWIDTH 16 0
BBX 10 8 3 0
BITMAP
8C40
8C40
9440
9280
5280
5280
6300
2100
ENDCHAR
STARTCHAR FF58
ENCODING 9080
SWIDTH 1600 0
DWIDTH 16 0
BBX 7 8 5 0
BITMAP
84
48
68
30
30
48
C4
86
ENDCHAR
STARTCHAR FF59
ENCODING 9081
SWIDTH 1600 0
DWIDTH 16 0
BBX 7 11 4 -2
BITMAP
02
42
42
24
24
28
18
18
10
10
E0
ENDCHAR
STARTCHAR FF5A
ENCODING 9082
SWIDTH 1600 0
DWIDTH 16 0
BBX 6 9 5 0
BITMAP
FC
0C
08
10
20
40
40
80
FC
ENDCHAR
STARTCHAR FF5B
ENCODING 9083
SWIDTH 1600 0
DWIDTH 16 0
BBX 4 14 7 -2
BITMAP
30
40
40
40
40
40
40
C0
40
40
40
40
40
30
ENDCHAR
STARTCHAR FF5C
ENCODING 9084
SWIDTH 1600 0
DWIDTH 16 0
BBX 1 13 7 -1
BITMAP
80
80
80
80
80
80
80
80
80
80
80
80
80
ENDCHAR
STARTCHAR FF5D
ENCODING 9085
SWIDTH 1600 0
DWIDTH 16 0
BBX 4 14 5 -2
BITMAP
C0
20
20
20
20
20
30
30
20
20
20
20
20
C0
ENDCHAR
STARTCHAR FFE3
ENCODING 9086
SWIDTH 1600 0
DWIDTH 16 0
BBX 9 1 4 5
BITMAP
FF80
ENDCHAR
STARTCHAR 3131
ENCODING 9249
SWIDTH 1600 0
DWIDTH 16 0
BBX 9 8 3 0
BITMAP
FF00
0080
0080
0080
0080
0080
0080
0080
ENDCHAR
STARTCHAR 3132
ENCODING 9250
SWIDTH 1600 0
DWIDTH 16 0
BBX 11 8 2 0
BITMAP
F3C0
0820
0820
0820
0820
0820
0820
0820
ENDCHAR
STARTCHAR 3133
ENCODING 9251
SWIDTH 1600 0
DWIDTH 16 0
BBX 12 8 2 0
BITMAP
F080
0880
0880
0880
0940
0940
0A20
0C10
ENDCHAR
STARTCHAR 3134
ENCODING 9252
SWIDTH 1600 0
DWIDTH 16 0
BBX 9 8 4 0
BITMAP
8000
8000
8000
8000
8000
8000
8000
7F80
ENDCHAR
STARTCHAR 3135
ENCODING 9253
SWIDTH 1600 0
DWIDTH 16 0
BBX 12 8 2 0
BITMAP
87F0
8080
8080
8080
8140
8140
8220
7410
ENDCHAR
STARTCHAR 3136
ENCODING 9254
SWIDTH 1600 0
DWIDTH 16 0
BBX 12 8 2 0
BITMAP
81C0
8000
87F0
8000
81C0
8220
8220
79C0
ENDCHAR
STARTCHAR 3137
ENCODING 9255
SWIDTH 1600 0
DWIDTH 16 0
BBX 9 8 4 0
BITMAP
FF80
8000
8000
8000
8000
8000
8000
7F80
ENDCHAR
STARTCHAR 3138
ENCODING 9256
SWIDTH 1600 0
DWIDTH 16 0
BBX 10 8 3 0
BITMAP
F7C0
8400
8400
8400
8400
8400
8400
73C0
ENDCHAR
STARTCHAR 3139
ENCODING 9257
SWIDTH 1600 0
DWIDTH 16 0
BBX 9 8 4 0
BITMAP
FE00
0100
0100
FF00
8000
8000
8000
7F80
ENDCHAR
STARTCHAR 313A
ENCODING 9258
SWIDTH 1600 0
DWIDTH 16 0
BBX 11 8 2 0
BITMAP
F3C0
0820
0820
F820
8020
8020
8020
7C20
ENDCHAR
STARTCHAR 313B
ENCODING 9259
SWIDTH 1600 0
DWIDTH 16 0
BBX 10 8 3 0
BITMAP
E3C0
1240
1240
F240
8240
8240
8240
7BC0
ENDCHAR
STARTCHAR 313C
ENCODING 9260
SWIDTH 1600 0
DWIDTH 16 0
BBX 11 8 2 0
BITMAP
E220
1220
1220
F3E0
8220
8220
8220
79C0
ENDCHAR
STARTCHAR 313D
ENCODING 9261
SWIDTH 1600 0
DWIDTH 16 0
BBX 12 8 2 0
BITMAP
F080
0880
0880
F880
8140
8140
8220
7C10
ENDCHAR
STARTCHAR 313E
ENCODING 9262
SWIDTH 1600 0
DWIDTH 16 0
BBX 12 8 2 0
BITMAP
F1F0
0900
0900
F9F0
8100
8100
8100
7CF0
ENDCHAR
STARTCHAR 313F
ENCODING 9263
SWIDTH 1600 0
DWIDTH 16 0
BBX 12 8 2 0
BITMAP
F3F0
0800
0920
F920
8120
8120
8120
7FF0
ENDCHAR
STARTCHAR 3140
ENCODING 9264
SWIDTH 1600 0
DWIDTH 16 0
BBX 12 8 2 0
BITMAP
E1E0
1000
13F0
F000
81E0
8210
8210
79E0
ENDCHAR
STARTCHAR 3141
ENCODING 9265
SWIDTH 1600 0
DWIDTH 16 0
BBX 8 8 4 0
BITMAP
FF
81
81
81
81
81
81
7F
ENDCHAR
STARTCHAR 3142
ENCODING 9266
SWIDTH 1600 0
DWIDTH 16 0
BBX 8 8 4 0
BITMAP
81
81
81
FF
81
81
81
7E
ENDCHAR
STARTCHAR 3143
ENCODING 9267
SWIDTH 1600 0
DWIDTH 16 0
BBX 10 8 3 0
BITMAP
9240
9240
9240
F3C0
9240
9240
9240
6180
ENDCHAR
STARTCHAR 3144
ENCODING 9268
SWIDTH 1600 0
DWIDTH 16 0
BBX 12 8 2 0
BITMAP
8880
8880
8880
F880
8940
8940
8A20
7410
ENDCHAR
STARTCHAR 3145
ENCODING 9269
SWIDTH 1600 0
DWIDTH 16 0
BBX 11 8 2 0
BITMAP
0400
0400
0400
0A00
0A00
1100
60C0
8020
ENDCHAR
STARTCHAR 3146
ENCODING 9270
SWIDTH 1600 0
DWIDTH 16 0
BBX 12 8 2 0
BITMAP
1080
1080
1080
1080
1080
2940
4620
8410
ENDCHAR
STARTCHAR 3147
ENCODING 9271
SWIDTH 1600 0
DWIDTH 16 0
BBX 10 8 3 0
BITMAP
3F00
4080
8040
8040
8040
8040
4080
3F00
ENDCHAR
STARTCHAR 3148
ENCODING 9272
SWIDTH 1600 0
DWIDTH 16 0
BBX 11 8 2 0
BITMAP
FFE0
0400
0400
0400
0A00
1100
60C0
8020
ENDCHAR
STARTCHAR 3149
ENCODING 9273
SWIDTH 1600 0
DWIDTH 16 0
BBX 12 8 2 0
BITMAP
FFF0
1080
1080
1080
2940
2940
4620
8410
ENDCHAR
STARTCHAR 314A
ENCODING 9274
SWIDTH 1600 0
DWIDTH 16 0
BBX 11 8 2 0
BITMAP
3F80
0000
FFE0
0400
0A00
1100
60C0
8020
ENDCHAR
STARTCHAR 314B
ENCODING 9275
SWIDTH 1600 0
DWIDTH 16 0
BBX 9 8 3 0
BITMAP
FF00
0080
0080
0080
FE80
0080
0080
0100
ENDCHAR
STARTCHAR 314C
ENCODING 9276
SWIDTH 1600 0
DWIDTH 16 0
BBX 9 8 4 0
BITMAP
FF80
8000
8000
FF80
8000
8000
8000
7F80
ENDCHAR
STARTCHAR 314D
ENCODING 9277
SWIDTH 1600 0
DWIDTH 16 0
BBX 10 8 3 0
BITMAP
FFC0
0000
2100
2100
2100
2100
2100
FFC0
ENDCHAR
STARTCHAR 314E
ENCODING 9278
SWIDTH 1600 0
DWIDTH 16 0
BBX 10 9 3 0
BITMAP
3F00
0000
FFC0
0000
3F00
4080
4080
4080
3F00
ENDCHAR
STARTCHAR 314F
ENCODING 9279
SWIDTH 1600 0
DWIDTH 16 0
BBX 5 14 6 -1
BITMAP
80
80
80
80
80
80
F8
80
80
80
80
80
80
80
ENDCHAR
STARTCHAR 3150
ENCODING 9280
SWIDTH 1600 0
DWIDTH 16 0
BBX 5 14 5 -1
BITMAP
88
88
88
88
88
88
F8
88
88
88
88
88
88
08
ENDCHAR
STARTCHAR 3151
ENCODING 9281
SWIDTH 1600 0
DWIDTH 16 0
BBX 5 14 7 -1
BITMAP
80
80
80
80
F8
80
80
80
F8
80
80
80
80
80
ENDCHAR
STARTCHAR 3152
ENCODING 9282
SWIDTH 1600 0
DWIDTH 16 0
BBX 5 14 5 -1
BITMAP
88
88
88
88
F8
88
88
88
F8
88
88
88
88
88
ENDCHAR
STARTCHAR 3153
ENCODING 9283
SWIDTH 1600 0
DWIDTH 16 0
BBX 5 14 5 -1
BITMAP
08
08
08
08
08
08
F8
08
08
08
08
08
08
08
ENDCHAR
STARTCHAR 3154
ENCODING 9284
SWIDTH 1600 0
DWIDTH 16 0
BBX 8 14 3 -1
BITMAP
01
09
09
09
09
09
F9
09
09
09
09
09
09
01
ENDCHAR
STARTCHAR 3155
ENCODING 9285
SWIDTH 1600 0
DWIDTH 16 0
BBX 6 14 4 -1
BITMAP
04
04
04
04
FC
04
04
04
FC
04
04
04
04
04
ENDCHAR
STARTCHAR 3156
ENCODING 9286
SWIDTH 1600 0
DWIDTH 16 0
BBX 7 14 4 -1
BITMAP
12
12
12
12
F2
12
12
12
F2
12
12
12
12
02
ENDCHAR
STARTCHAR 3157
ENCODING 9287
SWIDTH 1600 0
DWIDTH 16 0
BBX 13 7 1 1
BITMAP
0200
0200
0200
0200
0200
0200
FFF8
ENDCHAR
STARTCHAR 3158
ENCODING 9288
SWIDTH 1600 0
DWIDTH 16 0
BBX 13 14 1 -1
BITMAP
0040
0040
0040
0840
0840
0840
0878
0840
0840
FFC0
0040
0040
0040
0040
ENDCHAR
STARTCHAR 3159
ENCODING 9289
SWIDTH 1600 0
DWIDTH 16 0
BBX 11 14 2 -1
BITMAP
0020
0120
0120
0120
1120
1120
1120
11E0
1120
FF20
0120
0120
0120
0020
ENDCHAR
STARTCHAR 315A
ENCODING 9290
SWIDTH 1600 0
DWIDTH 16 0
BBX 11 14 2 -1
BITMAP
0020
0020
0020
0820
0820
0820
0820
0820
0820
FFA0
0020
0020
0020
0020
ENDCHAR
STARTCHAR 315B
ENCODING 9291
SWIDTH 1600 0
DWIDTH 16 0
BBX 12 7 2 1
BITMAP
1080
1080
1080
1080
1080
1080
FFF0
ENDCHAR
STARTCHAR 315C
ENCODING 9292
SWIDTH 1600 0
DWIDTH 16 0
BBX 13 10 1 -1
BITMAP
FFF8
0200
0200
0200
0200
0200
0200
0200
0200
0200
ENDCHAR
STARTCHAR 315D
ENCODING 9293
SWIDTH 1600 0
DWIDTH 16 0
BBX 12 14 2 -1
BITMAP
0010
0010
0010
0010
FF90
0810
0810
09F0
0810
0810
0810
0810
0010
0010
ENDCHAR
STARTCHAR 315E
ENCODING 9294
SWIDTH 1600 0
DWIDTH 16 0
BBX 12 14 2 -1
BITMAP
0090
0090
0090
0090
FE90
1090
1090
1790
1090
1090
1090
1090
0090
0010
ENDCHAR
STARTCHAR 315F
ENCODING 9295
SWIDTH 1600 0
DWIDTH 16 0
BBX 11 14 3 -1
BITMAP
0020
0020
0020
0020
0020
FFA0
0820
0820
0820
0820
0820
0820
0820
0020
ENDCHAR
STARTCHAR 3160
ENCODING 9296
SWIDTH 1600 0
DWIDTH 16 0
BBX 12 10 2 -1
BITMAP
FFF0
1080
1080
1080
1080
1080
1080
1080
1080
1080
ENDCHAR
STARTCHAR 3161
ENCODING 9297
SWIDTH 1600 0
DWIDTH 16 0
BBX 12 1 2 4
BITMAP
FFF0
ENDCHAR
STARTCHAR 3162
ENCODING 9298
SWIDTH 1600 0
DWIDTH 16 0
BBX 10 14 3 -1
BITMAP
0040
0040
0040
0040
0040
0040
0040
0040
FF40
0040
0040
0040
0040
0040
ENDCHAR
STARTCHAR 3163
ENCODING 9299
SWIDTH 1600 0
DWIDTH 16 0
BBX 1 14 7 -1
BITMAP
80
80
80
80
80
80
80
80
80
80
80
80
80
80
ENDCHAR
STARTCHAR 3164
ENCODING 9300
SWIDTH 1600 0
DWIDTH 16 0
BBX 0 0 0 0
BITMAP
ENDCHAR
STARTCHAR 3165
ENCODING 9301
SWIDTH 1600 0
DWIDTH 16 0
BBX 11 8 2 0
BITMAP
8200
8200
8200
8200
8200
8200
8200
79E0
ENDCHAR
STARTCHAR 3166
ENCODING 9302
SWIDTH 1600 0
DWIDTH 16 0
BBX 12 8 2 0
BITMAP
83F0
8200
8200
8200
8200
8200
8200
79F0
ENDCHAR
STARTCHAR 3167
ENCODING 9303
SWIDTH 1600 0
DWIDTH 16 0
BBX 12 8 2 0
BITMAP
8080
8080
8080
8080
8140
8140
8220
7C10
ENDCHAR
STARTCHAR 3168
ENCODING 9304
SWIDTH 1600 0
DWIDTH 16 0
BBX 11 8 2 0
BITMAP
8080
8080
8080
8140
8140
8220
8220
7BE0
ENDCHAR
STARTCHAR 3169
ENCODING 9305
SWIDTH 1600 0
DWIDTH 16 0
BBX 12 8 2 0
BITMAP
FC40
2240
2240
E240
82A0
82A0
82A0
7310
ENDCHAR
STARTCHAR 316A
ENCODING 9306
SWIDTH 1600 0
DWIDTH 16 0
BBX 12 8 2 0
BITMAP
F1F0
0900
0900
F900
8100
8100
8100
7CF0
ENDCHAR
STARTCHAR 316B
ENCODING 9307
SWIDTH 1600 0
DWIDTH 16 0
BBX 12 8 2 0
BITMAP
C940
2940
2940
EF40
8940
89A0
89A0
7710
ENDCHAR
STARTCHAR 316C
ENCODING 9308
SWIDTH 1600 0
DWIDTH 16 0
BBX 10 8 3 0
BITMAP
E100
1100
1280
F280
8280
8440
8440
7FC0
ENDCHAR
STARTCHAR 316D
ENCODING 9309
SWIDTH 1600 0
DWIDTH 16 0
BBX 12 8 2 0
BITMAP
FFF0
0800
0800
F9C0
8220
8220
8220
F9C0
ENDCHAR
STARTCHAR 316E
ENCODING 9310
SWIDTH 1600 0
DWIDTH 16 0
BBX 11 8 2 0
BITMAP
F920
8920
8920
89E0
8920
8920
8920
F9E0
ENDCHAR
STARTCHAR 316F
ENCODING 9311
SWIDTH 1600 0
DWIDTH 16 0
BBX 12 8 2 0
BITMAP
F880
8880
8880
8880
8940
8940
8A20
FA10
ENDCHAR
STARTCHAR 3170
ENCODING 9312
SWIDTH 1600 0
DWIDTH 16 0
BBX 12 8 2 0
BITMAP
F880
8880
8940
8940
8920
8A20
8A20
FBF0
ENDCHAR
STARTCHAR 3171
ENCODING 9313
SWIDTH 1600 0
DWIDTH 16 0
BBX 7 11 4 -1
BITMAP
FE
82
82
82
FE
00
3C
42
42
42
3C
ENDCHAR
STARTCHAR 3172
ENCODING 9314
SWIDTH 1600 0
DWIDTH 16 0
BBX 11 8 2 0
BITMAP
8BE0
8820
8820
F820
8820
8820
8820
F820
ENDCHAR
STARTCHAR 3173
ENCODING 9315
SWIDTH 1600 0
DWIDTH 16 0
BBX 11 8 2 0
BITMAP
8BE0
8A00
8A00
FA00
8A00
8A00
8A00
FBE0
ENDCHAR
STARTCHAR 3174
ENCODING 9316
SWIDTH 1600 0
DWIDTH 16 0
BBX 11 8 2 0
BITMAP
93E0
9220
9220
9220
F620
9520
9520
F8A0
ENDCHAR
STARTCHAR 3175
ENCODING 9317
SWIDTH 1600 0
DWIDTH 16 0
BBX 13 8 2 0
BITMAP
9470
9440
9440
F440
9A40
9A40
9A40
F178
ENDCHAR
STARTCHAR 3176
ENCODING 9318
SWIDTH 1600 0
DWIDTH 16 0
BBX 12 8 2 0
BITMAP
8FE0
8880
8880
F880
8940
8940
8A20
FC10
ENDCHAR
STARTCHAR 3177
ENCODING 9319
SWIDTH 1600 0
DWIDTH 16 0
BBX 12 8 2 0
BITMAP
89F0
8900
8900
F9F0
8900
8900
8900
F9F0
ENDCHAR
STARTCHAR 3178
ENCODING 9320
SWIDTH 1600 0
DWIDTH 16 0
BBX 7 12 4 -1
BITMAP
82
82
FE
82
82
FE
00
3C
42
42
42
3C
ENDCHAR
STARTCHAR 3179
ENCODING 9321
SWIDTH 1600 0
DWIDTH 16 0
BBX 9 13 3 -1
BITMAP
9480
9480
9480
F780
9480
9480
F780
0000
1E00
2100
2100
2100
1E00
ENDCHAR
STARTCHAR 317A
ENCODING 9322
SWIDTH 1600 0
DWIDTH 16 0
BBX 10 8 3 0
BITMAP
27C0
2040
2040
2040
5040
5040
8840
0440
ENDCHAR
STARTCHAR 317B
ENCODING 9323
SWIDTH 1600 0
DWIDTH 16 0
BBX 12 8 2 0
BITMAP
2200
2200
2200
2200
5200
5200
8A00
87F0
ENDCHAR
STARTCHAR 317C
ENCODING 9324
SWIDTH 1600 0
DWIDTH 16 0
BBX 12 8 2 0
BITMAP
23E0
2200
2200
2200
5200
5200
8A00
07F0
ENDCHAR
STARTCHAR 317D
ENCODING 9325
SWIDTH 1600 0
DWIDTH 16 0
BBX 11 8 2 0
BITMAP
2020
2220
2220
23E0
5220
5220
8A20
87E0
ENDCHAR
STARTCHAR 317E
ENCODING 9326
SWIDTH 1600 0
DWIDTH 16 0
BBX 11 8 3 0
BITMAP
2FC0
2100
2100
2100
5280
5280
8C40
0820
ENDCHAR
STARTCHAR 317F
ENCODING 9327
SWIDTH 1600 0
DWIDTH 16 0
BBX 8 8 4 0
BITMAP
10
18
28
24
44
42
82
FF
ENDCHAR
STARTCHAR 3180
ENCODING 9328
SWIDTH 1600 0
DWIDTH 16 0
BBX 11 8 2 0
BITMAP
71C0
DA60
8A20
8A20
8A20
8A20
DA60
71C0
ENDCHAR
STARTCHAR 3181
ENCODING 9329
SWIDTH 1600 0
DWIDTH 16 0
BBX 9 11 3 -1
BITMAP
0800
0800
1C00
7F00
C180
8080
8080
8080
8080
4300
3E00
ENDCHAR
STARTCHAR 3182
ENCODING 9330
SWIDTH 1600 0
DWIDTH 16 0
BBX 12 9 2 0
BITMAP
2000
2080
7080
D880
8880
8940
8940
DA20
7210
ENDCHAR
STARTCHAR 3183
ENCODING 9331
SWIDTH 1600 0
DWIDTH 16 0
BBX 12 9 2 0
BITMAP
2000
2080
7080
D940
8940
8940
8A20
DA20
73F0
ENDCHAR
STARTCHAR 3184
ENCODING 9332
SWIDTH 1600 0
DWIDTH 16 0
BBX 10 12 3 -1
BITMAP
FF80
2000
2200
2200
2200
FFC0
0000
1E00
2100
2100
2100
1E00
ENDCHAR
STARTCHAR 3185
ENCODING 9333
SWIDTH 1600 0
DWIDTH 16 0
BBX 12 10 2 -1
BITMAP
F1E0
0000
FFF0
0000
0000
71E0
8A10
8A10
8A10
71E0
ENDCHAR
STARTCHAR 3186
ENCODING 9334
SWIDTH 1600 0
DWIDTH 16 0
BBX 11 10 2 -1
BITMAP
FFE0
0000
0000
0000
0F00
1180
1080
1080
1180
0F00
ENDCHAR
STARTCHAR 3187
ENCODING 9335
SWIDTH 1600 0
DWIDTH 16 0
BBX 12 14 2 -1
BITMAP
0080
0080
0480
2480
2480
24F0
2480
2480
27F0
FF80
8080
0080
0080
0080
ENDCHAR
STARTCHAR 3188
ENCODING 9336
SWIDTH 1600 0
DWIDTH 16 0
BBX 11 14 2 -1
BITMAP
0120
0120
0120
2920
29E0
2920
2920
2BE0
FF20
8120
0120
0120
0120
0020
ENDCHAR
STARTCHAR 3189
ENCODING 9337
SWIDTH 1600 0
DWIDTH 16 0
BBX 10 14 2 -1
BITMAP
0040
0040
0040
2440
2440
2440
2440
2440
2440
FFC0
8040
0040
0040
0040
ENDCHAR
STARTCHAR 318A
ENCODING 9338
SWIDTH 1600 0
DWIDTH 16 0
BBX 10 14 2 -1
BITMAP
0040
0040
0040
01C0
FFC0
2440
25C0
2440
2440
25C0
2440
2440
2440
0040
ENDCHAR
STARTCHAR 318B
ENCODING 9339
SWIDTH 1600 0
DWIDTH 16 0
BBX 11 14 2 -1
BITMAP
0020
00A0
00A0
06A0
F8A0
28A0
2BA0
28A0
28A0
2BA0
28A0
28A0
00A0
0020
ENDCHAR
STARTCHAR 318C
ENCODING 9340
SWIDTH 1600 0
DWIDTH 16 0
BBX 9 14 3 -1
BITMAP
0080
0080
0080
0080
0380
FF80
2480
2480
2480
2480
2480
2480
2480
0080
ENDCHAR
STARTCHAR 318D
ENCODING 9341
SWIDTH 1600 0
DWIDTH 16 0
BBX 2 2 7 3
BITMAP
C0
C0
ENDCHAR
STARTCHAR 318E
ENCODING 9342
SWIDTH 1600 0
DWIDTH 16 0
BBX 7 14 4 -1
BITMAP
02
02
02
02
02
02
C2
C2
02
02
02
02
02
02
ENDCHAR
STARTCHAR 2170
ENCODING 9505
SWIDTH 1600 0
DWIDTH 16 0
BBX 1 12 7 0
BITMAP
80
00
00
00
80
80
80
80
80
80
80
80
ENDCHAR
STARTCHAR 2171
ENCODING 9506
SWIDTH 1600 0
DWIDTH 16 0
BBX 5 12 5 0
BITMAP
88
00
00
00
88
88
88
88
88
88
88
88
ENDCHAR
STARTCHAR 2172
ENCODING 9507
SWIDTH 1600 0
DWIDTH 16 0
BBX 8 12 4 0
BITMAP
91
00
00
00
91
91
91
91
91
91
91
91
ENDCHAR
STARTCHAR 2173
ENCODING 9508
SWIDTH 1600 0
DWIDTH 16 0
BBX 8 12 4 0
BITMAP
80
00
00
00
91
92
92
92
8C
8C
84
84
ENDCHAR
STARTCHAR 2174
ENCODING 9509
SWIDTH 1600 0
DWIDTH 16 0
BBX 5 8 5 0
BITMAP
80
88
48
50
50
30
20
20
ENDCHAR
STARTCHAR 2175
ENCODING 9510
SWIDTH 1600 0
DWIDTH 16 0
BBX 9 12 3 0
BITMAP
0080
0000
0000
0000
8480
8880
4880
4880
3080
3080
1080
1080
ENDCHAR
STARTCHAR 2176
ENCODING 9511
SWIDTH 1600 0
DWIDTH 16 0
BBX 10 12 3 0
BITMAP
0280
0000
0000
0000
9240
9240
9240
A240
6240
6240
6240
0240
ENDCHAR
STARTCHAR 2177
ENCODING 9512
SWIDTH 1600 0
DWIDTH 16 0
BBX 11 12 2 0
BITMAP
02A0
0000
0000
0000
8AA0
92A0
92A0
52A0
62A0
62A0
22A0
22A0
ENDCHAR
STARTCHAR 2178
ENCODING 9513
SWIDTH 1600 0
DWIDTH 16 0
BBX 8 12 4 0
BITMAP
80
00
00
00
91
92
8A
84
84
8A
8A
91
ENDCHAR
STARTCHAR 2179
ENCODING 9514
SWIDTH 1600 0
DWIDTH 16 0
BBX 5 8 5 0
BITMAP
88
48
50
20
20
50
48
88
ENDCHAR
STARTCHAR 2160
ENCODING 9520
SWIDTH 1600 0
DWIDTH 16 0
BBX 1 11 7 0
BITMAP
80
80
80
80
80
80
80
80
80
80
80
ENDCHAR
STARTCHAR 2161
ENCODING 9521
SWIDTH 1600 0
DWIDTH 16 0
BBX 6 11 5 0
BITMAP
84
84
84
84
84
84
84
84
84
84
84
ENDCHAR
STARTCHAR 2162
ENCODING 9522
SWIDTH 1600 0
DWIDTH 16 0
BBX 8 11 4 0
BITMAP
91
91
91
91
91
91
91
91
91
91
91
ENDCHAR
STARTCHAR 2163
ENCODING 9523
SWIDTH 1600 0
DWIDTH 16 0
BBX 8 11 4 0
BITMAP
A1
A1
91
92
92
92
8A
8C
8C
84
80
ENDCHAR
STARTCHAR 2164
ENCODING 9524
SWIDTH 1600 0
DWIDTH 16 0
BBX 6 10 5 1
BITMAP
04
84
88
88
48
50
50
30
30
20
ENDCHAR
STARTCHAR 2165
ENCODING 9525
SWIDTH 1600 0
DWIDTH 16 0
BBX 9 11 3 0
BITMAP
8480
8480
4480
4880
4880
2880
2880
3080
1080
1080
1080
ENDCHAR
STARTCHAR 2166
ENCODING 9526
SWIDTH 1600 0
DWIDTH 16 0
BBX 11 11 2 0
BITMAP
8520
8520
8920
4920
4920
4920
3120
3120
3120
1120
0120
ENDCHAR
STARTCHAR 2167
ENCODING 9527
SWIDTH 1600 0
DWIDTH 16 0
BBX 11 11 2 0
BITMAP
8AA0
8AA0
92A0
92A0
52A0
52A0
52A0
22A0
22A0
22A0
22A0
ENDCHAR
STARTCHAR 2168
ENCODING 9528
SWIDTH 1600 0
DWIDTH 16 0
BBX 8 11 4 0
BITMAP
81
92
92
8C
8C
84
8C
8C
92
92
81
ENDCHAR
STARTCHAR 2169
ENCODING 9529
SWIDTH 1600 0
DWIDTH 16 0
BBX 5 11 5 0
BITMAP
80
88
50
50
30
20
30
50
48
88
80
ENDCHAR
STARTCHAR 0391
ENCODING 9537
SWIDTH 1600 0
DWIDTH 16 0
BBX 8 11 4 0
BITMAP
02
06
0A
12
22
23
43
7F
81
81
01
ENDCHAR
STARTCHAR 0392
ENCODING 9538
SWIDTH 1600 0
DWIDTH 16 0
BBX 8 11 4 0
BITMAP
1E
21
21
21
42
7C
42
82
82
82
FC
ENDCHAR
STARTCHAR 0393
ENCODING 9539
SWIDTH 1600 0
DWIDTH 16 0
BBX 8 11 4 0
BITMAP
1F
20
20
40
40
40
40
80
80
80
80
ENDCHAR
STARTCHAR 0394
ENCODING 9540
SWIDTH 1600 0
DWIDTH 16 0
BBX 8 11 3 0
BITMAP
01
03
07
09
11
21
21
41
81
81
FF
ENDCHAR
STARTCHAR 0395
ENCODING 9541
SWIDTH 1600 0
DWIDTH 16 0
BBX 9 11 3 0
BITMAP
1F80
1000
2000
2000
2000
3F00
4000
4000
4000
4000
FE00
ENDCHAR
STARTCHAR 0396
ENCODING 9542
SWIDTH 1600 0
DWIDTH 16 0
BBX 9 11 3 0
BITMAP
3F80
0080
0100
0200
0400
0800
1000
3000
2000
4000
FF00
ENDCHAR
STARTCHAR 0397
ENCODING 9543
SWIDTH 1600 0
DWIDTH 16 0
BBX 10 11 3 0
BITMAP
2040
2040
2080
4080
4080
7F80
4100
8100
8100
8200
8200
ENDCHAR
STARTCHAR 0398
ENCODING 9544
SWIDTH 1600 0
DWIDTH 16 0
BBX 9 12 3 -1
BITMAP
1F00
3180
2080
4080
4080
BE80
8080
8080
8100
4100
2600
1800
ENDCHAR
STARTCHAR 0399
ENCODING 9545
SWIDTH 1600 0
DWIDTH 16 0
BBX 3 11 6 0
BITMAP
20
20
20
20
40
40
40
40
40
80
80
ENDCHAR
STARTCHAR 039A
ENCODING 9546
SWIDTH 1600 0
DWIDTH 16 0
BBX 8 11 4 0
BITMAP
21
22
44
48
50
68
48
44
84
82
82
ENDCHAR
STARTCHAR 039B
ENCODING 9547
SWIDTH 1600 0
DWIDTH 16 0
BBX 8 11 4 0
BITMAP
04
0C
0C
12
12
22
22
42
42
81
81
ENDCHAR
STARTCHAR 039C
ENCODING 9548
SWIDTH 1600 0
DWIDTH 16 0
BBX 10 10 3 1
BITMAP
6040
60C0
6140
6140
A280
9280
9480
9480
9880
9880
ENDCHAR
STARTCHAR 039D
ENCODING 9549
SWIDTH 1600 0
DWIDTH 16 0
BBX 9 11 3 0
BITMAP
3080
3080
3080
2880
4900
4900
4500
4500
4500
8200
8200
ENDCHAR
STARTCHAR 039E
ENCODING 9550
SWIDTH 1600 0
DWIDTH 16 0
BBX 9 11 3 0
BITMAP
1F80
0000
0000
0000
0000
3F00
0000
0000
0000
0000
FF00
ENDCHAR
STARTCHAR 039F
ENCODING 9551
SWIDTH 1600 0
DWIDTH 16 0
BBX 9 11 3 0
BITMAP
1E00
2100
4080
4080
8080
8080
8080
8100
8100
4200
3C00
ENDCHAR
STARTCHAR 03A0
ENCODING 9552
SWIDTH 1600 0
DWIDTH 16 0
BBX 9 11 3 0
BITMAP
3F80
2080
2080
4080
4100
4100
4100
4100
4100
8100
8000
ENDCHAR
STARTCHAR 03A1
ENCODING 9553
SWIDTH 1600 0
DWIDTH 16 0
BBX 8 11 4 0
BITMAP
3E
42
41
41
42
7C
40
80
80
80
80
ENDCHAR
STARTCHAR 03A3
ENCODING 9554
SWIDTH 1600 0
DWIDTH 16 0
BBX 9 11 4 0
BITMAP
3F80
2000
1000
1000
0800
0800
1000
2000
6000
4000
FE00
ENDCHAR
STARTCHAR 03A4
ENCODING 9555
SWIDTH 1600 0
DWIDTH 16 0
BBX 8 11 4 0
BITMAP
FF
10
10
10
10
10
20
20
20
20
20
ENDCHAR
STARTCHAR 03A5
ENCODING 9556
SWIDTH 1600 0
DWIDTH 16 0
BBX 7 11 5 0
BITMAP
02
84
84
48
50
30
20
20
40
40
40
ENDCHAR
STARTCHAR 03A6
ENCODING 9557
SWIDTH 1600 0
DWIDTH 16 0
BBX 10 12 3 -1
BITMAP
0400
1F00
6580
4480
8440
8840
8880
8880
6900
3E00
1000
1000
ENDCHAR
STARTCHAR 03A7
ENCODING 9558
SWIDTH 1600 0
DWIDTH 16 0
BBX 9 11 3 0
BITMAP
0080
1100
1200
1400
0C00
0800
1400
2400
2400
4200
8200
ENDCHAR
STARTCHAR 03A8
ENCODING 9559
SWIDTH 1600 0
DWIDTH 16 0
BBX 10 11 3 0
BITMAP
4440
4440
4880
8880
8880
8880
C900
7F00
1000
1000
1000
ENDCHAR
STARTCHAR 03A9
ENCODING 9560
SWIDTH 1600 0
DWIDTH 16 0
BBX 10 11 3 0
BITMAP
0F00
3080
2040
4040
4040
4040
4080
2080
1300
1400
F780
ENDCHAR
STARTCHAR 03B1
ENCODING 9569
SWIDTH 1600 0
DWIDTH 16 0
BBX 7 9 4 0
BITMAP
3A
26
42
42
84
84
84
4C
32
ENDCHAR
STARTCHAR 03B2
ENCODING 9570
SWIDTH 1600 0
DWIDTH 16 0
BBX 7 14 5 -2
BITMAP
0C
16
22
22
44
58
44
44
42
44
44
B8
80
80
ENDCHAR
STARTCHAR 03B3
ENCODING 9571
SWIDTH 1600 0
DWIDTH 16 0
BBX 6 11 5 -1
BITMAP
84
C4
C8
48
50
50
50
60
60
60
E0
ENDCHAR
STARTCHAR 03B4
ENCODING 9572
SWIDTH 1600 0
DWIDTH 16 0
BBX 8 12 4 0
BITMAP
3F
10
10
18
24
44
42
82
84
84
44
38
ENDCHAR
STARTCHAR 03B5
ENCODING 9573
SWIDTH 1600 0
DWIDTH 16 0
BBX 6 9 5 0
BITMAP
38
44
44
60
60
84
84
88
70
ENDCHAR
STARTCHAR 03B6
ENCODING 9574
SWIDTH 1600 0
DWIDTH 16 0
BBX 7 14 4 -1
BITMAP
3E
02
04
08
10
20
20
40
80
40
30
0C
04
38
ENDCHAR
STARTCHAR 03B7
ENCODING 9575
SWIDTH 1600 0
DWIDTH 16 0
BBX 6 11 5 -2
BITMAP
98
64
44
84
88
88
88
88
08
08
10
ENDCHAR
STARTCHAR 03B8
ENCODING 9576
SWIDTH 1600 0
DWIDTH 16 0
BBX 7 12 4 0
BITMAP
1C
22
22
42
42
7E
82
82
84
84
4C
38
ENDCHAR
STARTCHAR 03B9
ENCODING 9577
SWIDTH 1600 0
DWIDTH 16 0
BBX 2 9 7 0
BITMAP
40
80
80
80
80
80
80
80
C0
ENDCHAR
STARTCHAR 03BA
ENCODING 9578
SWIDTH 1600 0
DWIDTH 16 0
BBX 7 9 5 0
BITMAP
46
48
50
A0
D0
90
90
88
88
ENDCHAR
STARTCHAR 03BB
ENCODING 9579
SWIDTH 1600 0
DWIDTH 16 0
BBX 8 12 4 0
BITMAP
10
08
0C
0C
0C
14
14
24
26
46
46
83
ENDCHAR
STARTCHAR 03BC
ENCODING 9580
SWIDTH 1600 0
DWIDTH 16 0
BBX 7 12 4 -2
BITMAP
22
22
22
42
44
44
44
4C
76
40
80
80
ENDCHAR
STARTCHAR 03BD
ENCODING 9581
SWIDTH 1600 0
DWIDTH 16 0
BBX 5 9 6 0
BITMAP
80
88
90
90
90
A0
A0
C0
C0
ENDCHAR
STARTCHAR 03BE
ENCODING 9582
SWIDTH 1600 0
DWIDTH 16 0
BBX 7 15 5 -2
BITMAP
FE
20
40
40
40
38
60
80
80
80
80
70
10
10
20
ENDCHAR
STARTCHAR 03BF
ENCODING 9583
SWIDTH 1600 0
DWIDTH 16 0
BBX 6 9 5 0
BITMAP
30
48
84
84
84
84
88
88
70
ENDCHAR
STARTCHAR 03C0
ENCODING 9584
SWIDTH 1600 0
DWIDTH 16 0
BBX 8 9 4 0
BITMAP
FF
42
44
44
44
44
44
84
80
ENDCHAR
STARTCHAR 03C1
ENCODING 9585
SWIDTH 1600 0
DWIDTH 16 0
BBX 7 12 4 -1
BITMAP
0C
12
22
22
42
42
42
64
58
40
80
80
ENDCHAR
STARTCHAR 03C3
ENCODING 9586
SWIDTH 1600 0
DWIDTH 16 0
BBX 7 9 5 0
BITMAP
3E
4C
84
84
84
84
88
88
70
ENDCHAR
STARTCHAR 03C4
ENCODING 9587
SWIDTH 1600 0
DWIDTH 16 0
BBX 6 9 5 0
BITMAP
FC
20
20
20
20
20
20
20
30
ENDCHAR
STARTCHAR 03C5
ENCODING 9588
SWIDTH 1600 0
DWIDTH 16 0
BBX 6 9 5 0
BITMAP
44
84
88
88
88
88
88
90
70
ENDCHAR
STARTCHAR 03C6
ENCODING 9589
SWIDTH 1600 0
DWIDTH 16 0
BBX 8 11 4 -2
BITMAP
16
69
49
89
91
91
92
56
7C
10
10
ENDCHAR
STARTCHAR 03C7
ENCODING 9590
SWIDTH 1600 0
DWIDTH 16 0
BBX 6 11 5 -2
BITMAP
C4
48
48
30
30
20
30
50
50
90
0C
ENDCHAR
STARTCHAR 03C8
ENCODING 9591
SWIDTH 1600 0
DWIDTH 16 0
BBX 9 12 4 -2
BITMAP
8880
8900
9100
9100
9100
9100
9200
9200
7C00
2000
2000
2000
ENDCHAR
STARTCHAR 03C9
ENCODING 9592
SWIDTH 1600 0
DWIDTH 16 0
BBX 8 9 4 0
BITMAP
36
42
41
89
91
91
91
B2
6C
ENDCHAR
STARTCHAR 2500
ENCODING 9761
SWIDTH 1600 0
DWIDTH 16 0
BBX 16 1 0 4
BITMAP
FFFF
ENDCHAR
STARTCHAR 2502
ENCODING 9762
SWIDTH 1600 0
DWIDTH 16 0
BBX 1 16 8 -2
BITMAP
80
80
80
80
80
80
80
80
80
80
80
80
80
80
80
80
ENDCHAR
STARTCHAR 250C
ENCODING 9763
SWIDTH 1600 0
DWIDTH 16 0
BBX 8 8 8 -2
BITMAP
FF
80
80
80
80
80
80
80
ENDCHAR
STARTCHAR 2510
ENCODING 9764
SWIDTH 1600 0
DWIDTH 16 0
BBX 9 8 0 -2
BITMAP
FF80
0080
0080
0080
0080
0080
0080
0080
ENDCHAR
STARTCHAR 2518
ENCODING 9765
SWIDTH 1600 0
DWIDTH 16 0
BBX 9 9 0 5
BITMAP
0080
0080
0080
0080
0080
0080
0080
0080
FF80
ENDCHAR
STARTCHAR 2514
ENCODING 9766
SWIDTH 1600 0
DWIDTH 16 0
BBX 8 9 8 5
BITMAP
80
80
80
80
80
80
80
80
FF
ENDCHAR
STARTCHAR 251C
ENCODING 9767
SWIDTH 1600 0
DWIDTH 16 0
BBX 8 16 8 -2
BITMAP
80
80
80
80
80
80
80
80
FF
80
80
80
80
80
80
80
ENDCHAR
STARTCHAR 252C
ENCODING 9768
SWIDTH 1600 0
DWIDTH 16 0
BBX 16 8 0 -2
BITMAP
FFFF
0080
0080
0080
0080
0080
0080
0080
ENDCHAR
STARTCHAR 2524
ENCODING 9769
SWIDTH 1600 0
DWIDTH 16 0
BBX 9 16 0 -2
BITMAP
0080
0080
0080
0080
0080
0080
0080
0080
FF80
0080
0080
0080
0080
0080
0080
0080
ENDCHAR
STARTCHAR 2534
ENCODING 9770
SWIDTH 1600 0
DWIDTH 16 0
BBX 16 9 0 5
BITMAP
0080
0080
0080
0080
0080
0080
0080
0080
FFFF
ENDCHAR
STARTCHAR 253C
ENCODING 9771
SWIDTH 1600 0
DWIDTH 16 0
BBX 16 16 0 -2
BITMAP
0080
0080
0080
0080
0080
0080
0080
0080
FFFF
0080
0080
0080
0080
0080
0080
0080
ENDCHAR
STARTCHAR 2501
ENCODING 9772
SWIDTH 1600 0
DWIDTH 16 0
BBX 16 1 0 4
BITMAP
FFFF
ENDCHAR
STARTCHAR 2503
ENCODING 9773
SWIDTH 1600 0
DWIDTH 16 0
BBX 1 16 7 -2
BITMAP
80
80
80
80
80
80
80
80
80
80
80
80
80
80
80
80
ENDCHAR
STARTCHAR 250F
ENCODING 9774
SWIDTH 1600 0
DWIDTH 16 0
BBX 9 8 7 -2
BITMAP
FF80
8000
8000
8000
8000
8000
8000
8000
ENDCHAR
STARTCHAR 2513
ENCODING 9775
SWIDTH 1600 0
DWIDTH 16 0
BBX 8 8 0 -2
BITMAP
FF
01
01
01
01
01
01
01
ENDCHAR
STARTCHAR 251B
ENCODING 9776
SWIDTH 1600 0
DWIDTH 16 0
BBX 8 9 0 5
BITMAP
01
01
01
01
01
01
01
01
FF
ENDCHAR
STARTCHAR 2517
ENCODING 9777
SWIDTH 1600 0
DWIDTH 16 0
BBX 9 9 7 5
BITMAP
8000
8000
8000
8000
8000
8000
8000
8000
FF80
ENDCHAR
STARTCHAR 2523
ENCODING 9778
SWIDTH 1600 0
DWIDTH 16 0
BBX 9 16 7 -2
BITMAP
8000
8000
8000
8000
8000
8000
8000
8000
FF80
8000
8000
8000
8000
8000
8000
8000
ENDCHAR
STARTCHAR 2533
ENCODING 9779
SWIDTH 1600 0
DWIDTH 16 0
BBX 16 8 0 -2
BITMAP
FFFF
0100
0100
0100
0100
0100
0100
0100
ENDCHAR
STARTCHAR 252B
ENCODING 9780
SWIDTH 1600 0
DWIDTH 16 0
BBX 8 16 0 -2
BITMAP
01
01
01
01
01
01
01
01
FF
01
01
01
01
01
01
01
ENDCHAR
STARTCHAR 253B
ENCODING 9781
SWIDTH 1600 0
DWIDTH 16 0
BBX 16 9 0 5
BITMAP
0100
0100
0100
0100
0100
0100
0100
0100
FFFF
ENDCHAR
STARTCHAR 254B
ENCODING 9782
SWIDTH 1600 0
DWIDTH 16 0
BBX 16 16 0 -2
BITMAP
0100
0100
0100
0100
0100
0100
0100
0100
FFFF
0100
0100
0100
0100
0100
0100
0100
ENDCHAR
STARTCHAR 2520
ENCODING 9783
SWIDTH 1600 0
DWIDTH 16 0
BBX 9 16 7 -2
BITMAP
8000
8000
8000
8000
8000
8000
8000
8000
FF80
8000
8000
8000
8000
8000
8000
8000
ENDCHAR
STARTCHAR 252F
ENCODING 9784
SWIDTH 1600 0
DWIDTH 16 0
BBX 16 8 0 -2
BITMAP
FFFF
0080
0080
0080
0080
0080
0080
0080
ENDCHAR
STARTCHAR 2528
ENCODING 9785
SWIDTH 1600 0
DWIDTH 16 0
BBX 8 16 0 -2
BITMAP
01
01
01
01
01
01
01
01
FF
01
01
01
01
01
01
01
ENDCHAR
STARTCHAR 2537
ENCODING 9786
SWIDTH 1600 0
DWIDTH 16 0
BBX 16 9 0 5
BITMAP
0080
0080
0080
0080
0080
0080
0080
0080
FFFF
ENDCHAR
STARTCHAR 253F
ENCODING 9787
SWIDTH 1600 0
DWIDTH 16 0
BBX 16 16 0 -2
BITMAP
0080
0080
0080
0080
0080
0080
0080
0080
FFFF
0080
0080
0080
0080
0080
0080
0080
ENDCHAR
STARTCHAR 251D
ENCODING 9788
SWIDTH 1600 0
DWIDTH 16 0
BBX 8 16 8 -2
BITMAP
80
80
80
80
80
80
80
80
FF
80
80
80
80
80
80
80
ENDCHAR
STARTCHAR 2530
ENCODING 9789
SWIDTH 1600 0
DWIDTH 16 0
BBX 16 8 0 -2
BITMAP
FFFF
0100
0100
0100
0100
0100
0100
0100
ENDCHAR
STARTCHAR 2525
ENCODING 9790
SWIDTH 1600 0
DWIDTH 16 0
BBX 9 16 0 -2
BITMAP
0080
0080
0080
0080
0080
0080
0080
0080
FF80
0080
0080
0080
0080
0080
0080
0080
ENDCHAR
STARTCHAR 2538
ENCODING 9791
SWIDTH 1600 0
DWIDTH 16 0
BBX 16 9 0 5
BITMAP
0100
0100
0100
0100
0100
0100
0100
0100
FFFF
ENDCHAR
STARTCHAR 2542
ENCODING 9792
SWIDTH 1600 0
DWIDTH 16 0
BBX 16 16 0 -2
BITMAP
0100
0100
0100
0100
0100
0100
0100
0100
FFFF
0100
0100
0100
0100
0100
0100
0100
ENDCHAR
STARTCHAR 2512
ENCODING 9793
SWIDTH 1600 0
DWIDTH 16 0
BBX 8 8 0 -2
BITMAP
FF
01
01
01
01
01
01
01
ENDCHAR
STARTCHAR 2511
ENCODING 9794
SWIDTH 1600 0
DWIDTH 16 0
BBX 9 8 0 -2
BITMAP
FF80
0080
0080
0080
0080
0080
0080
0080
ENDCHAR
STARTCHAR 251A
ENCODING 9795
SWIDTH 1600 0
DWIDTH 16 0
BBX 8 9 0 5
BITMAP
01
01
01
01
01
01
01
01
FF
ENDCHAR
STARTCHAR 2519
ENCODING 9796
SWIDTH 1600 0
DWIDTH 16 0
BBX 9 9 0 5
BITMAP
0080
0080
0080
0080
0080
0080
0080
0080
FF80
ENDCHAR
STARTCHAR 2516
ENCODING 9797
SWIDTH 1600 0
DWIDTH 16 0
BBX 9 9 7 5
BITMAP
8000
8000
8000
8000
8000
8000
8000
8000
FF80
ENDCHAR
STARTCHAR 2515
ENCODING 9798
SWIDTH 1600 0
DWIDTH 16 0
BBX 8 9 8 5
BITMAP
80
80
80
80
80
80
80
80
FF
ENDCHAR
STARTCHAR 250E
ENCODING 9799
SWIDTH 1600 0
DWIDTH 16 0
BBX 9 8 7 -2
BITMAP
FF80
8000
8000
8000
8000
8000
8000
8000
ENDCHAR
STARTCHAR 250D
ENCODING 9800
SWIDTH 1600 0
DWIDTH 16 0
BBX 8 8 8 -2
BITMAP
FF
80
80
80
80
80
80
80
ENDCHAR
STARTCHAR 251E
ENCODING 9801
SWIDTH 1600 0
DWIDTH 16 0
BBX 8 16 8 -2
BITMAP
80
80
80
80
80
80
80
80
FF
80
80
80
80
80
80
80
ENDCHAR
STARTCHAR 251F
ENCODING 9802
SWIDTH 1600 0
DWIDTH 16 0
BBX 9 16 7 -2
BITMAP
8000
8000
8000
8000
8000
8000
8000
8000
FF80
8000
8000
8000
8000
8000
8000
8000
ENDCHAR
STARTCHAR 2521
ENCODING 9803
SWIDTH 1600 0
DWIDTH 16 0
BBX 8 16 8 -2
BITMAP
80
80
80
80
80
80
80
80
FF
80
80
80
80
80
80
80
ENDCHAR
STARTCHAR 2522
ENCODING 9804
SWIDTH 1600 0
DWIDTH 16 0
BBX 8 16 8 -2
BITMAP
80
80
80
80
80
80
80
80
FF
80
80
80
80
80
80
80
ENDCHAR
STARTCHAR 2526
ENCODING 9805
SWIDTH 1600 0
DWIDTH 16 0
BBX 9 16 0 -2
BITMAP
0080
0080
0080
0080
0080
0080
0080
0080
FF80
0080
0080
0080
0080
0080
0080
0080
ENDCHAR
STARTCHAR 2527
ENCODING 9806
SWIDTH 1600 0
DWIDTH 16 0
BBX 8 16 0 -2
BITMAP
01
01
01
01
01
01
01
01
FF
01
01
01
01
01
01
01
ENDCHAR
STARTCHAR 2529
ENCODING 9807
SWIDTH 1600 0
DWIDTH 16 0
BBX 9 16 0 -2
BITMAP
0080
0080
0080
0080
0080
0080
0080
0080
FF80
0080
0080
0080
0080
0080
0080
0080
ENDCHAR
STARTCHAR 252A
ENCODING 9808
SWIDTH 1600 0
DWIDTH 16 0
BBX 8 16 0 -2
BITMAP
01
01
01
01
01
01
01
01
FF
01
01
01
01
01
01
01
ENDCHAR
STARTCHAR 252D
ENCODING 9809
SWIDTH 1600 0
DWIDTH 16 0
BBX 16 8 0 -2
BITMAP
FFFF
0080
0080
0080
0080
0080
0080
0080
ENDCHAR
STARTCHAR 252E
ENCODING 9810
SWIDTH 1600 0
DWIDTH 16 0
BBX 16 8 0 -2
BITMAP
FFFF
0080
0080
0080
0080
0080
0080
0080
ENDCHAR
STARTCHAR 2531
ENCODING 9811
SWIDTH 1600 0
DWIDTH 16 0
BBX 16 8 0 -2
BITMAP
FFFF
0100
0100
0100
0100
0100
0100
0100
ENDCHAR
STARTCHAR 2532
ENCODING 9812
SWIDTH 1600 0
DWIDTH 16 0
BBX 16 8 0 -2
BITMAP
FFFF
0100
0100
0100
0100
0100
0100
0100
ENDCHAR
STARTCHAR 2535
ENCODING 9813
SWIDTH 1600 0
DWIDTH 16 0
BBX 16 9 0 5
BITMAP
0080
0080
0080
0080
0080
0080
0080
0080
FFFF
ENDCHAR
STARTCHAR 2536
ENCODING 9814
SWIDTH 1600 0
DWIDTH 16 0
BBX 16 9 0 5
BITMAP
0080
0080
0080
0080
0080
0080
0080
0080
FFFF
ENDCHAR
STARTCHAR 2539
ENCODING 9815
SWIDTH 1600 0
DWIDTH 16 0
BBX 16 9 0 5
BITMAP
0100
0100
0100
0100
0100
0100
0100
0100
FFFF
ENDCHAR
STARTCHAR 253A
ENCODING 9816
SWIDTH 1600 0
DWIDTH 16 0
BBX 16 9 0 5
BITMAP
0100
0100
0100
0100
0100
0100
0100
0100
FFFF
ENDCHAR
STARTCHAR 253D
ENCODING 9817
SWIDTH 1600 0
DWIDTH 16 0
BBX 16 16 0 -2
BITMAP
0080
0080
0080
0080
0080
0080
0080
0080
FFFF
0080
0080
0080
0080
0080
0080
0080
ENDCHAR
STARTCHAR 253E
ENCODING 9818
SWIDTH 1600 0
DWIDTH 16 0
BBX 16 16 0 -2
BITMAP
0080
0080
0080
0080
0080
0080
0080
0080
FFFF
0080
0080
0080
0080
0080
0080
0080
ENDCHAR
STARTCHAR 2540
ENCODING 9819
SWIDTH 1600 0
DWIDTH 16 0
BBX 16 16 0 -2
BITMAP
0080
0080
0080
0080
0080
0080
0080
0080
FFFF
0080
0080
0080
0080
0080
0080
0080
ENDCHAR
STARTCHAR 2541
ENCODING 9820
SWIDTH 1600 0
DWIDTH 16 0
BBX 16 16 0 -2
BITMAP
0100
0100
0100
0100
0100
0100
0100
0100
FFFF
0100
0100
0100
0100
0100
0100
0100
ENDCHAR
STARTCHAR 2543
ENCODING 9821
SWIDTH 1600 0
DWIDTH 16 0
BBX 16 16 0 -2
BITMAP
0080
0080
0080
0080
0080
0080
0080
0080
FFFF
0080
0080
0080
0080
0080
0080
0080
ENDCHAR
STARTCHAR 2544
ENCODING 9822
SWIDTH 1600 0
DWIDTH 16 0
BBX 16 16 0 -2
BITMAP
0080
0080
0080
0080
0080
0080
0080
0080
FFFF
0080
0080
0080
0080
0080
0080
0080
ENDCHAR
STARTCHAR 2545
ENCODING 9823
SWIDTH 1600 0
DWIDTH 16 0
BBX 16 16 0 -2
BITMAP
0100
0100
0100
0100
0100
0100
0100
0100
FFFF
0100
0100
0100
0100
0100
0100
0100
ENDCHAR
STARTCHAR 2546
ENCODING 9824
SWIDTH 1600 0
DWIDTH 16 0
BBX 16 16 0 -2
BITMAP
0100
0100
0100
0100
0100
0100
0100
0100
FFFF
0100
0100
0100
0100
0100
0100
0100
ENDCHAR
STARTCHAR 2547
ENCODING 9825
SWIDTH 1600 0
DWIDTH 16 0
BBX 16 16 0 -2
BITMAP
0080
0080
0080
0080
0080
0080
0080
0080
FFFF
0080
0080
0080
0080
0080
0080
0080
ENDCHAR
STARTCHAR 2548
ENCODING 9826
SWIDTH 1600 0
DWIDTH 16 0
BBX 16 16 0 -2
BITMAP
0100
0100
0100
0100
0100
0100
0100
0100
FFFF
0100
0100
0100
0100
0100
0100
0100
ENDCHAR
STARTCHAR 2549
ENCODING 9827
SWIDTH 1600 0
DWIDTH 16 0
BBX 16 16 0 -2
BITMAP
0100
0100
0100
0100
0100
0100
0100
0100
FFFF
0100
0100
0100
0100
0100
0100
0100
ENDCHAR
STARTCHAR 254A
ENCODING 9828
SWIDTH 1600 0
DWIDTH 16 0
BBX 16 16 0 -2
BITMAP
0100
0100
0100
0100
0100
0100
0100
0100
FFFF
0100
0100
0100
0100
0100
0100
0100
ENDCHAR
STARTCHAR 3395
ENCODING 10017
SWIDTH 1600 0
DWIDTH 16 0
BBX 13 12 2 0
BITMAP
0030
0050
2290
2290
2510
4510
4520
4560
89C8
8B08
C890
F0F0
ENDCHAR
STARTCHAR 3396
ENCODING 10018
SWIDTH 1600 0
DWIDTH 16 0
BBX 12 12 2 0
BITMAP
0060
00D0
0090
F890
A920
A920
A920
A940
A990
AB10
A910
A8E0
ENDCHAR
STARTCHAR 3397
ENCODING 10019
SWIDTH 1600 0
DWIDTH 16 0
BBX 12 12 2 0
BITMAP
0460
0490
0490
7D10
8D20
8520
8520
8540
8590
8F10
4D10
3CE0
ENDCHAR
STARTCHAR 2113
ENCODING 10020
SWIDTH 1600 0
DWIDTH 16 0
BBX 6 12 4 0
BITMAP
18
34
24
24
48
48
48
50
64
C4
44
38
ENDCHAR
STARTCHAR 3398
ENCODING 10021
SWIDTH 1600 0
DWIDTH 16 0
BBX 12 12 2 0
BITMAP
8060
8060
80A0
88A0
8920
9120
A140
C140
A190
9310
8990
88E0
ENDCHAR
STARTCHAR 33C4
ENCODING 10022
SWIDTH 1600 0
DWIDTH 16 0
BBX 12 10 2 0
BITMAP
71C0
4920
8200
8200
8200
8200
8610
8610
4920
30C0
ENDCHAR
STARTCHAR 33A3
ENCODING 10023
SWIDTH 1600 0
DWIDTH 16 0
BBX 12 12 2 0
BITMAP
0030
0010
0010
D6B0
F580
D580
D580
D580
D580
D580
D580
D580
ENDCHAR
STARTCHAR 33A4
ENCODING 10024
SWIDTH 1600 0
DWIDTH 16 0
BBX 14 12 1 0
BITMAP
0008
0004
0008
7574
CEA8
8CA0
84A0
84A0
84A0
94A0
54A0
74A0
ENDCHAR
STARTCHAR 33A5
ENCODING 10025
SWIDTH 1600 0
DWIDTH 16 0
BBX 12 12 2 0
BITMAP
0010
0010
0010
B330
CC80
8880
8880
8880
8880
8880
8880
8880
ENDCHAR
STARTCHAR 33A6
ENCODING 10026
SWIDTH 1600 0
DWIDTH 16 0
BBX 13 12 1 0
BITMAP
8008
8008
8008
8F58
94A0
94A0
A4A0
A4A0
A4A0
94A0
94A0
8CA0
ENDCHAR
STARTCHAR 3399
ENCODING 10027
SWIDTH 1600 0
DWIDTH 16 0
BBX 12 12 2 0
BITMAP
1C00
2000
2000
FEF0
2350
2250
2250
2250
2250
2250
2250
2250
ENDCHAR
STARTCHAR 339A
ENCODING 10028
SWIDTH 1600 0
DWIDTH 16 0
BBX 12 9 2 0
BITMAP
FBF0
8A90
8A90
8A90
8A90
8A90
8A90
8A90
8A90
ENDCHAR
STARTCHAR 339B
ENCODING 10029
SWIDTH 1600 0
DWIDTH 16 0
BBX 12 9 2 0
BITMAP
25F0
2550
4550
4950
4950
4950
8950
D150
E150
ENDCHAR
STARTCHAR 339C
ENCODING 10030
SWIDTH 1600 0
DWIDTH 16 0
BBX 12 9 2 0
BITMAP
FBB0
AA50
AA50
AA50
AA50
AA50
AA50
AA50
AA50
ENDCHAR
STARTCHAR 339D
ENCODING 10031
SWIDTH 1600 0
DWIDTH 16 0
BBX 12 9 2 0
BITMAP
73B0
4AD0
8A90
8290
8290
8A90
8A90
CA90
7290
ENDCHAR
STARTCHAR 339E
ENCODING 10032
SWIDTH 1600 0
DWIDTH 16 0
BBX 12 12 2 0
BITMAP
8000
8000
8000
8F60
9490
A490
A490
C490
A490
A490
9490
8C90
ENDCHAR
STARTCHAR 339F
ENCODING 10033
SWIDTH 1600 0
DWIDTH 16 0
BBX 13 12 1 0
BITMAP
0018
0008
0010
FBF8
AAA0
AAA0
AAA0
AAA0
AAA0
AAA0
AAA0
AAA0
ENDCHAR
STARTCHAR 33A0
ENCODING 10034
SWIDTH 1600 0
DWIDTH 16 0
BBX 14 12 1 0
BITMAP
0008
0008
0010
73EC
4AA0
8AA0
8AA0
82A0
8AA0
8AA0
CAA0
72A0
ENDCHAR
STARTCHAR 33A1
ENCODING 10035
SWIDTH 1600 0
DWIDTH 16 0
BBX 13 12 1 0
BITMAP
0018
0008
0010
B398
CC40
8440
8440
8440
8440
8440
8440
8440
ENDCHAR
STARTCHAR 33A2
ENCODING 10036
SWIDTH 1600 0
DWIDTH 16 0
BBX 14 12 1 0
BITMAP
8018
8008
8010
8F7C
94A0
94A0
A4A0
A4A0
A4A0
94A0
94A0
8CA0
ENDCHAR
STARTCHAR 33CA
ENCODING 10037
SWIDTH 1600 0
DWIDTH 16 0
BBX 12 12 2 0
BITMAP
8000
8000
8000
B0E0
C910
8810
8830
88D0
8910
8A10
8A10
89F0
ENDCHAR
STARTCHAR 338D
ENCODING 10038
SWIDTH 1600 0
DWIDTH 16 0
BBX 12 9 2 0
BITMAP
24F0
4510
4910
49E0
4A00
89E0
9210
D210
B1F0
ENDCHAR
STARTCHAR 338E
ENCODING 10039
SWIDTH 1600 0
DWIDTH 16 0
BBX 12 10 2 0
BITMAP
0010
B9E0
EA10
AA10
A9E0
AA00
A9E0
AA10
AA10
A9E0
ENDCHAR
STARTCHAR 338F
ENCODING 10040
SWIDTH 1600 0
DWIDTH 16 0
BBX 12 12 2 0
BITMAP
8000
8000
8000
89E0
9220
A220
C1E0
C200
A1E0
9210
9210
8BE0
ENDCHAR
STARTCHAR 33CF
ENCODING 10041
SWIDTH 1600 0
DWIDTH 16 0
BBX 12 12 2 0
BITMAP
8080
8080
8080
8080
89F0
9080
A080
C080
A080
9080
8880
8870
ENDCHAR
STARTCHAR 3388
ENCODING 10042
SWIDTH 1600 0
DWIDTH 16 0
BBX 12 12 2 0
BITMAP
0010
0010
0010
7390
5250
9050
80D0
8350
8450
8450
D450
73D0
ENDCHAR
STARTCHAR 3389
ENCODING 10043
SWIDTH 1600 0
DWIDTH 16 0
BBX 12 12 2 0
BITMAP
8010
8010
8010
AD90
AA50
D250
D0D0
D150
D250
B250
B250
ADD0
ENDCHAR
STARTCHAR 33C8
ENCODING 10044
SWIDTH 1600 0
DWIDTH 16 0
BBX 12 12 2 0
BITMAP
0BE0
0A10
0A10
6A10
5A10
8BE0
8A30
8A10
8A10
8A10
4A30
7BE0
ENDCHAR
STARTCHAR 33A7
ENCODING 10045
SWIDTH 1600 0
DWIDTH 16 0
BBX 12 14 2 -2
BITMAP
0800
F410
A420
A440
A480
8500
0200
05C0
0A20
1200
21E0
4010
8210
01E0
ENDCHAR
STARTCHAR 33A8
ENCODING 10046
SWIDTH 1600 0
DWIDTH 16 0
BBX 14 14 1 -2
BITMAP
A400
DA08
9210
9220
9240
0084
0108
020C
04C0
0920
1100
20F0
4110
00E0
ENDCHAR
STARTCHAR 33B0
ENCODING 10047
SWIDTH 1600 0
DWIDTH 16 0
BBX 12 11 2 -2
BITMAP
B1E0
C910
8600
8500
84E0
8410
8610
C910
B8E0
8000
8000
ENDCHAR
STARTCHAR 33B1
ENCODING 10048
SWIDTH 1600 0
DWIDTH 16 0
BBX 12 9 2 0
BITMAP
F9E0
8930
8A00
8900
88E0
8810
8A10
8910
88E0
ENDCHAR
STARTCHAR 33B2
ENCODING 10049
SWIDTH 1600 0
DWIDTH 16 0
BBX 14 10 1 -1
BITMAP
0270
2288
2280
24C0
2430
4408
4484
4888
7878
8000
ENDCHAR
STARTCHAR 33B3
ENCODING 10050
SWIDTH 1600 0
DWIDTH 16 0
BBX 12 9 2 0
BITMAP
F9E0
A910
A900
A900
A8E0
A810
AA10
A910
A8E0
ENDCHAR
STARTCHAR 33B4
ENCODING 10051
SWIDTH 1600 0
DWIDTH 16 0
BBX 12 14 2 -2
BITMAP
0210
0210
0210
8220
F920
8520
8520
8520
84C0
84C0
C8C0
B8C0
8000
8000
ENDCHAR
STARTCHAR 33B5
ENCODING 10052
SWIDTH 1600 0
DWIDTH 16 0
BBX 12 12 2 0
BITMAP
0210
0210
0210
FE10
8520
8520
8520
8520
84C0
84C0
84C0
84C0
ENDCHAR
STARTCHAR 33B6
ENCODING 10053
SWIDTH 1600 0
DWIDTH 16 0
BBX 12 13 2 -1
BITMAP
0200
0210
0110
2510
4510
4520
4920
48A0
88A0
90A0
90C0
F040
8000
ENDCHAR
STARTCHAR 33B7
ENCODING 10054
SWIDTH 1600 0
DWIDTH 16 0
BBX 12 12 2 0
BITMAP
0210
0210
0210
ED10
B520
A520
A520
A520
A4A0
A4C0
A4C0
A4C0
ENDCHAR
STARTCHAR 33B8
ENCODING 10055
SWIDTH 1600 0
DWIDTH 16 0
BBX 12 12 2 0
BITMAP
8210
8210
8210
8A10
9120
A120
A120
C120
A0A0
90C0
88C0
8CC0
ENDCHAR
STARTCHAR 33B9
ENCODING 10056
SWIDTH 1600 0
DWIDTH 16 0
BBX 12 12 2 0
BITMAP
8A10
8A10
DA10
D910
D920
E920
E920
E920
E8A0
E8C0
A8C0
A840
ENDCHAR
STARTCHAR 3380
ENCODING 10057
SWIDTH 1600 0
DWIDTH 16 0
BBX 12 14 2 -2
BITMAP
0040
00C0
00C0
F8C0
8520
8520
8520
8520
85E0
CE10
BA10
8210
8000
8000
ENDCHAR
STARTCHAR 3381
ENCODING 10058
SWIDTH 1600 0
DWIDTH 16 0
BBX 12 12 2 0
BITMAP
00C0
00C0
00C0
F8C0
8920
8920
8920
8920
89E0
8A10
8A10
8A10
ENDCHAR
STARTCHAR 3382
ENCODING 10059
SWIDTH 1600 0
DWIDTH 16 0
BBX 12 13 2 -1
BITMAP
0040
00C0
00A0
22A0
24A0
44A0
4520
4510
49F0
8910
C910
B810
8000
ENDCHAR
STARTCHAR 3383
ENCODING 10060
SWIDTH 1600 0
DWIDTH 16 0
BBX 12 12 2 0
BITMAP
0040
00C0
00C0
F8A0
A920
A920
A920
A920
A9F0
A910
AA10
AA10
ENDCHAR
STARTCHAR 3384
ENCODING 10061
SWIDTH 1600 0
DWIDTH 16 0
BBX 12 12 2 0
BITMAP
8040
80C0
80C0
88C0
9120
A120
C120
C120
A1E0
9210
9210
8A10
ENDCHAR
STARTCHAR 33BA
ENCODING 10062
SWIDTH 1600 0
DWIDTH 16 0
BBX 12 14 2 -2
BITMAP
06D0
06D0
0750
A770
D370
8B30
8B30
8B30
8B30
8B10
D210
B210
8000
8000
ENDCHAR
STARTCHAR 33BB
ENCODING 10063
SWIDTH 1600 0
DWIDTH 16 0
BBX 12 12 2 0
BITMAP
0650
0650
0650
FEF0
8AF0
8AB0
8AB0
8AB0
8B30
8B10
8B10
8B10
ENDCHAR
STARTCHAR 33BC
ENCODING 10064
SWIDTH 1600 0
DWIDTH 16 0
BBX 12 12 2 0
BITMAP
0650
0650
0650
4ED0
8AD0
8AD0
8AD0
8AD0
9330
9310
9310
E310
ENDCHAR
STARTCHAR 33BD
ENCODING 10065
SWIDTH 1600 0
DWIDTH 16 0
BBX 12 12 2 0
BITMAP
0650
0650
0650
FED0
AAD0
AAD0
AAD0
AAB0
AB30
AB10
AB10
AB10
ENDCHAR
STARTCHAR 33BE
ENCODING 10066
SWIDTH 1600 0
DWIDTH 16 0
BBX 12 12 2 0
BITMAP
8890
8990
8990
9590
9590
A550
A550
C750
A360
A260
9260
8A20
ENDCHAR
STARTCHAR 33BF
ENCODING 10067
SWIDTH 1600 0
DWIDTH 16 0
BBX 12 12 2 0
BITMAP
8650
CED0
D6D0
D5D0
D5D0
D5E0
D5E0
E5E0
A4E0
A4E0
A4E0
A4E0
ENDCHAR
STARTCHAR 3390
ENCODING 10068
SWIDTH 1600 0
DWIDTH 16 0
BBX 12 13 2 0
BITMAP
8000
8800
8800
8800
8BF0
8820
F820
8840
8880
8880
8900
8A00
8BF0
ENDCHAR
STARTCHAR 3391
ENCODING 10069
SWIDTH 1600 0
DWIDTH 16 0
BBX 13 12 1 0
BITMAP
8480
8480
8480
94B8
9488
A788
C490
A490
A4A0
94A0
94C0
94F8
ENDCHAR
STARTCHAR 3392
ENCODING 10070
SWIDTH 1600 0
DWIDTH 16 0
BBX 13 12 1 0
BITMAP
CA40
CA40
DA40
DA78
DA48
DBC8
DA50
DA50
BA50
9A60
9A60
9A78
ENDCHAR
STARTCHAR 3393
ENCODING 10071
SWIDTH 1600 0
DWIDTH 16 0
BBX 14 12 1 0
BITMAP
7280
4A80
8A80
82BC
8288
8388
9A90
8A90
8A90
8AA0
4AA0
7ABC
ENDCHAR
STARTCHAR 3394
ENCODING 10072
SWIDTH 1600 0
DWIDTH 16 0
BBX 13 12 1 0
BITMAP
FA80
2280
2280
22B8
2288
2388
2290
2290
2290
22A0
22A0
22B8
ENDCHAR
STARTCHAR 2126
ENCODING 10073
SWIDTH 1600 0
DWIDTH 16 0
BBX 10 12 3 0
BITMAP
0800
3600
4100
8080
8080
8080
8080
4100
2300
1200
1200
F3C0
ENDCHAR
STARTCHAR 33C0
ENCODING 10074
SWIDTH 1600 0
DWIDTH 16 0
BBX 12 12 2 0
BITMAP
81C0
8220
8630
9410
9410
A410
C410
C220
A360
A140
9140
8F70
ENDCHAR
STARTCHAR 33C1
ENCODING 10075
SWIDTH 1600 0
DWIDTH 16 0
BBX 12 12 2 0
BITMAP
89C0
8A20
9E30
9C10
9C10
DC10
DC10
DA20
D940
E940
A940
AF70
ENDCHAR
STARTCHAR 338A
ENCODING 10076
SWIDTH 1600 0
DWIDTH 16 0
BBX 12 14 2 -2
BITMAP
03F0
0200
0200
0200
FA00
87E0
8600
8600
8600
8600
CA00
BA00
8200
8000
ENDCHAR
STARTCHAR 338B
ENCODING 10077
SWIDTH 1600 0
DWIDTH 16 0
BBX 13 13 2 -1
BITMAP
01F8
0100
0100
F900
8900
89F0
8900
8900
8900
8900
8900
8900
0100
ENDCHAR
STARTCHAR 338C
ENCODING 10078
SWIDTH 1600 0
DWIDTH 16 0
BBX 13 13 2 -1
BITMAP
01F8
0100
0100
2500
4500
45F0
4900
4900
8900
8900
9100
E900
0100
ENDCHAR
STARTCHAR 33D6
ENCODING 10079
SWIDTH 1600 0
DWIDTH 16 0
BBX 12 12 2 0
BITMAP
0010
0010
0010
F990
AA50
AA50
AA50
AA50
AA50
AA50
AA50
A990
ENDCHAR
STARTCHAR 33C5
ENCODING 10080
SWIDTH 1600 0
DWIDTH 16 0
BBX 12 12 2 0
BITMAP
0010
0010
0010
78F0
4D10
8510
8210
8210
8610
8510
4910
78F0
ENDCHAR
STARTCHAR 33AD
ENCODING 10081
SWIDTH 1600 0
DWIDTH 16 0
BBX 12 12 2 0
BITMAP
0010
0010
0010
AC70
D290
9290
8690
9A90
9290
9290
9290
8E70
ENDCHAR
STARTCHAR 33AE
ENCODING 10082
SWIDTH 1600 0
DWIDTH 16 0
BBX 12 14 2 -2
BITMAP
0080
0080
B180
EA80
9A80
EA80
BFB0
0040
01F0
0250
0C60
1010
6050
0020
ENDCHAR
STARTCHAR 33AF
ENCODING 10083
SWIDTH 1600 0
DWIDTH 16 0
BBX 14 14 1 -2
BITMAP
0040
0040
ADC0
D640
8E40
B648
9FD8
0068
00AC
0350
0460
0810
3050
0020
ENDCHAR
STARTCHAR 33DB
ENCODING 10084
SWIDTH 1600 0
DWIDTH 16 0
BBX 12 9 2 0
BITMAP
7970
8D80
8100
4100
3900
0500
8500
C500
7900
ENDCHAR
STARTCHAR 33A9
ENCODING 10085
SWIDTH 1600 0
DWIDTH 16 0
BBX 12 12 2 0
BITMAP
F800
8800
8400
84E0
8510
8810
9830
E1D0
8210
8210
8210
81F0
ENDCHAR
STARTCHAR 33AA
ENCODING 10086
SWIDTH 1600 0
DWIDTH 16 0
BBX 12 12 2 0
BITMAP
8E00
8900
8900
A960
A990
C990
CB30
CC50
C890
A890
A890
9870
ENDCHAR
STARTCHAR 33AB
ENCODING 10087
SWIDTH 1600 0
DWIDTH 16 0
BBX 13 12 1 0
BITMAP
CB80
CA40
DA40
DA58
DA68
DA48
DBD8
DA28
BA28
9A28
9A28
9A38
ENDCHAR
STARTCHAR 33AC
ENCODING 10088
SWIDTH 1600 0
DWIDTH 16 0
BBX 13 13 1 -1
BITMAP
3380
4A80
8A80
82F0
8288
8288
9A88
8B38
8A28
8A28
8A28
5A38
2000
ENDCHAR
STARTCHAR 33DD
ENCODING 10089
SWIDTH 1600 0
DWIDTH 16 0
BBX 13 12 1 0
BITMAP
8A80
8A80
8A80
8AB0
5AD8
5C88
5C88
5C88
5C88
6C88
6C90
6CF0
ENDCHAR
STARTCHAR 33D0
ENCODING 10090
SWIDTH 1600 0
DWIDTH 16 0
BBX 10 12 3 0
BITMAP
8000
8000
8000
9FC0
9240
9240
9240
9240
9240
9240
9240
9240
ENDCHAR
STARTCHAR 33D3
ENCODING 10091
SWIDTH 1600 0
DWIDTH 16 0
BBX 9 12 3 0
BITMAP
8000
8000
8000
8000
8880
8500
8500
8200
8300
8500
8880
8880
ENDCHAR
STARTCHAR 33C3
ENCODING 10092
SWIDTH 1600 0
DWIDTH 16 0
BBX 12 13 2 -1
BITMAP
F000
8800
8800
89F0
8910
F210
8A10
8610
8610
8510
8CF0
F810
0010
ENDCHAR
STARTCHAR 33C9
ENCODING 10093
SWIDTH 1600 0
DWIDTH 16 0
BBX 12 14 2 -2
BITMAP
3800
4C00
8400
8410
8110
8110
9D20
84A0
84A0
84C0
4C40
3440
0080
0180
ENDCHAR
STARTCHAR 33DC
ENCODING 10094
SWIDTH 1600 0
DWIDTH 16 0
BBX 12 12 2 0
BITMAP
7000
8800
8400
8110
8110
6110
18A0
04A0
04A0
84A0
8440
7840
ENDCHAR
STARTCHAR 33C6
ENCODING 10095
SWIDTH 1600 0
DWIDTH 16 0
BBX 13 14 1 -2
BITMAP
4200
A400
8400
8400
8800
AA00
5200
12B8
1328
2328
2330
42C8
4048
0078
ENDCHAR
STARTCHAR 00C6
ENCODING 10273
SWIDTH 1600 0
DWIDTH 16 0
BBX 13 10 1 0
BITMAP
07F8
0600
0A00
1200
13F0
2200
3E00
4200
4200
83F8
ENDCHAR
STARTCHAR 00D0
ENCODING 10274
SWIDTH 1600 0
DWIDTH 16 0
BBX 10 10 3 0
BITMAP
3F80
2080
2040
2040
F840
2040
2040
20C0
2080
3F00
ENDCHAR
STARTCHAR 00AA
ENCODING 10275
SWIDTH 1600 0
DWIDTH 16 0
BBX 6 10 5 0
BITMAP
78
88
08
78
88
88
98
6C
00
FC
ENDCHAR
STARTCHAR 0126
ENCODING 10276
SWIDTH 1600 0
DWIDTH 16 0
BBX 12 10 2 0
BITMAP
2040
2040
FFF0
2040
3FC0
30C0
2040
2040
2040
2040
ENDCHAR
STARTCHAR 0132
ENCODING 10278
SWIDTH 1600 0
DWIDTH 16 0
BBX 8 10 4 0
BITMAP
81
81
81
81
81
81
A1
A1
A1
9E
ENDCHAR
STARTCHAR 013F
ENCODING 10280
SWIDTH 1600 0
DWIDTH 16 0
BBX 7 10 5 0
BITMAP
80
80
80
80
90
80
80
80
80
FE
ENDCHAR
STARTCHAR 0141
ENCODING 10281
SWIDTH 1600 0
DWIDTH 16 0
BBX 9 10 4 0
BITMAP
2000
2800
3000
3000
2000
6000
A000
A000
2000
3F80
ENDCHAR
STARTCHAR 00D8
ENCODING 10282
SWIDTH 1600 0
DWIDTH 16 0
BBX 9 11 3 0
BITMAP
1C00
2380
4100
4280
8480
8880
8880
5080
6080
6100
9E00
ENDCHAR
STARTCHAR 0152
ENCODING 10283
SWIDTH 1600 0
DWIDTH 16 0
BBX 13 11 1 0
BITMAP
1C00
63F0
4200
8200
8200
83F0
8200
8200
4200
4200
3FF8
ENDCHAR
STARTCHAR 00BA
ENCODING 10284
SWIDTH 1600 0
DWIDTH 16 0
BBX 7 10 4 0
BITMAP
3C
42
42
42
42
42
24
18
00
FE
ENDCHAR
STARTCHAR 00DE
ENCODING 10285
SWIDTH 1600 0
DWIDTH 16 0
BBX 7 10 5 0
BITMAP
80
80
80
FC
82
82
86
FC
80
80
ENDCHAR
STARTCHAR 0166
ENCODING 10286
SWIDTH 1600 0
DWIDTH 16 0
BBX 9 10 3 0
BITMAP
FF80
0800
0800
0800
0800
7F00
0800
0800
0800
0800
ENDCHAR
STARTCHAR 014A
ENCODING 10287
SWIDTH 1600 0
DWIDTH 16 0
BBX 7 11 4 0
BITMAP
BC
C6
82
82
82
82
82
82
82
82
8C
ENDCHAR
STARTCHAR 3260
ENCODING 10289
SWIDTH 1600 0
DWIDTH 16 0
BBX 13 14 1 -1
BITMAP
0F80
3060
6030
4010
BFC8
8048
8048
8048
8048
8088
4010
6030
3060
0F80
ENDCHAR
STARTCHAR 3261
ENCODING 10290
SWIDTH 1600 0
DWIDTH 16 0
BBX 13 14 1 -1
BITMAP
0F80
3060
6030
4010
9008
9008
9008
9008
9008
9008
5FD0
6030
3060
0F80
ENDCHAR
STARTCHAR 3262
ENCODING 10291
SWIDTH 1600 0
DWIDTH 16 0
BBX 13 14 1 -1
BITMAP
0F80
3060
6030
4010
9FC8
9008
9008
9008
9008
9008
5FD0
6030
3060
0F80
ENDCHAR
STARTCHAR 3263
ENCODING 10292
SWIDTH 1600 0
DWIDTH 16 0
BBX 13 14 1 -1
BITMAP
0F80
3060
6030
4010
9FC8
8048
8048
8FC8
8808
8808
4FF0
6030
3060
0F80
ENDCHAR
STARTCHAR 3264
ENCODING 10293
SWIDTH 1600 0
DWIDTH 16 0
BBX 13 14 1 -1
BITMAP
0F80
3060
6030
4010
9FE8
9028
9028
9028
9028
9028
5FF0
6030
3060
0F80
ENDCHAR
STARTCHAR 3265
ENCODING 10294
SWIDTH 1600 0
DWIDTH 16 0
BBX 13 14 1 -1
BITMAP
0F80
3060
6030
4010
9028
9028
9FE8
9028
9028
9028
5FF0
6030
3060
0F80
ENDCHAR
STARTCHAR 3266
ENCODING 10295
SWIDTH 1600 0
DWIDTH 16 0
BBX 13 14 1 -1
BITMAP
0F80
3060
6030
4010
8208
8208
8208
8508
8888
9048
4030
6030
3060
0F80
ENDCHAR
STARTCHAR 3267
ENCODING 10296
SWIDTH 1600 0
DWIDTH 16 0
BBX 13 14 1 -1
BITMAP
0F80
3060
6030
4790
8848
9028
9028
9028
9028
8848
4790
6030
3060
0F80
ENDCHAR
STARTCHAR 3268
ENCODING 10297
SWIDTH 1600 0
DWIDTH 16 0
BBX 13 14 1 -1
BITMAP
0F80
3060
6030
4010
9FE8
8208
8308
8508
8488
9868
4010
6030
3060
0F80
ENDCHAR
STARTCHAR 3269
ENCODING 10298
SWIDTH 1600 0
DWIDTH 16 0
BBX 13 14 1 -1
BITMAP
0F80
3060
6030
4790
8008
9FE8
8208
8308
8488
9848
4030
6030
3060
0F80
ENDCHAR
STARTCHAR 326A
ENCODING 10299
SWIDTH 1600 0
DWIDTH 16 0
BBX 13 14 1 -1
BITMAP
0F80
3060
6030
4010
9FE8
8028
80A8
9F28
8028
8048
4010
6030
3060
0F80
ENDCHAR
STARTCHAR 326B
ENCODING 10300
SWIDTH 1600 0
DWIDTH 16 0
BBX 13 14 1 -1
BITMAP
0F80
3060
6030
4010
9FC8
9008
9008
9FC8
9008
9008
5FD0
6030
3060
0F80
ENDCHAR
STARTCHAR 326C
ENCODING 10301
SWIDTH 1600 0
DWIDTH 16 0
BBX 13 14 1 -1
BITMAP
0F80
3060
6030
4010
9FE8
8008
8888
8888
8888
8488
5FF0
6030
3060
0F80
ENDCHAR
STARTCHAR 326D
ENCODING 10302
SWIDTH 1600 0
DWIDTH 16 0
BBX 13 14 1 -1
BITMAP
0F80
3060
6030
4790
8008
9FE8
8F88
98C8
9048
9048
58D0
6FB0
3060
0F80
ENDCHAR
STARTCHAR 326E
ENCODING 10303
SWIDTH 1600 0
DWIDTH 16 0
BBX 13 14 1 -1
BITMAP
0F80
3060
6070
4050
9E48
8248
8248
8478
8448
9848
4050
6070
3060
0F80
ENDCHAR
STARTCHAR 326F
ENCODING 10304
SWIDTH 1600 0
DWIDTH 16 0
BBX 13 14 1 -1
BITMAP
0F80
3060
6070
4050
9048
9048
9048
9078
9048
9F48
4050
6070
3060
0F80
ENDCHAR
STARTCHAR 3270
ENCODING 10305
SWIDTH 1600 0
DWIDTH 16 0
BBX 13 14 1 -1
BITMAP
0F80
3060
6070
4050
9F48
9048
9048
9078
9048
9348
4C50
6070
3060
0F80
ENDCHAR
STARTCHAR 3271
ENCODING 10306
SWIDTH 1600 0
DWIDTH 16 0
BBX 13 14 1 -1
BITMAP
0F80
3060
6070
4050
9E48
8248
9E48
9078
9048
9F48
4050
6070
3060
0F80
ENDCHAR
STARTCHAR 3272
ENCODING 10307
SWIDTH 1600 0
DWIDTH 16 0
BBX 13 14 1 -1
BITMAP
0F80
3060
6070
4050
9E48
9248
9248
9278
9248
9E48
4050
6070
3060
0F80
ENDCHAR
STARTCHAR 3273
ENCODING 10308
SWIDTH 1600 0
DWIDTH 16 0
BBX 13 14 1 -1
BITMAP
0F80
3060
6070
4050
9248
9248
9E48
9278
9248
9248
5E50
6070
3060
0F80
ENDCHAR
STARTCHAR 3274
ENCODING 10309
SWIDTH 1600 0
DWIDTH 16 0
BBX 13 14 1 -1
BITMAP
0F80
3060
6070
4050
8448
8448
8448
8A78
8A48
9148
4050
6070
3060
0F80
ENDCHAR
STARTCHAR 3275
ENCODING 10310
SWIDTH 1600 0
DWIDTH 16 0
BBX 13 14 1 -1
BITMAP
0F80
3060
6070
4050
8C48
9248
9248
9278
9248
9248
4C50
6070
3060
0F80
ENDCHAR
STARTCHAR 3276
ENCODING 10311
SWIDTH 1600 0
DWIDTH 16 0
BBX 13 14 1 -1
BITMAP
0F80
3060
6070
4050
9F48
8448
8448
8C78
8A48
9148
4050
6070
3060
0F80
ENDCHAR
STARTCHAR 3277
ENCODING 10312
SWIDTH 1600 0
DWIDTH 16 0
BBX 13 14 1 -1
BITMAP
0F80
3060
6070
4E50
8048
9F48
8448
8478
8A48
8A48
5150
6070
3060
0F80
ENDCHAR
STARTCHAR 3278
ENCODING 10313
SWIDTH 1600 0
DWIDTH 16 0
BBX 13 14 1 -1
BITMAP
0F80
3060
6070
4050
9E48
8248
8248
9E78
8248
8448
4850
6070
3060
0F80
ENDCHAR
STARTCHAR 3279
ENCODING 10314
SWIDTH 1600 0
DWIDTH 16 0
BBX 13 14 1 -1
BITMAP
0F80
3060
6070
4050
9F48
9048
9048
9E78
9048
9048
5F50
6070
3060
0F80
ENDCHAR
STARTCHAR 327A
ENCODING 10315
SWIDTH 1600 0
DWIDTH 16 0
BBX 13 14 1 -1
BITMAP
0F80
3060
6070
4050
9F48
8048
9248
9278
9248
BF48
4050
6070
3060
0F80
ENDCHAR
STARTCHAR 327B
ENCODING 10316
SWIDTH 1600 0
DWIDTH 16 0
BBX 13 14 1 -1
BITMAP
0F80
3060
6070
4E50
8048
BF48
8048
9E78
9248
9248
5E50
6070
3060
0F80
ENDCHAR
STARTCHAR 24D0
ENCODING 10317
SWIDTH 1600 0
DWIDTH 16 0
BBX 13 14 1 -1
BITMAP
0F80
3060
6030
4010
8708
8888
8888
8788
8888
8888
4FD0
6030
3060
0F80
ENDCHAR
STARTCHAR 24D1
ENCODING 10318
SWIDTH 1600 0
DWIDTH 16 0
BBX 13 14 1 -1
BITMAP
0F80
3060
6830
4810
8808
8B88
8CC8
8848
8848
8848
4CD0
6BB0
3060
0F80
ENDCHAR
STARTCHAR 24D2
ENCODING 10319
SWIDTH 1600 0
DWIDTH 16 0
BBX 13 14 1 -1
BITMAP
0F80
3060
6030
4010
8708
8C88
8888
8808
8888
8C88
4710
6030
3060
0F80
ENDCHAR
STARTCHAR 24D3
ENCODING 10320
SWIDTH 1600 0
DWIDTH 16 0
BBX 13 14 1 -1
BITMAP
0F80
3060
6070
4050
8048
8748
8CC8
8848
8848
8848
4CD0
6770
3060
0F80
ENDCHAR
STARTCHAR 24D4
ENCODING 10321
SWIDTH 1600 0
DWIDTH 16 0
BBX 13 14 1 -1
BITMAP
0F80
3060
6030
4010
8708
8888
8888
8F88
8808
8888
4710
6030
3060
0F80
ENDCHAR
STARTCHAR 24D5
ENCODING 10322
SWIDTH 1600 0
DWIDTH 16 0
BBX 13 14 1 -1
BITMAP
0F80
3060
6030
4310
8208
8788
8208
8208
8208
8208
4210
6230
3060
0F80
ENDCHAR
STARTCHAR 24D6
ENCODING 10323
SWIDTH 1600 0
DWIDTH 16 0
BBX 13 14 1 -1
BITMAP
0F80
3060
6030
4750
8CC8
8848
8848
8848
8CC8
8748
4450
67B0
3060
0F80
ENDCHAR
STARTCHAR 24D7
ENCODING 10324
SWIDTH 1600 0
DWIDTH 16 0
BBX 13 14 1 -1
BITMAP
0F80
3060
6830
4810
8808
8F88
8888
8888
8888
8888
4890
68B0
3060
0F80
ENDCHAR
STARTCHAR 24D8
ENCODING 10325
SWIDTH 1600 0
DWIDTH 16 0
BBX 13 14 1 -1
BITMAP
0F80
3060
6030
4210
8008
8208
8208
8208
8208
8208
4210
6230
3060
0F80
ENDCHAR
STARTCHAR 24D9
ENCODING 10326
SWIDTH 1600 0
DWIDTH 16 0
BBX 13 14 1 -1
BITMAP
0F80
3060
6230
4010
8208
8208
8208
8208
8208
8208
4210
6230
3E60
0F80
ENDCHAR
STARTCHAR 24DA
ENCODING 10327
SWIDTH 1600 0
DWIDTH 16 0
BBX 13 14 1 -1
BITMAP
0F80
3060
6430
4410
8408
8408
8588
8708
8508
8488
4490
6470
3060
0F80
ENDCHAR
STARTCHAR 24DB
ENCODING 10328
SWIDTH 1600 0
DWIDTH 16 0
BBX 13 14 1 -1
BITMAP
0F80
3060
6230
4210
8208
8208
8208
8208
8208
8208
4210
6230
3060
0F80
ENDCHAR
STARTCHAR 24DC
ENCODING 10329
SWIDTH 1600 0
DWIDTH 16 0
BBX 13 14 1 -1
BITMAP
0F80
3060
6030
4010
9EE8
9328
9228
9228
9228
9228
5230
6030
3060
0F80
ENDCHAR
STARTCHAR 24DD
ENCODING 10330
SWIDTH 1600 0
DWIDTH 16 0
BBX 13 14 1 -1
BITMAP
0F80
3060
6030
4010
8B88
8C88
8888
8888
8888
8888
4890
6030
3060
0F80
ENDCHAR
STARTCHAR 24DE
ENCODING 10331
SWIDTH 1600 0
DWIDTH 16 0
BBX 13 14 1 -1
BITMAP
0F80
3060
6030
4010
8788
8CC8
8848
8848
8848
8488
4790
6030
3060
0F80
ENDCHAR
STARTCHAR 24DF
ENCODING 10332
SWIDTH 1600 0
DWIDTH 16 0
BBX 13 14 1 -1
BITMAP
0F80
3060
6030
4B90
8CC8
8848
8848
8848
8CC8
8B88
4810
6830
3060
0F80
ENDCHAR
STARTCHAR 24E0
ENCODING 10333
SWIDTH 1600 0
DWIDTH 16 0
BBX 13 14 1 -1
BITMAP
0F80
3060
6030
4750
8CC8
8848
8848
8848
8CC8
8748
4050
6070
3060
0F80
ENDCHAR
STARTCHAR 24E1
ENCODING 10334
SWIDTH 1600 0
DWIDTH 16 0
BBX 13 14 1 -1
BITMAP
0F80
3060
6030
4010
8508
8608
8408
8408
8408
8408
4410
6030
3060
0F80
ENDCHAR
STARTCHAR 24E2
ENCODING 10335
SWIDTH 1600 0
DWIDTH 16 0
BBX 13 14 1 -1
BITMAP
0F80
3060
6030
4710
8488
8408
8708
8088
8888
8488
4710
6030
3060
0F80
ENDCHAR
STARTCHAR 24E3
ENCODING 10336
SWIDTH 1600 0
DWIDTH 16 0
BBX 13 14 1 -1
BITMAP
0F80
3060
6030
4210
8208
8788
8208
8208
8208
8208
4210
63B0
3060
0F80
ENDCHAR
STARTCHAR 24E4
ENCODING 10337
SWIDTH 1600 0
DWIDTH 16 0
BBX 13 14 1 -1
BITMAP
0F80
3060
6030
4010
8888
8888
8888
8888
8888
8888
4F90
6030
3060
0F80
ENDCHAR
STARTCHAR 24E5
ENCODING 10338
SWIDTH 1600 0
DWIDTH 16 0
BBX 13 14 1 -1
BITMAP
0F80
3060
6030
4010
8808
8888
8488
8508
8508
8308
4210
6030
3060
0F80
ENDCHAR
STARTCHAR 24E6
ENCODING 10339
SWIDTH 1600 0
DWIDTH 16 0
BBX 13 14 1 -1
BITMAP
0F80
3060
6030
4010
9228
9328
9348
9548
8D48
8CC8
4C90
60B0
3060
0F80
ENDCHAR
STARTCHAR 24E7
ENCODING 10340
SWIDTH 1600 0
DWIDTH 16 0
BBX 13 14 1 -1
BITMAP
0F80
3060
6030
4010
8488
8508
8308
8208
8508
8488
4810
6030
3060
0F80
ENDCHAR
STARTCHAR 24E8
ENCODING 10341
SWIDTH 1600 0
DWIDTH 16 0
BBX 13 14 1 -1
BITMAP
0F80
3060
6030
4890
8888
8488
8508
8508
8308
8208
4210
6E30
3060
0F80
ENDCHAR
STARTCHAR 24E9
ENCODING 10342
SWIDTH 1600 0
DWIDTH 16 0
BBX 13 14 1 -1
BITMAP
0F80
3060
6030
4010
8F88
8088
8108
8208
8408
8408
4FD0
6030
3060
0F80
ENDCHAR
STARTCHAR 2460
ENCODING 10343
SWIDTH 1600 0
DWIDTH 16 0
BBX 13 14 1 -1
BITMAP
0F80
3060
6030
4110
8108
8708
8108
8108
8108
8108
4110
6130
3060
0F80
ENDCHAR
STARTCHAR 2461
ENCODING 10344
SWIDTH 1600 0
DWIDTH 16 0
BBX 13 14 1 -1
BITMAP
0F80
3060
6030
4710
8888
8888
8888
8108
8208
8C08
4810
6FB0
3060
0F80
ENDCHAR
STARTCHAR 2462
ENCODING 10345
SWIDTH 1600 0
DWIDTH 16 0
BBX 13 14 1 -1
BITMAP
0F80
3060
6030
4710
8888
8888
8888
8788
88C8
8848
4C50
67B0
3060
0F80
ENDCHAR
STARTCHAR 2463
ENCODING 10346
SWIDTH 1600 0
DWIDTH 16 0
BBX 13 14 1 -1
BITMAP
0F80
3060
6030
4110
8308
8508
8508
8908
9108
9FC8
4110
6130
3060
0F80
ENDCHAR
STARTCHAR 2464
ENCODING 10347
SWIDTH 1600 0
DWIDTH 16 0
BBX 13 14 1 -1
BITMAP
0F80
3060
6030
47D0
8408
8408
8788
84C8
8048
8848
44D0
6730
3060
0F80
ENDCHAR
STARTCHAR 2465
ENCODING 10348
SWIDTH 1600 0
DWIDTH 16 0
BBX 13 14 1 -1
BITMAP
0F80
3060
6030
4390
8488
8808
8B88
8CC8
8848
8848
4CD0
67B0
3060
0F80
ENDCHAR
STARTCHAR 2466
ENCODING 10349
SWIDTH 1600 0
DWIDTH 16 0
BBX 13 14 1 -1
BITMAP
0F80
3060
6030
4FD0
8088
8088
8108
8108
8208
8208
4210
6030
3060
0F80
ENDCHAR
STARTCHAR 2467
ENCODING 10350
SWIDTH 1600 0
DWIDTH 16 0
BBX 13 14 1 -1
BITMAP
0F80
3060
6030
4710
8888
8888
8888
8708
8888
8848
4850
67B0
3060
0F80
ENDCHAR
STARTCHAR 2468
ENCODING 10351
SWIDTH 1600 0
DWIDTH 16 0
BBX 13 14 1 -1
BITMAP
0F80
3060
6030
4790
8CC8
8848
8848
8CC8
8748
8848
4490
6730
3060
0F80
ENDCHAR
STARTCHAR 2469
ENCODING 10352
SWIDTH 1600 0
DWIDTH 16 0
BBX 13 14 1 -1
BITMAP
0F80
3060
6030
48D0
8928
B928
8928
8928
8928
8928
48D0
6030
3060
0F80
ENDCHAR
STARTCHAR 246A
ENCODING 10353
SWIDTH 1600 0
DWIDTH 16 0
BBX 13 14 1 -1
BITMAP
0F80
3060
6030
4850
8848
B9C8
8848
8848
8848
8848
4850
6030
3060
0F80
ENDCHAR
STARTCHAR 246B
ENCODING 10354
SWIDTH 1600 0
DWIDTH 16 0
BBX 13 14 1 -1
BITMAP
0F80
3060
6030
48D0
8928
B828
8828
8848
8888
8908
4BF0
6030
3060
0F80
ENDCHAR
STARTCHAR 246C
ENCODING 10355
SWIDTH 1600 0
DWIDTH 16 0
BBX 13 14 1 -1
BITMAP
0F80
3060
6030
4810
89C8
BA28
8848
88C8
8A28
8A28
49D0
6030
3060
0F80
ENDCHAR
STARTCHAR 246D
ENCODING 10356
SWIDTH 1600 0
DWIDTH 16 0
BBX 13 14 1 -1
BITMAP
0F80
3060
6030
4850
88C8
B8C8
8948
8A48
8BE8
8848
4850
6030
3060
0F80
ENDCHAR
STARTCHAR 246E
ENCODING 10357
SWIDTH 1600 0
DWIDTH 16 0
BBX 13 14 1 -1
BITMAP
0F80
3060
6030
49F0
8908
B988
8968
8828
8828
8968
49D0
6030
3060
0F80
ENDCHAR
STARTCHAR 00BD
ENCODING 10358
SWIDTH 1600 0
DWIDTH 16 0
BBX 11 11 2 0
BITMAP
2000
2100
E200
2200
24C0
2520
2920
2840
1080
1100
01E0
ENDCHAR
STARTCHAR 2153
ENCODING 10359
SWIDTH 1600 0
DWIDTH 16 0
BBX 11 11 2 0
BITMAP
2000
2100
E200
2200
24E0
2520
2820
2840
1020
1120
00E0
ENDCHAR
STARTCHAR 2154
ENCODING 10360
SWIDTH 1600 0
DWIDTH 16 0
BBX 11 11 2 0
BITMAP
6080
9080
9100
3100
42E0
8320
F420
0440
0820
0920
10E0
ENDCHAR
STARTCHAR 00BC
ENCODING 10361
SWIDTH 1600 0
DWIDTH 16 0
BBX 11 11 2 0
BITMAP
2100
6100
E200
2240
24C0
2540
2940
2A40
13E0
1040
0040
ENDCHAR
STARTCHAR 00BE
ENCODING 10362
SWIDTH 1600 0
DWIDTH 16 0
BBX 10 11 3 0
BITMAP
E100
9200
1200
6480
1580
1A80
EA80
1480
17C0
2080
2080
ENDCHAR
STARTCHAR 215B
ENCODING 10363
SWIDTH 1600 0
DWIDTH 16 0
BBX 11 11 2 0
BITMAP
2000
2100
E200
2200
24E0
2520
2920
28C0
1120
1120
00E0
ENDCHAR
STARTCHAR 215C
ENCODING 10364
SWIDTH 1600 0
DWIDTH 16 0
BBX 11 11 2 0
BITMAP
7080
9080
1100
2100
12E0
8B20
7520
04C0
0920
0920
10E0
ENDCHAR
STARTCHAR 215D
ENCODING 10365
SWIDTH 1600 0
DWIDTH 16 0
BBX 11 11 2 0
BITMAP
7880
4100
6100
5A00
0AE0
8D20
F520
08C0
0920
1120
10E0
ENDCHAR
STARTCHAR 215E
ENCODING 10366
SWIDTH 1600 0
DWIDTH 16 0
BBX 10 11 3 0
BITMAP
F000
1200
2400
2400
49C0
4A40
5240
1180
2240
2240
01C0
ENDCHAR
STARTCHAR 00E6
ENCODING 10529
SWIDTH 1600 0
DWIDTH 16 0
BBX 11 8 2 0
BITMAP
7BC0
4620
0420
1FE0
6400
8420
8C20
7BC0
ENDCHAR
STARTCHAR 0111
ENCODING 10530
SWIDTH 1600 0
DWIDTH 16 0
BBX 8 11 4 0
BITMAP
02
07
0A
3A
46
82
82
82
82
46
7A
ENDCHAR
STARTCHAR 00F0
ENCODING 10531
SWIDTH 1600 0
DWIDTH 16 0
BBX 6 11 5 0
BITMAP
48
30
50
08
08
7C
84
84
84
84
78
ENDCHAR
STARTCHAR 0127
ENCODING 10532
SWIDTH 1600 0
DWIDTH 16 0
BBX 7 10 4 0
BITMAP
20
F8
40
5C
22
22
22
22
22
22
ENDCHAR
STARTCHAR 0131
ENCODING 10533
SWIDTH 1600 0
DWIDTH 16 0
BBX 1 7 7 0
BITMAP
80
80
80
80
80
80
80
ENDCHAR
STARTCHAR 0133
ENCODING 10534
SWIDTH 1600 0
DWIDTH 16 0
BBX 5 12 5 -2
BITMAP
88
00
88
88
88
88
88
88
88
88
08
30
ENDCHAR
STARTCHAR 0138
ENCODING 10535
SWIDTH 1600 0
DWIDTH 16 0
BBX 6 8 5 0
BITMAP
80
88
B0
E0
90
88
88
84
ENDCHAR
STARTCHAR 0140
ENCODING 10536
SWIDTH 1600 0
DWIDTH 16 0
BBX 4 11 6 0
BITMAP
80
80
80
80
80
90
90
80
80
80
80
ENDCHAR
STARTCHAR 0142
ENCODING 10537
SWIDTH 1600 0
DWIDTH 16 0
BBX 5 10 5 0
BITMAP
20
20
28
30
20
60
A0
A0
20
20
ENDCHAR
STARTCHAR 00F8
ENCODING 10538
SWIDTH 1600 0
DWIDTH 16 0
BBX 9 8 3 0
BITMAP
1F80
2100
4680
4880
5080
6080
6100
9E00
ENDCHAR
STARTCHAR 0153
ENCODING 10539
SWIDTH 1600 0
DWIDTH 16 0
BBX 12 8 2 0
BITMAP
31C0
4A20
8410
8410
83F0
8410
C620
79E0
ENDCHAR
STARTCHAR 00DF
ENCODING 10540
SWIDTH 1600 0
DWIDTH 16 0
BBX 7 11 5 0
BITMAP
78
C4
84
84
98
8C
84
82
82
84
B8
ENDCHAR
STARTCHAR 00FE
ENCODING 10541
SWIDTH 1600 0
DWIDTH 16 0
BBX 6 12 5 -1
BITMAP
80
80
80
B8
C8
84
84
84
84
CC
B8
80
ENDCHAR
STARTCHAR 0167
ENCODING 10542
SWIDTH 1600 0
DWIDTH 16 0
BBX 5 10 5 0
BITMAP
20
20
20
78
20
F8
20
20
20
30
ENDCHAR
STARTCHAR 014B
ENCODING 10543
SWIDTH 1600 0
DWIDTH 16 0
BBX 5 10 5 -2
BITMAP
B0
C8
88
88
88
88
88
88
08
38
ENDCHAR
STARTCHAR 0149
ENCODING 10544
SWIDTH 1600 0
DWIDTH 16 0
BBX 9 9 3 0
BITMAP
6000
5700
9880
1080
1080
1080
1080
1080
1080
ENDCHAR
STARTCHAR 3200
ENCODING 10545
SWIDTH 1600 0
DWIDTH 16 0
BBX 13 12 1 0
BITMAP
2020
4010
4010
8FE8
8028
8028
8028
8028
8008
4010
4010
2020
ENDCHAR
STARTCHAR 3201
ENCODING 10546
SWIDTH 1600 0
DWIDTH 16 0
BBX 13 12 1 0
BITMAP
2020
4010
4010
9008
9008
9008
9008
9008
9008
5FD0
4010
2020
ENDCHAR
STARTCHAR 3202
ENCODING 10547
SWIDTH 1600 0
DWIDTH 16 0
BBX 13 12 1 0
BITMAP
2020
4010
4010
9FC8
9008
9008
9008
9008
9008
5FD0
4010
2020
ENDCHAR
STARTCHAR 3203
ENCODING 10548
SWIDTH 1600 0
DWIDTH 16 0
BBX 13 12 1 0
BITMAP
2020
4010
4010
9FC8
8048
8048
9FC8
9008
9008
5FD0
4010
2020
ENDCHAR
STARTCHAR 3204
ENCODING 10549
SWIDTH 1600 0
DWIDTH 16 0
BBX 13 12 1 0
BITMAP
2020
4010
4010
9FE8
9028
9028
9028
9028
9FE8
4010
4010
2020
ENDCHAR
STARTCHAR 3205
ENCODING 10550
SWIDTH 1600 0
DWIDTH 16 0
BBX 13 12 1 0
BITMAP
2020
4010
4010
8008
9028
9028
9FE8
9028
9028
5FF0
4010
2020
ENDCHAR
STARTCHAR 3206
ENCODING 10551
SWIDTH 1600 0
DWIDTH 16 0
BBX 13 12 1 0
BITMAP
2020
4010
4010
8208
8208
8208
8508
8D88
98C8
4030
4010
2020
ENDCHAR
STARTCHAR 3207
ENCODING 10552
SWIDTH 1600 0
DWIDTH 16 0
BBX 13 12 1 0
BITMAP
2020
4010
4790
8848
9028
9028
9028
9028
8848
4790
4010
2020
ENDCHAR
STARTCHAR 3208
ENCODING 10553
SWIDTH 1600 0
DWIDTH 16 0
BBX 13 12 1 0
BITMAP
2020
4010
4010
BFE8
8208
8208
8508
8888
9048
4030
4010
2020
ENDCHAR
STARTCHAR 3209
ENCODING 10554
SWIDTH 1600 0
DWIDTH 16 0
BBX 13 12 1 0
BITMAP
2020
4010
4F90
8008
9FE8
8208
8308
8508
88C8
5030
4010
2020
ENDCHAR
STARTCHAR 320A
ENCODING 10555
SWIDTH 1600 0
DWIDTH 16 0
BBX 13 12 1 0
BITMAP
2020
4010
4010
8FE8
8028
8028
9F28
8028
8048
4010
4010
2020
ENDCHAR
STARTCHAR 320B
ENCODING 10556
SWIDTH 1600 0
DWIDTH 16 0
BBX 13 12 1 0
BITMAP
2020
4010
4010
9FC8
9008
9008
9FC8
9008
9008
5FD0
4010
2020
ENDCHAR
STARTCHAR 320C
ENCODING 10557
SWIDTH 1600 0
DWIDTH 16 0
BBX 13 12 1 0
BITMAP
2020
4010
4010
9FE8
8008
8888
8888
8888
8488
5FF0
4010
2020
ENDCHAR
STARTCHAR 320D
ENCODING 10558
SWIDTH 1600 0
DWIDTH 16 0
BBX 13 12 1 0
BITMAP
2020
4010
4F90
8008
9FE8
8788
8848
8848
88C8
4790
4010
2020
ENDCHAR
STARTCHAR 320E
ENCODING 10559
SWIDTH 1600 0
DWIDTH 16 0
BBX 13 12 1 0
BITMAP
2020
4050
4050
9E48
8248
8248
8478
8448
9848
4050
4050
2020
ENDCHAR
STARTCHAR 320F
ENCODING 10560
SWIDTH 1600 0
DWIDTH 16 0
BBX 13 12 1 0
BITMAP
2020
4050
4050
9048
9048
9048
9078
9048
9F48
4050
4050
2020
ENDCHAR
STARTCHAR 3210
ENCODING 10561
SWIDTH 1600 0
DWIDTH 16 0
BBX 13 12 1 0
BITMAP
2020
4050
4050
9F48
9048
9048
9078
9048
9F48
4050
4050
2020
ENDCHAR
STARTCHAR 3211
ENCODING 10562
SWIDTH 1600 0
DWIDTH 16 0
BBX 13 12 1 0
BITMAP
2020
4050
4050
9E48
8248
8248
9E78
9048
9048
5F50
4050
2020
ENDCHAR
STARTCHAR 3212
ENCODING 10563
SWIDTH 1600 0
DWIDTH 16 0
BBX 13 12 1 0
BITMAP
2020
4050
4050
9E48
9248
9248
9278
9248
9E48
4050
4050
2020
ENDCHAR
STARTCHAR 3213
ENCODING 10564
SWIDTH 1600 0
DWIDTH 16 0
BBX 13 12 1 0
BITMAP
2020
4050
4050
9248
9248
9E48
9278
9248
9248
5E50
4050
2020
ENDCHAR
STARTCHAR 3214
ENCODING 10565
SWIDTH 1600 0
DWIDTH 16 0
BBX 13 12 1 0
BITMAP
2020
4050
4050
8448
8448
8448
8C78
8A48
9148
4050
4050
2020
ENDCHAR
STARTCHAR 3215
ENCODING 10566
SWIDTH 1600 0
DWIDTH 16 0
BBX 13 12 1 0
BITMAP
2020
4050
4050
8C48
9248
9248
9278
9248
9248
4C50
4050
2020
ENDCHAR
STARTCHAR 3216
ENCODING 10567
SWIDTH 1600 0
DWIDTH 16 0
BBX 13 12 1 0
BITMAP
2020
4050
4050
9F48
8448
8448
8C78
8A48
9148
4050
4050
2020
ENDCHAR
STARTCHAR 3217
ENCODING 10568
SWIDTH 1600 0
DWIDTH 16 0
BBX 13 12 1 0
BITMAP
2020
4050
4E50
8048
9F48
8448
8478
8C48
9248
4150
4050
2020
ENDCHAR
STARTCHAR 3218
ENCODING 10569
SWIDTH 1600 0
DWIDTH 16 0
BBX 13 12 1 0
BITMAP
2020
4050
4050
9E48
8248
8648
9A78
8448
8448
5850
4050
2020
ENDCHAR
STARTCHAR 3219
ENCODING 10570
SWIDTH 1600 0
DWIDTH 16 0
BBX 13 12 1 0
BITMAP
2020
4050
4050
9F48
9048
9048
9E78
9048
9048
5F50
4050
2020
ENDCHAR
STARTCHAR 321A
ENCODING 10571
SWIDTH 1600 0
DWIDTH 16 0
BBX 13 12 1 0
BITMAP
2020
4050
4050
9F48
8048
9248
9278
9248
BF48
4050
4050
2020
ENDCHAR
STARTCHAR 321B
ENCODING 10572
SWIDTH 1600 0
DWIDTH 16 0
BBX 13 12 1 0
BITMAP
2020
4050
4E50
8048
BF48
8048
9E78
9248
9248
5E50
4050
2020
ENDCHAR
STARTCHAR 249C
ENCODING 10573
SWIDTH 1600 0
DWIDTH 16 0
BBX 13 12 1 0
BITMAP
2020
4010
4010
8708
8888
8888
8788
8888
8888
4FD0
4010
2020
ENDCHAR
STARTCHAR 249D
ENCODING 10574
SWIDTH 1600 0
DWIDTH 16 0
BBX 13 12 1 0
BITMAP
2020
4810
4810
8808
8B88
8CC8
8848
8848
8848
4CD0
4F90
2020
ENDCHAR
STARTCHAR 249E
ENCODING 10575
SWIDTH 1600 0
DWIDTH 16 0
BBX 13 12 1 0
BITMAP
2020
4010
4010
8708
8C88
8888
8808
8888
8C88
4710
4010
2020
ENDCHAR
STARTCHAR 249F
ENCODING 10576
SWIDTH 1600 0
DWIDTH 16 0
BBX 13 12 1 0
BITMAP
2020
4090
4090
8088
8788
8D88
8888
8888
8888
4D90
4690
2020
ENDCHAR
STARTCHAR 24A0
ENCODING 10577
SWIDTH 1600 0
DWIDTH 16 0
BBX 13 12 1 0
BITMAP
2020
4010
4010
8708
8C88
8888
8F88
8848
8848
4790
4010
2020
ENDCHAR
STARTCHAR 24A1
ENCODING 10578
SWIDTH 1600 0
DWIDTH 16 0
BBX 13 12 1 0
BITMAP
2020
4010
4310
8208
8788
8208
8208
8208
8208
4210
4210
2020
ENDCHAR
STARTCHAR 24A2
ENCODING 10579
SWIDTH 1600 0
DWIDTH 16 0
BBX 13 12 1 0
BITMAP
2020
4010
47D0
8CC8
8848
8848
8848
8CC8
87C8
4450
4790
2020
ENDCHAR
STARTCHAR 24A3
ENCODING 10580
SWIDTH 1600 0
DWIDTH 16 0
BBX 13 12 1 0
BITMAP
2020
4810
4810
8808
8F88
8848
8848
8848
8848
4850
4850
2020
ENDCHAR
STARTCHAR 24A4
ENCODING 10581
SWIDTH 1600 0
DWIDTH 16 0
BBX 13 12 1 0
BITMAP
2020
4010
4210
8008
8208
8208
8208
8208
8208
4210
4210
2020
ENDCHAR
STARTCHAR 24A5
ENCODING 10582
SWIDTH 1600 0
DWIDTH 16 0
BBX 13 12 1 0
BITMAP
2020
4210
4010
8208
8208
8208
8208
8208
8208
4210
4210
2E20
ENDCHAR
STARTCHAR 24A6
ENCODING 10583
SWIDTH 1600 0
DWIDTH 16 0
BBX 13 12 1 0
BITMAP
2020
4410
4410
8408
8488
8508
8708
8508
8488
4490
4450
2020
ENDCHAR
STARTCHAR 24A7
ENCODING 10584
SWIDTH 1600 0
DWIDTH 16 0
BBX 13 12 1 0
BITMAP
2020
4210
4210
8208
8208
8208
8208
8208
8208
4210
4210
2020
ENDCHAR
STARTCHAR 24A8
ENCODING 10585
SWIDTH 1600 0
DWIDTH 16 0
BBX 13 12 1 0
BITMAP
2020
4010
4010
9FE8
9228
9228
9228
9228
9228
5230
4010
2020
ENDCHAR
STARTCHAR 24A9
ENCODING 10586
SWIDTH 1600 0
DWIDTH 16 0
BBX 13 12 1 0
BITMAP
2020
4010
4010
8F08
8888
8888
8888
8888
8888
4890
4010
2020
ENDCHAR
STARTCHAR 24AA
ENCODING 10587
SWIDTH 1600 0
DWIDTH 16 0
BBX 13 12 1 0
BITMAP
2020
4010
4010
8788
8CC8
8848
8848
8848
8488
4790
4010
2020
ENDCHAR
STARTCHAR 24AB
ENCODING 10588
SWIDTH 1600 0
DWIDTH 16 0
BBX 13 12 1 0
BITMAP
2020
4010
4B90
8CC8
8848
8848
8848
8CC8
8B88
4810
4810
2020
ENDCHAR
STARTCHAR 24AC
ENCODING 10589
SWIDTH 1600 0
DWIDTH 16 0
BBX 13 12 1 0
BITMAP
2020
4010
4750
8CC8
8848
8848
8848
8CC8
87C8
4050
4050
2020
ENDCHAR
STARTCHAR 24AD
ENCODING 10590
SWIDTH 1600 0
DWIDTH 16 0
BBX 13 12 1 0
BITMAP
2020
4010
4010
8588
8608
8408
8408
8408
8408
4410
4010
2020
ENDCHAR
STARTCHAR 24AE
ENCODING 10591
SWIDTH 1600 0
DWIDTH 16 0
BBX 13 12 1 0
BITMAP
2020
4010
4710
8488
8408
8708
8088
8888
8488
4710
4010
2020
ENDCHAR
STARTCHAR 24AF
ENCODING 10592
SWIDTH 1600 0
DWIDTH 16 0
BBX 13 12 1 0
BITMAP
2020
4010
4210
8208
8788
8208
8208
8208
8208
4210
4390
2020
ENDCHAR
STARTCHAR 24B0
ENCODING 10593
SWIDTH 1600 0
DWIDTH 16 0
BBX 13 12 1 0
BITMAP
2020
4010
4010
8888
8888
8888
8888
8888
8888
4790
4010
2020
ENDCHAR
STARTCHAR 24B1
ENCODING 10594
SWIDTH 1600 0
DWIDTH 16 0
BBX 13 12 1 0
BITMAP
2020
4010
4010
8808
8888
8488
8508
8508
8308
4210
4010
2020
ENDCHAR
STARTCHAR 24B2
ENCODING 10595
SWIDTH 1600 0
DWIDTH 16 0
BBX 13 12 1 0
BITMAP
2020
4010
4010
9228
9328
9348
9548
8D48
8CC8
4C90
4090
2020
ENDCHAR
STARTCHAR 24B3
ENCODING 10596
SWIDTH 1600 0
DWIDTH 16 0
BBX 13 12 1 0
BITMAP
2020
4010
4010
8088
8508
8308
8208
8508
8488
4890
4010
2020
ENDCHAR
STARTCHAR 24B4
ENCODING 10597
SWIDTH 1600 0
DWIDTH 16 0
BBX 13 12 1 0
BITMAP
2020
4010
4890
8888
8488
8508
8508
8308
8208
4210
4210
2420
ENDCHAR
STARTCHAR 24B5
ENCODING 10598
SWIDTH 1600 0
DWIDTH 16 0
BBX 13 12 1 0
BITMAP
2020
4010
4010
8F88
8088
8108
8208
8408
8408
4FD0
4010
2020
ENDCHAR
STARTCHAR 2474
ENCODING 10599
SWIDTH 1600 0
DWIDTH 16 0
BBX 13 12 1 0
BITMAP
2020
4010
4110
8108
8708
8108
8108
8108
8108
4110
4110
2020
ENDCHAR
STARTCHAR 2475
ENCODING 10600
SWIDTH 1600 0
DWIDTH 16 0
BBX 13 12 1 0
BITMAP
2020
4710
4890
8888
8888
8088
8308
8408
8808
4810
4F90
2020
ENDCHAR
STARTCHAR 2476
ENCODING 10601
SWIDTH 1600 0
DWIDTH 16 0
BBX 13 12 1 0
BITMAP
2020
4010
4710
8888
8888
8888
8708
88C8
8848
4C50
4790
2020
ENDCHAR
STARTCHAR 2477
ENCODING 10602
SWIDTH 1600 0
DWIDTH 16 0
BBX 13 12 1 0
BITMAP
2020
4010
4110
8308
8508
8508
8908
9108
9FC8
4110
4110
2020
ENDCHAR
STARTCHAR 2478
ENCODING 10603
SWIDTH 1600 0
DWIDTH 16 0
BBX 13 12 1 0
BITMAP
2020
4010
47D0
8408
8408
8788
84C8
8048
8848
44D0
4790
2020
ENDCHAR
STARTCHAR 2479
ENCODING 10604
SWIDTH 1600 0
DWIDTH 16 0
BBX 13 12 1 0
BITMAP
2020
4010
4390
8488
8808
8B88
8C48
8848
8848
4CD0
4790
2020
ENDCHAR
STARTCHAR 247A
ENCODING 10605
SWIDTH 1600 0
DWIDTH 16 0
BBX 13 12 1 0
BITMAP
2020
4010
4FD0
8088
8088
8108
8108
8208
8208
4210
4010
2020
ENDCHAR
STARTCHAR 247B
ENCODING 10606
SWIDTH 1600 0
DWIDTH 16 0
BBX 13 12 1 0
BITMAP
2020
4010
4710
8888
8888
8888
8708
8888
8848
48D0
4790
2020
ENDCHAR
STARTCHAR 247C
ENCODING 10607
SWIDTH 1600 0
DWIDTH 16 0
BBX 13 12 1 0
BITMAP
2020
4010
4790
8C88
8848
8848
8CC8
8748
8848
4490
4710
2020
ENDCHAR
STARTCHAR 247D
ENCODING 10608
SWIDTH 1600 0
DWIDTH 16 0
BBX 13 12 1 0
BITMAP
2020
48D0
4970
B928
8928
8928
8928
8928
8928
4930
49D0
2820
ENDCHAR
STARTCHAR 247E
ENCODING 10609
SWIDTH 1600 0
DWIDTH 16 0
BBX 13 12 1 0
BITMAP
2020
4850
4850
B9C8
8848
8848
8848
8848
8848
4850
4850
2860
ENDCHAR
STARTCHAR 247F
ENCODING 10610
SWIDTH 1600 0
DWIDTH 16 0
BBX 13 12 1 0
BITMAP
2020
4850
49B0
B928
8828
8848
8888
8908
8908
4A10
4A10
2BE0
ENDCHAR
STARTCHAR 2480
ENCODING 10611
SWIDTH 1600 0
DWIDTH 16 0
BBX 13 12 1 0
BITMAP
2020
4990
4A50
B848
8848
8988
8848
8828
8928
4930
4970
28A0
ENDCHAR
STARTCHAR 2481
ENCODING 10612
SWIDTH 1600 0
DWIDTH 16 0
BBX 13 12 1 0
BITMAP
2020
48D0
48D0
B948
8948
8948
8A48
8A48
8BE8
4850
4850
2820
ENDCHAR
STARTCHAR 2482
ENCODING 10613
SWIDTH 1600 0
DWIDTH 16 0
BBX 13 12 1 0
BITMAP
2020
49F0
4910
B908
8908
89C8
8928
8828
8828
4930
4930
28E0
ENDCHAR
STARTCHAR 00B9
ENCODING 10614
SWIDTH 1600 0
DWIDTH 16 0
BBX 3 7 6 5
BITMAP
20
E0
20
20
20
20
20
ENDCHAR
STARTCHAR 00B2
ENCODING 10615
SWIDTH 1600 0
DWIDTH 16 0
BBX 4 7 6 5
BITMAP
60
90
90
20
40
80
F0
ENDCHAR
STARTCHAR 00B3
ENCODING 10616
SWIDTH 1600 0
DWIDTH 16 0
BBX 4 7 6 5
BITMAP
E0
90
20
60
10
10
E0
ENDCHAR
STARTCHAR 2074
ENCODING 10617
SWIDTH 1600 0
DWIDTH 16 0
BBX 5 6 5 6
BITMAP
30
30
50
90
F8
10
ENDCHAR
STARTCHAR 207F
ENCODING 10618
SWIDTH 1600 0
DWIDTH 16 0
BBX 4 5 6 6
BITMAP
F0
90
90
90
90
ENDCHAR
STARTCHAR 2081
ENCODING 10619
SWIDTH 1600 0
DWIDTH 16 0
BBX 3 7 6 -2
BITMAP
20
E0
20
20
20
20
20
ENDCHAR
STARTCHAR 2082
ENCODING 10620
SWIDTH 1600 0
DWIDTH 16 0
BBX 4 7 6 -2
BITMAP
60
90
90
20
40
80
F0
ENDCHAR
STARTCHAR 2083
ENCODING 10621
SWIDTH 1600 0
DWIDTH 16 0
BBX 5 7 6 -2
BITMAP
70
88
10
30
08
88
70
ENDCHAR
STARTCHAR 2084
ENCODING 10622
SWIDTH 1600 0
DWIDTH 16 0
BBX 5 7 5 -2
BITMAP
30
30
50
D0
F8
10
10
ENDCHAR
STARTCHAR 3041
ENCODING 10785
SWIDTH 1600 0
DWIDTH 16 0
BBX 8 8 3 -1
BITMAP
12
3C
10
1F
35
59
91
62
ENDCHAR
STARTCHAR 3042
ENCODING 10786
SWIDTH 1600 0
DWIDTH 16 0
BBX 11 12 2 -1
BITMAP
0800
1100
7E00
1100
1100
1F80
3240
4C20
8C20
8820
8840
7880
ENDCHAR
STARTCHAR 3043
ENCODING 10787
SWIDTH 1600 0
DWIDTH 16 0
BBX 8 6 4 -1
BITMAP
84
82
82
81
50
60
ENDCHAR
STARTCHAR 3044
ENCODING 10788
SWIDTH 1600 0
DWIDTH 16 0
BBX 11 10 3 0
BITMAP
8000
8100
8080
8080
8040
8040
4020
4800
2800
1000
ENDCHAR
STARTCHAR 3045
ENCODING 10789
SWIDTH 1600 0
DWIDTH 16 0
BBX 5 8 5 -1
BITMAP
18
00
78
88
08
08
08
10
ENDCHAR
STARTCHAR 3046
ENCODING 10790
SWIDTH 1600 0
DWIDTH 16 0
BBX 7 13 4 -2
BITMAP
20
1C
00
18
66
82
02
02
02
04
04
08
10
ENDCHAR
STARTCHAR 3047
ENCODING 10791
SWIDTH 1600 0
DWIDTH 16 0
BBX 6 9 5 -2
BITMAP
20
18
10
F0
20
30
50
90
0C
ENDCHAR
STARTCHAR 3048
ENCODING 10792
SWIDTH 1600 0
DWIDTH 16 0
BBX 10 12 3 -1
BITMAP
1000
0E00
0000
0600
7C00
0400
0800
1000
1C00
2400
4400
83C0
ENDCHAR
STARTCHAR 3049
ENCODING 10793
SWIDTH 1600 0
DWIDTH 16 0
BBX 8 9 4 -2
BITMAP
20
22
F1
20
3E
62
A2
A4
40
ENDCHAR
STARTCHAR 304A
ENCODING 10794
SWIDTH 1600 0
DWIDTH 16 0
BBX 12 12 2 -1
BITMAP
1000
1000
1460
7830
1000
1100
1EC0
3020
5020
D020
5040
3180
ENDCHAR
STARTCHAR 304B
ENCODING 10795
SWIDTH 1600 0
DWIDTH 16 0
BBX 12 12 2 -1
BITMAP
0800
0800
0800
0E40
F120
1110
1110
2100
2100
4200
4200
0C00
ENDCHAR
STARTCHAR 304C
ENCODING 10796
SWIDTH 1600 0
DWIDTH 16 0
BBX 12 12 2 -1
BITMAP
0850
0820
0800
0E40
F120
1110
1110
2100
2100
4200
4200
0C00
ENDCHAR
STARTCHAR 304D
ENCODING 10797
SWIDTH 1600 0
DWIDTH 16 0
BBX 9 12 3 -2
BITMAP
0A00
7C00
0580
0600
7A00
0200
1D00
6380
8000
4000
3200
0C00
ENDCHAR
STARTCHAR 304E
ENCODING 10798
SWIDTH 1600 0
DWIDTH 16 0
BBX 11 13 3 -2
BITMAP
00A0
0A40
7C00
0580
0E00
7200
0200
1D00
6380
8000
4000
3200
0C00
ENDCHAR
STARTCHAR 304F
ENCODING 10799
SWIDTH 1600 0
DWIDTH 16 0
BBX 5 13 5 -2
BITMAP
08
10
20
20
40
80
80
40
20
20
10
08
08
ENDCHAR
STARTCHAR 3050
ENCODING 10800
SWIDTH 1600 0
DWIDTH 16 0
BBX 8 13 5 -2
BITMAP
08
10
21
20
42
80
80
40
20
20
10
10
08
ENDCHAR
STARTCHAR 3051
ENCODING 10801
SWIDTH 1600 0
DWIDTH 16 0
BBX 10 12 3 -1
BITMAP
4100
4100
8140
9F80
8100
8100
8100
A100
C100
C200
4200
4400
ENDCHAR
STARTCHAR 3052
ENCODING 10802
SWIDTH 1600 0
DWIDTH 16 0
BBX 11 13 3 -1
BITMAP
0020
4140
4100
8140
9F80
8100
8100
8100
A100
C100
C200
4200
4400
ENDCHAR
STARTCHAR 3053
ENCODING 10803
SWIDTH 1600 0
DWIDTH 16 0
BBX 8 11 3 0
BITMAP
40
3F
00
00
00
00
00
00
80
40
3F
ENDCHAR
STARTCHAR 3054
ENCODING 10804
SWIDTH 1600 0
DWIDTH 16 0
BBX 11 11 3 0
BITMAP
4000
3F00
0020
0040
0000
0000
0000
0000
8000
4000
3F00
ENDCHAR
STARTCHAR 3055
ENCODING 10805
SWIDTH 1600 0
DWIDTH 16 0
BBX 9 12 3 -1
BITMAP
0800
0800
0700
7C00
0200
0200
0100
7F00
4080
8000
4000
3E00
ENDCHAR
STARTCHAR 3056
ENCODING 10806
SWIDTH 1600 0
DWIDTH 16 0
BBX 11 12 3 -1
BITMAP
0820
0880
0700
7C00
0200
0200
3D00
4380
8000
4000
6000
1E00
ENDCHAR
STARTCHAR 3057
ENCODING 10807
SWIDTH 1600 0
DWIDTH 16 0
BBX 8 12 4 -1
BITMAP
80
80
80
80
80
80
80
80
81
81
42
7C
ENDCHAR
STARTCHAR 3058
ENCODING 10808
SWIDTH 1600 0
DWIDTH 16 0
BBX 8 12 4 -1
BITMAP
80
82
85
82
80
80
80
80
81
81
42
7C
ENDCHAR
STARTCHAR 3059
ENCODING 10809
SWIDTH 1600 0
DWIDTH 16 0
BBX 12 13 2 -2
BITMAP
0200
0200
FFF0
0200
0E00
1200
1200
1200
1E00
0200
0400
0400
1800
ENDCHAR
STARTCHAR 305A
ENCODING 10810
SWIDTH 1600 0
DWIDTH 16 0
BBX 12 13 2 -2
BITMAP
0250
0220
FFF0
0200
0E00
1200
1200
1200
1E00
0200
0400
0400
1800
ENDCHAR
STARTCHAR 305B
ENCODING 10811
SWIDTH 1600 0
DWIDTH 16 0
BBX 11 12 3 -1
BITMAP
0100
2100
2100
2100
FFE0
2100
2100
2100
2600
2000
3000
1F80
ENDCHAR
STARTCHAR 305C
ENCODING 10812
SWIDTH 1600 0
DWIDTH 16 0
BBX 12 12 2 -1
BITMAP
0090
10A0
1080
1080
FFF0
1080
1080
1080
1300
1000
1800
0FC0
ENDCHAR
STARTCHAR 305D
ENCODING 10813
SWIDTH 1600 0
DWIDTH 16 0
BBX 11 12 3 -1
BITMAP
0100
2100
1200
0460
1F80
E200
0400
0800
0800
0800
0400
0380
ENDCHAR
STARTCHAR 305E
ENCODING 10814
SWIDTH 1600 0
DWIDTH 16 0
BBX 11 12 3 -1
BITMAP
0100
2180
1240
0460
1F80
E200
0400
0800
0800
0800
0400
0380
ENDCHAR
STARTCHAR 305F
ENCODING 10815
SWIDTH 1600 0
DWIDTH 16 0
BBX 11 12 2 -1
BITMAP
1000
1000
1000
FC00
13E0
1000
2000
2000
2000
4000
4600
81E0
ENDCHAR
STARTCHAR 3060
ENCODING 10816
SWIDTH 1600 0
DWIDTH 16 0
BBX 12 12 2 -1
BITMAP
1000
1010
1020
FC00
13E0
1000
2000
2000
2000
4000
4600
81E0
ENDCHAR
STARTCHAR 3061
ENCODING 10817
SWIDTH 1600 0
DWIDTH 16 0
BBX 11 12 2 -1
BITMAP
1000
1000
1100
FE00
1000
1000
13C0
2C20
3020
2020
0040
0780
ENDCHAR
STARTCHAR 3062
ENCODING 10818
SWIDTH 1600 0
DWIDTH 16 0
BBX 12 12 2 -1
BITMAP
1000
1010
1120
FE00
1000
1000
13C0
2C20
3020
2020
0040
0780
ENDCHAR
STARTCHAR 3063
ENCODING 10819
SWIDTH 1600 0
DWIDTH 16 0
BBX 7 7 4 -2
BITMAP
1C
E2
02
02
02
04
18
ENDCHAR
STARTCHAR 3064
ENCODING 10820
SWIDTH 1600 0
DWIDTH 16 0
BBX 10 9 3 0
BITMAP
1F00
E080
0040
0040
0040
0040
0080
0100
0E00
ENDCHAR
STARTCHAR 3065
ENCODING 10821
SWIDTH 1600 0
DWIDTH 16 0
BBX 12 11 2 0
BITMAP
0010
0020
1F80
E040
0020
0020
0020
0020
0040
0180
0600
ENDCHAR
STARTCHAR 3066
ENCODING 10822
SWIDTH 1600 0
DWIDTH 16 0
BBX 10 11 3 -1
BITMAP
07C0
FE00
0400
0800
0800
1000
1000
1000
0800
0400
0380
ENDCHAR
STARTCHAR 3067
ENCODING 10823
SWIDTH 1600 0
DWIDTH 16 0
BBX 10 11 3 -1
BITMAP
07C0
FE00
0400
0840
0800
1000
1000
1000
0800
0400
0380
ENDCHAR
STARTCHAR 3068
ENCODING 10824
SWIDTH 1600 0
DWIDTH 16 0
BBX 7 12 4 -1
BITMAP
40
40
20
26
38
20
40
80
80
80
C0
3E
ENDCHAR
STARTCHAR 3069
ENCODING 10825
SWIDTH 1600 0
DWIDTH 16 0
BBX 10 12 4 -1
BITMAP
4000
4040
2080
2600
3800
2000
4000
8000
8000
8000
C000
3E00
ENDCHAR
STARTCHAR 306A
ENCODING 10826
SWIDTH 1600 0
DWIDTH 16 0
BBX 11 12 2 -2
BITMAP
1000
7C40
1020
1100
2100
2100
4100
8100
0F80
1140
0900
0600
ENDCHAR
STARTCHAR 306B
ENCODING 10827
SWIDTH 1600 0
DWIDTH 16 0
BBX 10 11 3 -1
BITMAP
4000
4FC0
4000
8000
8000
8000
8000
8000
CC00
C380
4000
ENDCHAR
STARTCHAR 306C
ENCODING 10828
SWIDTH 1600 0
DWIDTH 16 0
BBX 12 11 2 -1
BITMAP
0400
4400
4FC0
3440
2420
6820
9820
8820
93E0
6250
0180
ENDCHAR
STARTCHAR 306D
ENCODING 10829
SWIDTH 1600 0
DWIDTH 16 0
BBX 12 13 2 -2
BITMAP
2000
2000
2000
73C0
A460
3820
2020
6020
A020
A3E0
2250
2380
2000
ENDCHAR
STARTCHAR 306E
ENCODING 10830
SWIDTH 1600 0
DWIDTH 16 0
BBX 11 10 2 0
BITMAP
0C00
3780
6440
C820
8820
8820
9020
9040
E040
6180
ENDCHAR
STARTCHAR 306F
ENCODING 10831
SWIDTH 1600 0
DWIDTH 16 0
BBX 10 12 3 -1
BITMAP
0100
4100
4100
8FC0
8100
8100
8100
8100
8700
D9C0
D100
4E00
ENDCHAR
STARTCHAR 3070
ENCODING 10832
SWIDTH 1600 0
DWIDTH 16 0
BBX 11 12 3 -1
BITMAP
0120
4140
4100
9FC0
8100
8100
8100
8100
8700
D9C0
D100
4E00
ENDCHAR
STARTCHAR 3071
ENCODING 10833
SWIDTH 1600 0
DWIDTH 16 0
BBX 11 13 3 -1
BITMAP
00E0
01A0
41E0
4100
8FC0
8100
8100
8100
8100
8700
D9C0
D100
4E00
ENDCHAR
STARTCHAR 3072
ENCODING 10834
SWIDTH 1600 0
DWIDTH 16 0
BBX 11 11 2 -1
BITMAP
3080
D080
20C0
40A0
4080
4080
4080
4100
4100
2200
1C00
ENDCHAR
STARTCHAR 3073
ENCODING 10835
SWIDTH 1600 0
DWIDTH 16 0
BBX 12 12 2 -1
BITMAP
0010
30A0
D080
20C0
40A0
4080
4080
4080
4100
4100
2200
1C00
ENDCHAR
STARTCHAR 3074
ENCODING 10836
SWIDTH 1600 0
DWIDTH 16 0
BBX 13 12 2 -1
BITMAP
0038
30A8
D0B8
20C0
40A0
4080
4080
4080
4100
4100
2200
1C00
ENDCHAR
STARTCHAR 3075
ENCODING 10837
SWIDTH 1600 0
DWIDTH 16 0
BBX 12 12 2 -1
BITMAP
0800
0400
0200
0000
0800
0800
0400
0440
0220
A210
4A00
0400
ENDCHAR
STARTCHAR 3076
ENCODING 10838
SWIDTH 1600 0
DWIDTH 16 0
BBX 12 12 2 -1
BITMAP
0800
0400
0220
0040
0800
0800
0400
0440
0220
A210
4A00
0400
ENDCHAR
STARTCHAR 3077
ENCODING 10839
SWIDTH 1600 0
DWIDTH 16 0
BBX 12 12 2 -1
BITMAP
0800
0400
0270
0050
0870
0800
0400
0440
0220
A210
4A00
0400
ENDCHAR
STARTCHAR 3078
ENCODING 10840
SWIDTH 1600 0
DWIDTH 16 0
BBX 12 6 2 2
BITMAP
0800
3400
4200
8100
00C0
0030
ENDCHAR
STARTCHAR 3079
ENCODING 10841
SWIDTH 1600 0
DWIDTH 16 0
BBX 12 7 2 2
BITMAP
0040
08A0
3440
4200
8100
00C0
0030
ENDCHAR
STARTCHAR 307A
ENCODING 10842
SWIDTH 1600 0
DWIDTH 16 0
BBX 12 7 2 2
BITMAP
00C0
08A0
34C0
4200
8100
00C0
0030
ENDCHAR
STARTCHAR 307B
ENCODING 10843
SWIDTH 1600 0
DWIDTH 16 0
BBX 12 11 2 -1
BITMAP
47E0
4080
8080
87E0
8080
8080
8080
8780
C8C0
C8B0
4700
ENDCHAR
STARTCHAR 307C
ENCODING 10844
SWIDTH 1600 0
DWIDTH 16 0
BBX 13 11 2 -1
BITMAP
4FD0
4128
8110
8FC0
8100
8100
8100
8700
C9C0
C920
4E00
ENDCHAR
STARTCHAR 307D
ENCODING 10845
SWIDTH 1600 0
DWIDTH 16 0
BBX 13 11 2 -1
BITMAP
4FC0
8130
8138
8FC0
8100
8100
8100
8700
C9C0
C920
4E00
ENDCHAR
STARTCHAR 307E
ENCODING 10846
SWIDTH 1600 0
DWIDTH 16 0
BBX 7 12 4 -1
BITMAP
10
10
FE
10
10
FC
10
10
70
8C
92
E0
ENDCHAR
STARTCHAR 307F
ENCODING 10847
SWIDTH 1600 0
DWIDTH 16 0
BBX 12 11 2 -1
BITMAP
1E00
0400
0440
0840
0880
3F80
50C0
9130
A100
4200
0400
ENDCHAR
STARTCHAR 3080
ENCODING 10848
SWIDTH 1600 0
DWIDTH 16 0
BBX 12 12 2 -1
BITMAP
1000
1000
7C40
1020
1010
7000
9000
9000
9040
6040
1040
1F80
ENDCHAR
STARTCHAR 3081
ENCODING 10849
SWIDTH 1600 0
DWIDTH 16 0
BBX 11 12 2 -1
BITMAP
0200
0200
4200
4F80
34C0
2460
5420
9820
8820
9840
E040
0380
ENDCHAR
STARTCHAR 3082
ENCODING 10850
SWIDTH 1600 0
DWIDTH 16 0
BBX 9 12 3 -1
BITMAP
1000
1000
9000
7C00
2000
2100
FD00
2080
2080
2080
1100
0E00
ENDCHAR
STARTCHAR 3083
ENCODING 10851
SWIDTH 1600 0
DWIDTH 16 0
BBX 8 8 4 -1
BITMAP
10
00
4F
31
E1
2E
20
10
ENDCHAR
STARTCHAR 3084
ENCODING 10852
SWIDTH 1600 0
DWIDTH 16 0
BBX 11 11 2 -1
BITMAP
0400
4200
23E0
3C20
3020
D020
0BC0
0800
0800
0400
0400
ENDCHAR
STARTCHAR 3085
ENCODING 10853
SWIDTH 1600 0
DWIDTH 16 0
BBX 8 8 4 -1
BITMAP
08
88
9E
E9
C9
8A
8E
10
ENDCHAR
STARTCHAR 3086
ENCODING 10854
SWIDTH 1600 0
DWIDTH 16 0
BBX 10 12 3 -1
BITMAP
8000
8200
8780
9A40
A240
C240
C240
8240
8C40
8780
0800
0800
ENDCHAR
STARTCHAR 3087
ENCODING 10855
SWIDTH 1600 0
DWIDTH 16 0
BBX 7 10 4 -2
BITMAP
10
10
14
18
10
10
F8
94
A2
40
ENDCHAR
STARTCHAR 3088
ENCODING 10856
SWIDTH 1600 0
DWIDTH 16 0
BBX 9 13 3 -1
BITMAP
0800
0800
0800
0F00
0800
0800
0800
0800
0800
7C00
8B00
8880
7000
ENDCHAR
STARTCHAR 3089
ENCODING 10857
SWIDTH 1600 0
DWIDTH 16 0
BBX 8 12 4 -1
BITMAP
60
10
80
80
80
9E
A1
C1
81
01
02
1C
ENDCHAR
STARTCHAR 308A
ENCODING 10858
SWIDTH 1600 0
DWIDTH 16 0
BBX 7 13 4 -2
BITMAP
40
82
82
82
A2
C2
C2
C2
02
04
04
08
08
ENDCHAR
STARTCHAR 308B
ENCODING 10859
SWIDTH 1600 0
DWIDTH 16 0
BBX 9 11 3 -1
BITMAP
7C00
0C00
0800
1000
3F00
4080
8080
1880
2480
2500
1E00
ENDCHAR
STARTCHAR 308C
ENCODING 10860
SWIDTH 1600 0
DWIDTH 16 0
BBX 12 13 2 -2
BITMAP
1000
1000
1000
1B80
7480
1880
1080
3080
3080
5090
90A0
10C0
1000
ENDCHAR
STARTCHAR 308D
ENCODING 10861
SWIDTH 1600 0
DWIDTH 16 0
BBX 10 12 2 -1
BITMAP
0E00
1200
0400
0800
1000
1F80
2040
4040
8040
0040
0080
0700
ENDCHAR
STARTCHAR 308E
ENCODING 10862
SWIDTH 1600 0
DWIDTH 16 0
BBX 9 9 4 -2
BITMAP
2000
2000
3000
6F00
3100
6080
A100
2200
2400
ENDCHAR
STARTCHAR 308F
ENCODING 10863
SWIDTH 1600 0
DWIDTH 16 0
BBX 11 13 2 -2
BITMAP
1000
1000
1000
1800
F3C0
1420
1820
3020
3020
5020
9040
1180
1000
ENDCHAR
STARTCHAR 3090
ENCODING 10864
SWIDTH 1600 0
DWIDTH 16 0
BBX 10 12 3 -1
BITMAP
0400
3C00
0400
0800
0F00
3880
5040
9040
9040
AE40
A980
4700
ENDCHAR
STARTCHAR 3091
ENCODING 10865
SWIDTH 1600 0
DWIDTH 16 0
BBX 10 13 3 -2
BITMAP
1E00
0400
0800
1F00
3080
4C80
1580
1700
1800
2380
7440
8840
0800
ENDCHAR
STARTCHAR 3092
ENCODING 10866
SWIDTH 1600 0
DWIDTH 16 0
BBX 10 12 3 -1
BITMAP
1000
1200
FC00
2000
4000
7CC0
8700
0C00
3400
2400
2000
1F00
ENDCHAR
STARTCHAR 3093
ENCODING 10867
SWIDTH 1600 0
DWIDTH 16 0
BBX 10 12 3 -1
BITMAP
0800
0800
1000
1000
2000
2000
5800
6400
4400
8440
8280
0300
ENDCHAR
STARTCHAR 30A1
ENCODING 11041
SWIDTH 1600 0
DWIDTH 16 0
BBX 7 6 4 0
BITMAP
FE
02
14
10
20
20
ENDCHAR
STARTCHAR 30A2
ENCODING 11042
SWIDTH 1600 0
DWIDTH 16 0
BBX 10 11 3 -1
BITMAP
FFC0
0080
0880
0B00
0800
0800
0800
1000
1000
2000
C000
ENDCHAR
STARTCHAR 30A3
ENCODING 11043
SWIDTH 1600 0
DWIDTH 16 0
BBX 6 8 4 -2
BITMAP
04
08
30
50
90
10
10
10
ENDCHAR
STARTCHAR 30A4
ENCODING 11044
SWIDTH 1600 0
DWIDTH 16 0
BBX 9 11 2 -1
BITMAP
0080
0100
0200
0C00
3400
C400
0400
0400
0400
0400
0400
ENDCHAR
STARTCHAR 30A5
ENCODING 11045
SWIDTH 1600 0
DWIDTH 16 0
BBX 7 8 4 -1
BITMAP
10
FE
82
82
84
04
08
10
ENDCHAR
STARTCHAR 30A6
ENCODING 11046
SWIDTH 1600 0
DWIDTH 16 0
BBX 9 12 3 -1
BITMAP
0800
0800
FF80
8080
8080
8080
8100
0100
0200
0200
0400
1800
ENDCHAR
STARTCHAR 30A7
ENCODING 11047
SWIDTH 1600 0
DWIDTH 16 0
BBX 9 6 3 -2
BITMAP
7F00
0800
0800
0800
0800
FF80
ENDCHAR
STARTCHAR 30A8
ENCODING 11048
SWIDTH 1600 0
DWIDTH 16 0
BBX 11 8 2 1
BITMAP
7FC0
0400
0400
0400
0400
0400
0400
FFE0
ENDCHAR
STARTCHAR 30A9
ENCODING 11049
SWIDTH 1600 0
DWIDTH 16 0
BBX 8 7 4 -1
BITMAP
08
FF
18
28
48
08
38
ENDCHAR
STARTCHAR 30AA
ENCODING 11050
SWIDTH 1600 0
DWIDTH 16 0
BBX 10 12 2 -1
BITMAP
0200
0200
0200
FFC0
0600
0A00
0A00
1200
2200
C200
0200
1C00
ENDCHAR
STARTCHAR 30AB
ENCODING 11051
SWIDTH 1600 0
DWIDTH 16 0
BBX 9 11 3 0
BITMAP
0800
0800
0800
FF80
0880
0880
1080
1080
2080
6100
8E00
ENDCHAR
STARTCHAR 30AC
ENCODING 11052
SWIDTH 1600 0
DWIDTH 16 0
BBX 11 11 3 0
BITMAP
0820
0840
0800
FF80
0880
0880
1080
1080
2080
6100
8E00
ENDCHAR
STARTCHAR 30AD
ENCODING 11053
SWIDTH 1600 0
DWIDTH 16 0
BBX 10 11 3 -1
BITMAP
0800
0880
7F00
0800
0800
0FC0
F800
0400
0400
0400
0400
ENDCHAR
STARTCHAR 30AE
ENCODING 11054
SWIDTH 1600 0
DWIDTH 16 0
BBX 10 11 3 -1
BITMAP
0840
0980
7E00
0800
0800
0FC0
F800
0400
0400
0400
0400
ENDCHAR
STARTCHAR 30AF
ENCODING 11055
SWIDTH 1600 0
DWIDTH 16 0
BBX 8 13 3 -2
BITMAP
08
08
10
1F
21
41
82
04
04
08
10
60
80
ENDCHAR
STARTCHAR 30B0
ENCODING 11056
SWIDTH 1600 0
DWIDTH 16 0
BBX 12 13 3 -1
BITMAP
0400
0820
0850
1F80
1080
2100
C100
0200
0400
0C00
1800
2000
C000
ENDCHAR
STARTCHAR 30B1
ENCODING 11057
SWIDTH 1600 0
DWIDTH 16 0
BBX 11 12 2 -1
BITMAP
0800
0800
1000
1FE0
2100
4200
8200
0200
0200
0400
0800
1000
ENDCHAR
STARTCHAR 30B2
ENCODING 11058
SWIDTH 1600 0
DWIDTH 16 0
BBX 12 12 2 -1
BITMAP
0810
0820
1000
1FE0
2100
4200
8200
0200
0200
0400
0800
1000
ENDCHAR
STARTCHAR 30B3
ENCODING 11059
SWIDTH 1600 0
DWIDTH 16 0
BBX 9 9 2 0
BITMAP
7F80
0080
0080
0080
0080
0080
0080
FF80
0080
ENDCHAR
STARTCHAR 30B4
ENCODING 11060
SWIDTH 1600 0
DWIDTH 16 0
BBX 9 9 2 0
BITMAP
7F80
0080
0080
0080
0080
0080
0080
FF80
0080
ENDCHAR
STARTCHAR 30B5
ENCODING 11061
SWIDTH 1600 0
DWIDTH 16 0
BBX 12 12 2 -1
BITMAP
1080
1080
1080
FFF0
1080
1080
1080
1100
0100
0200
0600
0800
ENDCHAR
STARTCHAR 30B6
ENCODING 11062
SWIDTH 1600 0
DWIDTH 16 0
BBX 12 12 2 -1
BITMAP
10D0
10A0
1080
FFF0
1080
1080
1080
1100
0100
0200
0200
0C00
ENDCHAR
STARTCHAR 30B7
ENCODING 11063
SWIDTH 1600 0
DWIDTH 16 0
BBX 10 10 3 0
BITMAP
2000
1000
0800
C000
2040
0080
0100
0600
0800
7000
ENDCHAR
STARTCHAR 30B8
ENCODING 11064
SWIDTH 1600 0
DWIDTH 16 0
BBX 10 10 3 0
BITMAP
2040
1100
0800
C000
2040
0080
0100
0600
0800
7000
ENDCHAR
STARTCHAR 30B9
ENCODING 11065
SWIDTH 1600 0
DWIDTH 16 0
BBX 10 9 3 0
BITMAP
FF00
0100
0200
0200
0400
0600
1900
2080
4040
ENDCHAR
STARTCHAR 30BA
ENCODING 11066
SWIDTH 1600 0
DWIDTH 16 0
BBX 11 11 3 0
BITMAP
0020
0040
FF00
0100
0200
0200
0400
0600
0900
3080
4040
ENDCHAR
STARTCHAR 30BB
ENCODING 11067
SWIDTH 1600 0
DWIDTH 16 0
BBX 10 10 2 0
BITMAP
1000
1000
10C0
3F40
D080
1080
1100
1000
1000
0FC0
ENDCHAR
STARTCHAR 30BC
ENCODING 11068
SWIDTH 1600 0
DWIDTH 16 0
BBX 12 11 2 0
BITMAP
1010
1020
1040
1FC0
F040
1080
1100
1000
1000
1000
0FC0
ENDCHAR
STARTCHAR 30BD
ENCODING 11069
SWIDTH 1600 0
DWIDTH 16 0
BBX 9 11 3 -1
BITMAP
8080
4080
4080
2100
0100
0200
0200
0400
0800
1000
2000
ENDCHAR
STARTCHAR 30BE
ENCODING 11070
SWIDTH 1600 0
DWIDTH 16 0
BBX 12 12 3 -1
BITMAP
0050
80A0
4080
4080
2100
0100
0200
0200
0400
0800
1000
2000
ENDCHAR
STARTCHAR 30BF
ENCODING 11071
SWIDTH 1600 0
DWIDTH 16 0
BBX 9 12 3 -1
BITMAP
0800
0800
1F80
1080
2100
C900
0600
0200
0400
0800
1000
6000
ENDCHAR
STARTCHAR 30C0
ENCODING 11072
SWIDTH 1600 0
DWIDTH 16 0
BBX 10 12 3 -1
BITMAP
0800
0840
1F80
1080
2100
C900
0600
0200
0400
0800
1000
6000
ENDCHAR
STARTCHAR 30C1
ENCODING 11073
SWIDTH 1600 0
DWIDTH 16 0
BBX 12 12 2 -2
BITMAP
0180
3E00
0200
0200
FFF0
0200
0200
0400
0400
0800
1000
2000
ENDCHAR
STARTCHAR 30C2
ENCODING 11074
SWIDTH 1600 0
DWIDTH 16 0
BBX 13 12 2 -2
BITMAP
0180
3E08
0200
0200
FFF0
0200
0200
0400
0400
0800
1000
2000
ENDCHAR
STARTCHAR 30C3
ENCODING 11075
SWIDTH 1600 0
DWIDTH 16 0
BBX 7 8 4 -2
BITMAP
90
52
42
04
04
08
10
20
ENDCHAR
STARTCHAR 30C4
ENCODING 11076
SWIDTH 1600 0
DWIDTH 16 0
BBX 10 11 3 -1
BITMAP
0040
8880
8880
4080
0080
0100
0100
0200
0400
0800
3000
ENDCHAR
STARTCHAR 30C5
ENCODING 11077
SWIDTH 1600 0
DWIDTH 16 0
BBX 11 13 3 -1
BITMAP
0020
0000
1020
8800
8880
4080
0080
0100
0100
0200
0400
0800
3000
ENDCHAR
STARTCHAR 30C6
ENCODING 11078
SWIDTH 1600 0
DWIDTH 16 0
BBX 11 11 3 -1
BITMAP
7F80
0000
0000
FFE0
0400
0400
0400
0800
0800
1000
2000
ENDCHAR
STARTCHAR 30C7
ENCODING 11079
SWIDTH 1600 0
DWIDTH 16 0
BBX 13 11 2 -1
BITMAP
3FC0
0008
0010
FFE0
0400
0400
0400
0800
0800
1000
2000
ENDCHAR
STARTCHAR 30C8
ENCODING 11080
SWIDTH 1600 0
DWIDTH 16 0
BBX 5 11 6 -1
BITMAP
80
80
80
C0
A0
90
88
80
80
80
80
ENDCHAR
STARTCHAR 30C9
ENCODING 11081
SWIDTH 1600 0
DWIDTH 16 0
BBX 6 12 6 -1
BITMAP
04
80
80
80
C0
A0
90
88
80
80
80
80
ENDCHAR
STARTCHAR 30CA
ENCODING 11082
SWIDTH 1600 0
DWIDTH 16 0
BBX 12 13 2 -2
BITMAP
0200
0200
0200
0200
FFF0
0200
0200
0200
0400
0400
0800
1000
2000
ENDCHAR
STARTCHAR 30CB
ENCODING 11083
SWIDTH 1600 0
DWIDTH 16 0
BBX 10 8 3 1
BITMAP
7F80
0000
0000
0000
0000
0000
0000
FFC0
ENDCHAR
STARTCHAR 30CC
ENCODING 11084
SWIDTH 1600 0
DWIDTH 16 0
BBX 9 11 3 -1
BITMAP
7F00
0100
0100
3200
0A00
0600
0700
0880
1000
6000
8000
ENDCHAR
STARTCHAR 30CD
ENCODING 11085
SWIDTH 1600 0
DWIDTH 16 0
BBX 10 12 3 -1
BITMAP
0400
0400
7F80
0100
0300
0600
0D00
3480
C440
0400
0400
0400
ENDCHAR
STARTCHAR 30CE
ENCODING 11086
SWIDTH 1600 0
DWIDTH 16 0
BBX 8 11 3 -1
BITMAP
01
01
02
02
02
04
08
08
10
60
80
ENDCHAR
STARTCHAR 30CF
ENCODING 11087
SWIDTH 1600 0
DWIDTH 16 0
BBX 11 7 2 1
BITMAP
1080
1080
1040
2040
2020
4020
8000
ENDCHAR
STARTCHAR 30D0
ENCODING 11088
SWIDTH 1600 0
DWIDTH 16 0
BBX 12 9 2 1
BITMAP
0010
0020
1080
1080
1040
2040
2020
4020
8000
ENDCHAR
STARTCHAR 30D1
ENCODING 11089
SWIDTH 1600 0
DWIDTH 16 0
BBX 12 10 2 1
BITMAP
0030
0050
0020
1080
1080
1040
2040
2020
4020
8000
ENDCHAR
STARTCHAR 30D2
ENCODING 11090
SWIDTH 1600 0
DWIDTH 16 0
BBX 8 10 4 0
BITMAP
80
80
82
9C
E0
80
80
80
80
7F
ENDCHAR
STARTCHAR 30D3
ENCODING 11091
SWIDTH 1600 0
DWIDTH 16 0
BBX 9 11 4 0
BITMAP
8080
8000
8000
8600
B800
C000
8000
8000
8000
8000
7F00
ENDCHAR
STARTCHAR 30D4
ENCODING 11092
SWIDTH 1600 0
DWIDTH 16 0
BBX 10 12 4 0
BITMAP
00C0
8140
80C0
8000
8600
B800
C000
8000
8000
8000
8000
7F00
ENDCHAR
STARTCHAR 30D5
ENCODING 11093
SWIDTH 1600 0
DWIDTH 16 0
BBX 9 11 3 -2
BITMAP
FF80
0080
0080
0080
0100
0100
0200
0400
0800
1000
2000
ENDCHAR
STARTCHAR 30D6
ENCODING 11094
SWIDTH 1600 0
DWIDTH 16 0
BBX 11 14 3 -2
BITMAP
0020
0040
0000
FF80
0080
0080
0080
0100
0100
0200
0400
0800
1000
2000
ENDCHAR
STARTCHAR 30D7
ENCODING 11095
SWIDTH 1600 0
DWIDTH 16 0
BBX 11 13 3 -1
BITMAP
0060
0060
0020
FF80
0080
0080
0100
0100
0100
0200
0400
0800
1000
ENDCHAR
STARTCHAR 30D8
ENCODING 11096
SWIDTH 1600 0
DWIDTH 16 0
BBX 12 6 2 2
BITMAP
0800
3400
4200
8100
00C0
0030
ENDCHAR
STARTCHAR 30D9
ENCODING 11097
SWIDTH 1600 0
DWIDTH 16 0
BBX 12 7 2 2
BITMAP
0040
0880
3400
4200
8100
00C0
0030
ENDCHAR
STARTCHAR 30DA
ENCODING 11098
SWIDTH 1600 0
DWIDTH 16 0
BBX 12 8 2 2
BITMAP
0180
0140
0880
3400
4200
8100
00C0
0030
ENDCHAR
STARTCHAR 30DB
ENCODING 11099
SWIDTH 1600 0
DWIDTH 16 0
BBX 11 12 2 -1
BITMAP
0400
0400
0400
FFE0
0400
0400
2440
2440
4420
C400
0400
1C00
ENDCHAR
STARTCHAR 30DC
ENCODING 11100
SWIDTH 1600 0
DWIDTH 16 0
BBX 11 12 2 -1
BITMAP
0420
0440
0400
FFE0
0400
0400
2440
2440
4420
C400
0400
1C00
ENDCHAR
STARTCHAR 30DD
ENCODING 11101
SWIDTH 1600 0
DWIDTH 16 0
BBX 11 12 2 -1
BITMAP
04E0
04A0
0440
FFE0
0400
0400
2440
2440
4420
C400
0400
1C00
ENDCHAR
STARTCHAR 30DE
ENCODING 11102
SWIDTH 1600 0
DWIDTH 16 0
BBX 10 8 2 1
BITMAP
FFC0
0040
0040
0080
0900
0600
0200
0200
ENDCHAR
STARTCHAR 30DF
ENCODING 11103
SWIDTH 1600 0
DWIDTH 16 0
BBX 6 10 5 0
BITMAP
60
18
00
C0
30
08
00
C0
30
0C
ENDCHAR
STARTCHAR 30E0
ENCODING 11104
SWIDTH 1600 0
DWIDTH 16 0
BBX 10 10 3 0
BITMAP
0800
0800
0800
1000
1000
1100
2100
2080
FF80
0040
ENDCHAR
STARTCHAR 30E1
ENCODING 11105
SWIDTH 1600 0
DWIDTH 16 0
BBX 8 10 3 0
BITMAP
01
01
02
12
0C
04
0A
11
20
C0
ENDCHAR
STARTCHAR 30E2
ENCODING 11106
SWIDTH 1600 0
DWIDTH 16 0
BBX 11 10 3 -1
BITMAP
7F80
0800
0800
0800
FFE0
0800
0800
0800
0800
0FC0
ENDCHAR
STARTCHAR 30E3
ENCODING 11107
SWIDTH 1600 0
DWIDTH 16 0
BBX 7 7 4 -1
BITMAP
20
22
7E
A4
14
10
10
ENDCHAR
STARTCHAR 30E4
ENCODING 11108
SWIDTH 1600 0
DWIDTH 16 0
BBX 10 11 3 -1
BITMAP
2000
1000
17C0
F880
1080
1100
1000
0800
0800
0800
0800
ENDCHAR
STARTCHAR 30E5
ENCODING 11109
SWIDTH 1600 0
DWIDTH 16 0
BBX 8 7 4 -2
BITMAP
7C
04
04
04
04
04
FF
ENDCHAR
STARTCHAR 30E6
ENCODING 11110
SWIDTH 1600 0
DWIDTH 16 0
BBX 11 8 2 1
BITMAP
3F00
0100
0100
0100
0100
0100
0100
FFE0
ENDCHAR
STARTCHAR 30E7
ENCODING 11111
SWIDTH 1600 0
DWIDTH 16 0
BBX 6 7 5 -2
BITMAP
FC
04
FC
04
04
FC
04
ENDCHAR
STARTCHAR 30E8
ENCODING 11112
SWIDTH 1600 0
DWIDTH 16 0
BBX 8 10 3 -1
BITMAP
FF
01
01
FF
01
01
01
FF
01
01
ENDCHAR
STARTCHAR 30E9
ENCODING 11113
SWIDTH 1600 0
DWIDTH 16 0
BBX 9 11 3 -1
BITMAP
7F00
0000
0000
FF80
0080
0100
0100
0200
0400
0800
3000
ENDCHAR
STARTCHAR 30EA
ENCODING 11114
SWIDTH 1600 0
DWIDTH 16 0
BBX 6 12 5 -1
BITMAP
04
84
84
84
84
84
84
84
08
08
10
20
ENDCHAR
STARTCHAR 30EB
ENCODING 11115
SWIDTH 1600 0
DWIDTH 16 0
BBX 11 10 3 0
BITMAP
2400
2400
2400
2400
2420
2420
2440
4480
4500
8600
ENDCHAR
STARTCHAR 30EC
ENCODING 11116
SWIDTH 1600 0
DWIDTH 16 0
BBX 9 10 4 0
BITMAP
8000
8000
8000
8000
8080
8100
8200
8400
9800
E000
ENDCHAR
STARTCHAR 30ED
ENCODING 11117
SWIDTH 1600 0
DWIDTH 16 0
BBX 8 9 4 0
BITMAP
FF
81
81
81
81
81
81
FF
81
ENDCHAR
STARTCHAR 30EE
ENCODING 11118
SWIDTH 1600 0
DWIDTH 16 0
BBX 6 8 5 -2
BITMAP
FC
84
84
84
08
08
10
20
ENDCHAR
STARTCHAR 30EF
ENCODING 11119
SWIDTH 1600 0
DWIDTH 16 0
BBX 9 11 3 -1
BITMAP
FF80
8080
8080
8080
8100
0100
0100
0200
0200
0400
0800
ENDCHAR
STARTCHAR 30F0
ENCODING 11120
SWIDTH 1600 0
DWIDTH 16 0
BBX 12 12 2 -1
BITMAP
0100
0100
0100
7FE0
1100
1100
1100
1100
FFF0
0100
0100
0100
ENDCHAR
STARTCHAR 30F1
ENCODING 11121
SWIDTH 1600 0
DWIDTH 16 0
BBX 12 9 2 0
BITMAP
3FC0
0040
0080
0500
0400
0400
0400
0400
FFF0
ENDCHAR
STARTCHAR 30F2
ENCODING 11122
SWIDTH 1600 0
DWIDTH 16 0
BBX 9 11 3 -1
BITMAP
FF80
0080
0100
0100
FF00
0100
0200
0200
0400
1800
6000
ENDCHAR
STARTCHAR 30F3
ENCODING 11123
SWIDTH 1600 0
DWIDTH 16 0
BBX 10 10 3 0
BITMAP
8000
6000
0000
0040
0080
0100
0200
0C00
1000
E000
ENDCHAR
STARTCHAR 30F4
ENCODING 11124
SWIDTH 1600 0
DWIDTH 16 0
BBX 11 12 3 -1
BITMAP
0820
0840
FF80
8080
8080
8080
8100
0100
0200
0400
0C00
1000
ENDCHAR
STARTCHAR 30F5
ENCODING 11125
SWIDTH 1600 0
DWIDTH 16 0
BBX 7 8 4 -2
BITMAP
10
10
FE
12
12
22
44
8C
ENDCHAR
STARTCHAR 30F6
ENCODING 11126
SWIDTH 1600 0
DWIDTH 16 0
BBX 8 8 4 -1
BITMAP
20
40
7F
88
08
10
10
20
ENDCHAR
STARTCHAR 0410
ENCODING 11297
SWIDTH 1600 0
DWIDTH 16 0
BBX 8 11 4 0
BITMAP
10
28
28
24
44
44
7E
82
82
82
81
ENDCHAR
STARTCHAR 0411
ENCODING 11298
SWIDTH 1600 0
DWIDTH 16 0
BBX 7 11 5 0
BITMAP
FE
80
80
80
FC
86
82
82
82
86
FC
ENDCHAR
STARTCHAR 0412
ENCODING 11299
SWIDTH 1600 0
DWIDTH 16 0
BBX 8 11 4 0
BITMAP
FC
82
82
82
84
FC
82
81
81
81
FE
ENDCHAR
STARTCHAR 0413
ENCODING 11300
SWIDTH 1600 0
DWIDTH 16 0
BBX 6 11 5 0
BITMAP
FC
80
80
80
80
80
80
80
80
80
80
ENDCHAR
STARTCHAR 0414
ENCODING 11301
SWIDTH 1600 0
DWIDTH 16 0
BBX 10 11 3 0
BITMAP
3F00
2100
2100
2100
2100
2100
2100
6100
9EC0
8040
8040
ENDCHAR
STARTCHAR 0415
ENCODING 11302
SWIDTH 1600 0
DWIDTH 16 0
BBX 7 12 5 -1
BITMAP
FE
80
80
80
80
FE
80
80
80
80
C0
3C
ENDCHAR
STARTCHAR 0401
ENCODING 11303
SWIDTH 1600 0
DWIDTH 16 0
BBX 7 12 4 0
BITMAP
24
00
FE
80
80
80
80
FC
80
80
80
FE
ENDCHAR
STARTCHAR 0416
ENCODING 11304
SWIDTH 1600 0
DWIDTH 16 0
BBX 11 12 3 -1
BITMAP
8840
4880
4880
4880
6900
7F80
8880
8840
8840
8840
8840
0020
ENDCHAR
STARTCHAR 0417
ENCODING 11305
SWIDTH 1600 0
DWIDTH 16 0
BBX 8 11 4 0
BITMAP
7C
C2
82
02
0C
1C
02
81
81
41
3E
ENDCHAR
STARTCHAR 0418
ENCODING 11306
SWIDTH 1600 0
DWIDTH 16 0
BBX 8 11 4 0
BITMAP
81
83
85
89
89
91
91
A1
A1
C1
81
ENDCHAR
STARTCHAR 0419
ENCODING 11307
SWIDTH 1600 0
DWIDTH 16 0
BBX 8 11 4 0
BITMAP
22
9D
83
85
85
89
91
A1
A1
C1
81
ENDCHAR
STARTCHAR 041A
ENCODING 11308
SWIDTH 1600 0
DWIDTH 16 0
BBX 7 11 5 0
BITMAP
86
88
88
88
90
F0
88
84
84
84
84
ENDCHAR
STARTCHAR 041B
ENCODING 11309
SWIDTH 1600 0
DWIDTH 16 0
BBX 9 11 3 0
BITMAP
3F80
2080
2080
2080
2080
2080
2080
2080
2080
2080
C080
ENDCHAR
STARTCHAR 041C
ENCODING 11310
SWIDTH 1600 0
DWIDTH 16 0
BBX 10 11 3 0
BITMAP
C0C0
C0C0
C140
A140
A240
9240
9240
9440
8C40
8C40
8040
ENDCHAR
STARTCHAR 041D
ENCODING 11311
SWIDTH 1600 0
DWIDTH 16 0
BBX 8 11 4 0
BITMAP
81
81
81
81
81
FF
81
81
81
81
81
ENDCHAR
STARTCHAR 041E
ENCODING 11312
SWIDTH 1600 0
DWIDTH 16 0
BBX 9 11 3 0
BITMAP
3E00
4100
4100
8080
8080
8080
8080
8080
4100
4100
3E00
ENDCHAR
STARTCHAR 041F
ENCODING 11313
SWIDTH 1600 0
DWIDTH 16 0
BBX 8 11 4 0
BITMAP
FF
81
81
81
81
81
81
81
81
81
81
ENDCHAR
STARTCHAR 0420
ENCODING 11314
SWIDTH 1600 0
DWIDTH 16 0
BBX 7 11 5 0
BITMAP
FC
82
82
82
82
FC
80
80
80
80
80
ENDCHAR
STARTCHAR 0421
ENCODING 11315
SWIDTH 1600 0
DWIDTH 16 0
BBX 9 11 4 0
BITMAP
3E00
4300
4100
8000
8000
8000
8000
8080
4080
4100
3E00
ENDCHAR
STARTCHAR 0422
ENCODING 11316
SWIDTH 1600 0
DWIDTH 16 0
BBX 9 11 3 0
BITMAP
FF80
0800
0800
0800
0800
0800
0800
0800
0800
0800
0800
ENDCHAR
STARTCHAR 0423
ENCODING 11317
SWIDTH 1600 0
DWIDTH 16 0
BBX 7 11 4 0
BITMAP
80
82
42
44
24
28
18
10
10
10
60
ENDCHAR
STARTCHAR 0424
ENCODING 11318
SWIDTH 1600 0
DWIDTH 16 0
BBX 10 11 3 0
BITMAP
0800
3F00
4880
8840
8840
8840
8840
8880
4880
3F00
0800
ENDCHAR
STARTCHAR 0425
ENCODING 11319
SWIDTH 1600 0
DWIDTH 16 0
BBX 7 12 4 -1
BITMAP
02
42
44
24
18
18
18
28
24
46
42
82
ENDCHAR
STARTCHAR 0426
ENCODING 11320
SWIDTH 1600 0
DWIDTH 16 0
BBX 8 12 4 -1
BITMAP
82
82
82
82
82
82
82
82
82
FF
01
01
ENDCHAR
STARTCHAR 0427
ENCODING 11321
SWIDTH 1600 0
DWIDTH 16 0
BBX 7 12 4 0
BITMAP
82
82
82
82
82
82
C6
7A
02
02
02
02
ENDCHAR
STARTCHAR 0428
ENCODING 11322
SWIDTH 1600 0
DWIDTH 16 0
BBX 10 11 3 0
BITMAP
8840
8840
8840
8840
8840
8840
8840
8840
8840
8840
FFC0
ENDCHAR
STARTCHAR 0429
ENCODING 11323
SWIDTH 1600 0
DWIDTH 16 0
BBX 12 12 2 -1
BITMAP
8440
8440
8440
8440
8440
8440
8440
8440
8440
FFF0
0010
0010
ENDCHAR
STARTCHAR 042A
ENCODING 11324
SWIDTH 1600 0
DWIDTH 16 0
BBX 10 11 3 0
BITMAP
F000
1000
1000
1000
1F00
1080
1040
1040
1040
10C0
1F80
ENDCHAR
STARTCHAR 042B
ENCODING 11325
SWIDTH 1600 0
DWIDTH 16 0
BBX 8 11 4 0
BITMAP
81
81
81
81
F1
8D
85
85
85
85
F9
ENDCHAR
STARTCHAR 042C
ENCODING 11326
SWIDTH 1600 0
DWIDTH 16 0
BBX 7 11 5 0
BITMAP
80
80
80
80
F8
84
82
82
82
82
FC
ENDCHAR
STARTCHAR 042D
ENCODING 11327
SWIDTH 1600 0
DWIDTH 16 0
BBX 9 11 3 0
BITMAP
3E00
4100
8100
0080
0080
1F80
0080
8080
8100
4100
3E00
ENDCHAR
STARTCHAR 042E
ENCODING 11328
SWIDTH 1600 0
DWIDTH 16 0
BBX 12 11 2 0
BITMAP
87C0
8820
9820
9010
9010
F010
9010
9010
8820
8820
87C0
ENDCHAR
STARTCHAR 042F
ENCODING 11329
SWIDTH 1600 0
DWIDTH 16 0
BBX 8 11 4 0
BITMAP
7F
C1
81
81
C1
3F
41
81
81
81
81
ENDCHAR
STARTCHAR 0430
ENCODING 11345
SWIDTH 1600 0
DWIDTH 16 0
BBX 6 9 5 0
BITMAP
70
88
88
08
78
88
88
98
64
ENDCHAR
STARTCHAR 0431
ENCODING 11346
SWIDTH 1600 0
DWIDTH 16 0
BBX 7 12 5 0
BITMAP
32
4C
40
80
BC
C6
82
82
82
82
44
38
ENDCHAR
STARTCHAR 0432
ENCODING 11347
SWIDTH 1600 0
DWIDTH 16 0
BBX 5 9 5 0
BITMAP
F0
88
88
88
F0
88
88
88
F0
ENDCHAR
STARTCHAR 0433
ENCODING 11348
SWIDTH 1600 0
DWIDTH 16 0
BBX 5 9 6 0
BITMAP
F8
80
80
80
80
80
80
80
80
ENDCHAR
STARTCHAR 0434
ENCODING 11349
SWIDTH 1600 0
DWIDTH 16 0
BBX 8 10 4 -1
BITMAP
7E
42
42
42
42
42
82
FF
81
81
ENDCHAR
STARTCHAR 0435
ENCODING 11350
SWIDTH 1600 0
DWIDTH 16 0
BBX 7 9 5 0
BITMAP
38
44
84
82
FC
80
80
44
38
ENDCHAR
STARTCHAR 0451
ENCODING 11351
SWIDTH 1600 0
DWIDTH 16 0
BBX 6 11 5 0
BITMAP
48
00
78
48
84
84
FC
80
84
44
78
ENDCHAR
STARTCHAR 0436
ENCODING 11352
SWIDTH 1600 0
DWIDTH 16 0
BBX 9 9 4 0
BITMAP
8180
9300
9200
5200
7C00
9300
9100
9100
9100
ENDCHAR
STARTCHAR 0437
ENCODING 11353
SWIDTH 1600 0
DWIDTH 16 0
BBX 6 9 5 0
BITMAP
38
44
84
04
18
84
84
44
38
ENDCHAR
STARTCHAR 0438
ENCODING 11354
SWIDTH 1600 0
DWIDTH 16 0
BBX 6 9 5 -1
BITMAP
84
8C
94
94
A4
C4
C4
84
80
ENDCHAR
STARTCHAR 0439
ENCODING 11355
SWIDTH 1600 0
DWIDTH 16 0
BBX 6 11 5 0
BITMAP
48
70
00
84
8C
94
94
A4
C4
C4
84
ENDCHAR
STARTCHAR 043A
ENCODING 11356
SWIDTH 1600 0
DWIDTH 16 0
BBX 5 8 5 0
BITMAP
88
88
90
F0
88
88
88
88
ENDCHAR
STARTCHAR 043B
ENCODING 11357
SWIDTH 1600 0
DWIDTH 16 0
BBX 7 8 4 0
BITMAP
7E
42
42
42
42
42
42
C2
ENDCHAR
STARTCHAR 043C
ENCODING 11358
SWIDTH 1600 0
DWIDTH 16 0
BBX 8 9 4 0
BITMAP
C3
C5
A5
A5
A5
99
99
99
81
ENDCHAR
STARTCHAR 043D
ENCODING 11359
SWIDTH 1600 0
DWIDTH 16 0
BBX 6 9 5 0
BITMAP
84
84
84
84
FC
84
84
84
84
ENDCHAR
STARTCHAR 043E
ENCODING 11360
SWIDTH 1600 0
DWIDTH 16 0
BBX 6 9 5 0
BITMAP
78
48
84
84
84
84
84
48
38
ENDCHAR
STARTCHAR 043F
ENCODING 11361
SWIDTH 1600 0
DWIDTH 16 0
BBX 6 9 5 0
BITMAP
FC
84
84
84
84
84
84
84
84
ENDCHAR
STARTCHAR 0440
ENCODING 11362
SWIDTH 1600 0
DWIDTH 16 0
BBX 6 10 5 -1
BITMAP
B8
CC
84
84
84
84
CC
B8
80
80
ENDCHAR
STARTCHAR 0441
ENCODING 11363
SWIDTH 1600 0
DWIDTH 16 0
BBX 6 9 5 0
BITMAP
38
44
84
80
80
80
84
44
38
ENDCHAR
STARTCHAR 0442
ENCODING 11364
SWIDTH 1600 0
DWIDTH 16 0
BBX 7 9 4 0
BITMAP
FE
10
10
10
10
10
10
10
10
ENDCHAR
STARTCHAR 0443
ENCODING 11365
SWIDTH 1600 0
DWIDTH 16 0
BBX 5 9 5 -1
BITMAP
80
88
48
50
30
20
20
20
C0
ENDCHAR
STARTCHAR 0444
ENCODING 11366
SWIDTH 1600 0
DWIDTH 16 0
BBX 11 12 2 -1
BITMAP
0400
0400
75C0
CE60
8420
8420
8420
8420
4E60
75C0
0400
0400
ENDCHAR
STARTCHAR 0445
ENCODING 11367
SWIDTH 1600 0
DWIDTH 16 0
BBX 6 8 5 0
BITMAP
88
48
50
20
50
50
88
84
ENDCHAR
STARTCHAR 0446
ENCODING 11368
SWIDTH 1600 0
DWIDTH 16 0
BBX 7 10 4 -1
BITMAP
84
84
84
84
84
84
84
FE
02
02
ENDCHAR
STARTCHAR 0447
ENCODING 11369
SWIDTH 1600 0
DWIDTH 16 0
BBX 5 9 5 0
BITMAP
88
88
88
88
88
78
08
08
08
ENDCHAR
STARTCHAR 0448
ENCODING 11370
SWIDTH 1600 0
DWIDTH 16 0
BBX 8 9 4 0
BITMAP
91
91
91
91
91
91
91
91
FF
ENDCHAR
STARTCHAR 0449
ENCODING 11371
SWIDTH 1600 0
DWIDTH 16 0
BBX 9 10 3 -1
BITMAP
8900
8900
8900
8900
8900
8900
8900
FF80
0080
0080
ENDCHAR
STARTCHAR 044A
ENCODING 11372
SWIDTH 1600 0
DWIDTH 16 0
BBX 6 8 5 0
BITMAP
C0
40
40
7C
44
44
44
78
ENDCHAR
STARTCHAR 044B
ENCODING 11373
SWIDTH 1600 0
DWIDTH 16 0
BBX 7 9 4 0
BITMAP
82
82
82
F2
8A
8A
8A
8A
F2
ENDCHAR
STARTCHAR 044C
ENCODING 11374
SWIDTH 1600 0
DWIDTH 16 0
BBX 5 8 5 0
BITMAP
80
80
80
F8
88
88
88
F0
ENDCHAR
STARTCHAR 044D
ENCODING 11375
SWIDTH 1600 0
DWIDTH 16 0
BBX 6 9 5 0
BITMAP
70
88
84
04
3C
04
04
88
70
ENDCHAR
STARTCHAR 044E
ENCODING 11376
SWIDTH 1600 0
DWIDTH 16 0
BBX 10 9 3 0
BITMAP
8700
8880
9040
9040
F040
9040
9040
8880
8700
ENDCHAR
STARTCHAR 044F
ENCODING 11377
SWIDTH 1600 0
DWIDTH 16 0
BBX 5 9 5 0
BITMAP
78
88
88
88
78
88
88
88
88
ENDCHAR
STARTCHAR AC00
ENCODING 12321
SWIDTH 1600 0
DWIDTH 16 0
BBX 13 14 2 -1
BITMAP
0020
FC20
0220
0220
0220
0220
0238
0420
0820
3020
C020
0020
0020
0020
ENDCHAR
STARTCHAR AC01
ENCODING 12322
SWIDTH 1600 0
DWIDTH 16 0
BBX 13 14 2 -1
BITMAP
F820
0420
0420
0438
0820
1020
E020
0020
0000
7FC0
0020
0020
0020
0020
ENDCHAR
STARTCHAR AC04
ENCODING 12323
SWIDTH 1600 0
DWIDTH 16 0
BBX 13 14 2 -1
BITMAP
F820
0420
0420
0438
0820
3020
C020
0020
0020
4020
4000
4000
4000
3FE0
ENDCHAR
STARTCHAR AC07
ENCODING 12324
SWIDTH 1600 0
DWIDTH 16 0
BBX 13 14 2 -1
BITMAP
F820
0420
0420
0438
0820
3020
C020
0020
0000
7FE0
4000
4000
4000
3FE0
ENDCHAR
STARTCHAR AC08
ENCODING 12325
SWIDTH 1600 0
DWIDTH 16 0
BBX 13 14 2 -1
BITMAP
F820
0420
0420
0438
0820
1020
E020
0000
7FC0
0020
7FE0
4000
4000
3FE0
ENDCHAR
STARTCHAR AC09
ENCODING 12326
SWIDTH 1600 0
DWIDTH 16 0
BBX 13 14 2 -1
BITMAP
F820
0420
0420
0438
0820
1020
E020
0000
FBC0
0820
F820
8020
8020
7820
ENDCHAR
STARTCHAR AC0A
ENCODING 12327
SWIDTH 1600 0
DWIDTH 16 0
BBX 13 14 2 -1
BITMAP
F820
0420
0420
0438
0820
1020
E020
0000
7BE0
0A20
7A20
4220
4220
3BE0
ENDCHAR
STARTCHAR AC10
ENCODING 12328
SWIDTH 1600 0
DWIDTH 16 0
BBX 13 14 2 -1
BITMAP
F820
0420
0420
0438
0820
1020
E020
0020
0000
7FE0
4020
4020
4020
3FE0
ENDCHAR
STARTCHAR AC11
ENCODING 12329
SWIDTH 1600 0
DWIDTH 16 0
BBX 13 14 2 -1
BITMAP
F820
0420
0420
0438
0820
1020
E020
0000
4020
4020
7FE0
4020
4020
3FC0
ENDCHAR
STARTCHAR AC12
ENCODING 12330
SWIDTH 1600 0
DWIDTH 16 0
BBX 13 14 2 -1
BITMAP
F820
0420
0420
0438
0820
1020
E020
0020
8880
8880
F880
8940
8A20
FC10
ENDCHAR
STARTCHAR AC13
ENCODING 12331
SWIDTH 1600 0
DWIDTH 16 0
BBX 13 14 2 -1
BITMAP
F820
0420
0420
0438
0820
1020
E020
0020
0020
0200
0500
0880
3060
4010
ENDCHAR
STARTCHAR AC14
ENCODING 12332
SWIDTH 1600 0
DWIDTH 16 0
BBX 13 14 2 -1
BITMAP
F820
0420
0420
0438
0820
1020
E020
0020
0000
1080
1080
2940
4620
8410
ENDCHAR
STARTCHAR AC15
ENCODING 12333
SWIDTH 1600 0
DWIDTH 16 0
BBX 13 14 2 -1
BITMAP
F820
0420
0420
0438
0820
1020
E020
0020
0000
1F80
6060
4020
6060
1F80
ENDCHAR
STARTCHAR AC16
ENCODING 12334
SWIDTH 1600 0
DWIDTH 16 0
BBX 13 14 2 -1
BITMAP
F820
0420
0420
0438
0820
1020
E020
0020
0000
7FF0
0200
0500
0880
7070
ENDCHAR
STARTCHAR AC17
ENCODING 12335
SWIDTH 1600 0
DWIDTH 16 0
BBX 13 14 2 -1
BITMAP
F820
0420
0420
0438
0820
1020
E020
0000
1FC0
0000
7FF0
0200
0D80
7070
ENDCHAR
STARTCHAR AC19
ENCODING 12336
SWIDTH 1600 0
DWIDTH 16 0
BBX 13 14 2 -1
BITMAP
F820
0420
0420
0438
0820
1020
E020
0000
7FE0
4000
7FE0
4000
4000
3FE0
ENDCHAR
STARTCHAR AC1A
ENCODING 12337
SWIDTH 1600 0
DWIDTH 16 0
BBX 13 14 2 -1
BITMAP
F820
0420
0420
0438
0820
1020
E020
0020
0000
7FE0
1080
1080
1080
7FE0
ENDCHAR
STARTCHAR AC1B
ENCODING 12338
SWIDTH 1600 0
DWIDTH 16 0
BBX 13 14 2 -1
BITMAP
F820
0420
0420
0438
0820
1020
E020
0020
0780
0000
3FF0
0840
1020
0FC0
ENDCHAR
STARTCHAR AC1C
ENCODING 12339
SWIDTH 1600 0
DWIDTH 16 0
BBX 12 14 2 -1
BITMAP
F090
0890
0890
0890
0890
08F0
0890
1090
2090
4090
8090
0090
0090
0090
ENDCHAR
STARTCHAR AC1D
ENCODING 12340
SWIDTH 1600 0
DWIDTH 16 0
BBX 12 14 2 -1
BITMAP
F090
0890
0890
08F0
1090
2090
C090
0090
0000
3FE0
0010
0010
0010
0010
ENDCHAR
STARTCHAR AC20
ENCODING 12341
SWIDTH 1600 0
DWIDTH 16 0
BBX 12 14 2 -1
BITMAP
F090
0890
0890
0890
10F0
2090
C090
0090
0090
2000
2000
2000
2000
1FF0
ENDCHAR
STARTCHAR AC24
ENCODING 12342
SWIDTH 1600 0
DWIDTH 16 0
BBX 12 14 2 -1
BITMAP
F090
0890
0890
08F0
1090
2090
C090
0000
3FE0
0010
3FF0
2000
2000
1FF0
ENDCHAR
STARTCHAR AC2C
ENCODING 12343
SWIDTH 1600 0
DWIDTH 16 0
BBX 12 14 2 -1
BITMAP
F090
0890
0890
08F0
1090
2090
C090
0090
0000
3FF0
2010
2010
2010
1FF0
ENDCHAR
STARTCHAR AC2D
ENCODING 12344
SWIDTH 1600 0
DWIDTH 16 0
BBX 12 14 2 -1
BITMAP
F090
0890
0890
08F0
1090
2090
C090
0000
2010
2010
3FF0
2010
2010
1FE0
ENDCHAR
STARTCHAR AC2F
ENCODING 12345
SWIDTH 1600 0
DWIDTH 16 0
BBX 13 14 2 -1
BITMAP
F090
0890
0890
08F0
1090
2090
C090
0090
0000
0100
0280
0440
1830
2008
ENDCHAR
STARTCHAR AC30
ENCODING 12346
SWIDTH 1600 0
DWIDTH 16 0
BBX 13 14 2 -1
BITMAP
F090
0890
0890
08F0
1090
2090
C090
0090
0000
0840
0840
14A0
2310
4208
ENDCHAR
STARTCHAR AC31
ENCODING 12347
SWIDTH 1600 0
DWIDTH 16 0
BBX 12 14 2 -1
BITMAP
F090
0890
0890
08F0
1090
2090
C090
0090
0000
0FC0
3030
2010
3030
0FC0
ENDCHAR
STARTCHAR AC38
ENCODING 12348
SWIDTH 1600 0
DWIDTH 16 0
BBX 13 14 2 -1
BITMAP
0020
F820
0420
0438
0420
0420
0420
0838
1020
2020
C020
0020
0020
0020
ENDCHAR
STARTCHAR AC39
ENCODING 12349
SWIDTH 1600 0
DWIDTH 16 0
BBX 13 14 2 -1
BITMAP
F820
0420
0438
0420
0820
1038
E020
0020
0000
3FC0
0020
0020
0020
0020
ENDCHAR
STARTCHAR AC3C
ENCODING 12350
SWIDTH 1600 0
DWIDTH 16 0
BBX 13 14 2 -1
BITMAP
F820
0420
0438
0420
0820
1020
E038
0020
0020
2020
2000
2000
2000
1FE0
ENDCHAR
STARTCHAR AC40
ENCODING 12351
SWIDTH 1600 0
DWIDTH 16 0
BBX 13 14 2 -1
BITMAP
F820
0420
0438
0420
0820
1038
E020
0000
7FC0
0020
7FE0
4000
4000
3FE0
ENDCHAR
STARTCHAR AC4B
ENCODING 12352
SWIDTH 1600 0
DWIDTH 16 0
BBX 13 14 2 -1
BITMAP
F820
0420
0420
0438
0820
1020
E038
0020
0020
0200
0500
0880
3060
4010
ENDCHAR
STARTCHAR AC4D
ENCODING 12353
SWIDTH 1600 0
DWIDTH 16 0
BBX 13 14 2 -1
BITMAP
F820
0420
0438
0420
0820
1020
E038
0020
0020
1F80
6060
4020
6060
1F80
ENDCHAR
STARTCHAR AC54
ENCODING 12354
SWIDTH 1600 0
DWIDTH 16 0
BBX 12 14 2 -1
BITMAP
0090
F890
0490
04F0
0490
0490
0490
08F0
1090
2090
C090
0090
0090
0090
ENDCHAR
STARTCHAR AC58
ENCODING 12355
SWIDTH 1600 0
DWIDTH 16 0
BBX 12 14 2 -1
BITMAP
F890
0490
04F0
0490
0890
10F0
E090
0090
0090
2090
2000
2000
2000
1FF0
ENDCHAR
STARTCHAR AC5C
ENCODING 12356
SWIDTH 1600 0
DWIDTH 16 0
BBX 12 14 2 -1
BITMAP
F890
0490
04F0
0490
0890
10F0
E090
0000
3FE0
0010
3FF0
2000
2000
1FF0
ENDCHAR
STARTCHAR AC70
ENCODING 12357
SWIDTH 1600 0
DWIDTH 16 0
BBX 12 14 2 -1
BITMAP
0010
FC10
0210
0210
0210
02F0
0410
0810
1010
2010
C010
0010
0010
0010
ENDCHAR
STARTCHAR AC71
ENCODING 12358
SWIDTH 1600 0
DWIDTH 16 0
BBX 12 14 2 -1
BITMAP
F810
0410
0410
04F0
0810
1010
E010
0010
0000
3FE0
0010
0010
0010
0010
ENDCHAR
STARTCHAR AC74
ENCODING 12359
SWIDTH 1600 0
DWIDTH 16 0
BBX 12 14 2 -1
BITMAP
F810
0410
0410
0410
08F0
1010
E010
0010
0010
2010
2000
2000
2000
1FF0
ENDCHAR
STARTCHAR AC77
ENCODING 12360
SWIDTH 1600 0
DWIDTH 16 0
BBX 12 14 2 -1
BITMAP
F810
0410
0410
0410
08F0
1010
E010
0010
0000
3FF0
2000
2000
2000
1FF0
ENDCHAR
STARTCHAR AC78
ENCODING 12361
SWIDTH 1600 0
DWIDTH 16 0
BBX 12 14 2 -1
BITMAP
F810
0410
0410
04F0
0810
1010
E010
0000
3FE0
0010
3FF0
2000
2000
1FF0
ENDCHAR
STARTCHAR AC7A
ENCODING 12362
SWIDTH 1600 0
DWIDTH 16 0
BBX 12 14 2 -1
BITMAP
F810
0410
0410
04F0
0810
1010
E010
0000
79F0
0910
7910
4110
4110
39F0
ENDCHAR
STARTCHAR AC80
ENCODING 12363
SWIDTH 1600 0
DWIDTH 16 0
BBX 12 14 2 -1
BITMAP
F810
0410
0410
04F0
0810
1010
E010
0010
0000
3FF0
2010
2010
2010
1FF0
ENDCHAR
STARTCHAR AC81
ENCODING 12364
SWIDTH 1600 0
DWIDTH 16 0
BBX 12 14 2 -1
BITMAP
F810
0410
0410
04F0
0810
1010
E010
0000
2010
2010
3FF0
2010
2010
1FE0
ENDCHAR
STARTCHAR AC83
ENCODING 12365
SWIDTH 1600 0
DWIDTH 16 0
BBX 12 14 2 -1
BITMAP
F810
0410
0410
04F0
0810
1010
E010
0010
0010
0200
0500
0880
3060
4010
ENDCHAR
STARTCHAR AC84
ENCODING 12366
SWIDTH 1600 0
DWIDTH 16 0
BBX 13 14 2 -1
BITMAP
F810
0410
0410
04F0
0810
1010
E010
0010
0000
0840
0840
14A0
2310
4208
ENDCHAR
STARTCHAR AC85
ENCODING 12367
SWIDTH 1600 0
DWIDTH 16 0
BBX 12 14 2 -1
BITMAP
F810
0410
0410
04F0
0810
1010
E010
0010
0000
0FC0
3030
2010
3030
0FC0
ENDCHAR
STARTCHAR AC86
ENCODING 12368
SWIDTH 1600 0
DWIDTH 16 0
BBX 12 14 2 -1
BITMAP
F810
0410
0410
0410
08F0
1010
E010
0010
0000
7FF0
0200
0500
18C0
6030
ENDCHAR
STARTCHAR AC89
ENCODING 12369
SWIDTH 1600 0
DWIDTH 16 0
BBX 12 14 2 -1
BITMAP
F810
0410
0410
0410
08F0
1010
E010
0000
3FF0
2000
3FF0
2000
2000
1FF0
ENDCHAR
STARTCHAR AC8A
ENCODING 12370
SWIDTH 1600 0
DWIDTH 16 0
BBX 12 14 2 -1
BITMAP
F810
0410
0410
0410
08F0
1010
E010
0010
0000
3FF0
0840
0840
0840
3FF0
ENDCHAR
STARTCHAR AC8B
ENCODING 12371
SWIDTH 1600 0
DWIDTH 16 0
BBX 13 14 2 -1
BITMAP
F810
0410
0410
04F0
0810
1010
E010
0000
07C0
0000
3FF8
0820
1010
0FE0
ENDCHAR
STARTCHAR AC8C
ENCODING 12372
SWIDTH 1600 0
DWIDTH 16 0
BBX 12 14 2 -1
BITMAP
0090
F090
0890
0890
0890
0B90
0890
1090
2090
4090
8090
0090
0090
0090
ENDCHAR
STARTCHAR AC90
ENCODING 12373
SWIDTH 1600 0
DWIDTH 16 0
BBX 12 14 2 -1
BITMAP
F090
0890
0890
0890
0B90
1090
2090
C090
0090
0090
2000
2000
2000
1FF0
ENDCHAR
STARTCHAR AC94
ENCODING 12374
SWIDTH 1600 0
DWIDTH 16 0
BBX 12 14 2 -1
BITMAP
F090
0890
0890
0B90
1090
2090
C090
0000
3FE0
0010
3FF0
2000
2000
1FF0
ENDCHAR
STARTCHAR AC9C
ENCODING 12375
SWIDTH 1600 0
DWIDTH 16 0
BBX 12 14 2 -1
BITMAP
F090
0890
0890
0B90
1090
2090
C090
0090
0000
3FF0
2010
2010
2010
1FF0
ENDCHAR
STARTCHAR AC9D
ENCODING 12376
SWIDTH 1600 0
DWIDTH 16 0
BBX 12 14 2 -1
BITMAP
F090
0890
0890
0B90
1090
2090
C090
0000
2010
2010
3FF0
2010
2010
1FE0
ENDCHAR
STARTCHAR AC9F
ENCODING 12377
SWIDTH 1600 0
DWIDTH 16 0
BBX 12 14 2 -1
BITMAP
F090
0890
0890
0B90
1090
2090
C090
0090
0000
0200
0500
0880
3060
4010
ENDCHAR
STARTCHAR ACA0
ENCODING 12378
SWIDTH 1600 0
DWIDTH 16 0
BBX 13 14 2 -1
BITMAP
F090
0890
0890
0B90
1090
2090
C090
0090
0000
0840
0840
14A0
2310
4208
ENDCHAR
STARTCHAR ACA1
ENCODING 12379
SWIDTH 1600 0
DWIDTH 16 0
BBX 12 14 2 -1
BITMAP
F090
0890
0890
0B90
1090
2090
C090
0090
0000
1FC0
6030
4010
6030
1FC0
ENDCHAR
STARTCHAR ACA8
ENCODING 12380
SWIDTH 1600 0
DWIDTH 16 0
BBX 12 14 2 -1
BITMAP
0010
F810
0410
04F0
0410
0410
0410
08F0
1010
2010
C010
0010
0010
0010
ENDCHAR
STARTCHAR ACA9
ENCODING 12381
SWIDTH 1600 0
DWIDTH 16 0
BBX 12 14 2 -1
BITMAP
FC10
0210
02F0
0210
0410
18F0
E010
0010
0000
7FE0
0010
0010
0010
0010
ENDCHAR
STARTCHAR ACAA
ENCODING 12382
SWIDTH 1600 0
DWIDTH 16 0
BBX 12 14 2 -1
BITMAP
FC10
0210
02F0
0210
0410
18F0
E010
0010
0000
79E0
0410
0410
0410
0410
ENDCHAR
STARTCHAR ACAC
ENCODING 12383
SWIDTH 1600 0
DWIDTH 16 0
BBX 12 14 2 -1
BITMAP
FC10
0210
02F0
0210
0410
18F0
E010
0010
0010
2010
2000
2000
2000
1FF0
ENDCHAR
STARTCHAR ACAF
ENCODING 12384
SWIDTH 1600 0
DWIDTH 16 0
BBX 12 14 2 -1
BITMAP
FC10
0210
02F0
0210
0410
18F0
E010
0010
0000
3FF0
2000
2000
2000
1FF0
ENDCHAR
STARTCHAR ACB0
ENCODING 12385
SWIDTH 1600 0
DWIDTH 16 0
BBX 12 14 2 -1
BITMAP
FC10
0210
02F0
0210
0410
18F0
E010
0000
3FE0
0010
3FF0
2000
2000
1FF0
ENDCHAR
STARTCHAR ACB8
ENCODING 12386
SWIDTH 1600 0
DWIDTH 16 0
BBX 12 14 2 -1
BITMAP
FC10
0210
02F0
0210
0410
18F0
E010
0010
0000
3FF0
2010
2010
2010
1FF0
ENDCHAR
STARTCHAR ACB9
ENCODING 12387
SWIDTH 1600 0
DWIDTH 16 0
BBX 12 14 2 -1
BITMAP
FC10
0210
02F0
0210
0410
18F0
E010
0000
2010
2010
3FF0
2010
2010
1FE0
ENDCHAR
STARTCHAR ACBB
ENCODING 12388
SWIDTH 1600 0
DWIDTH 16 0
BBX 12 14 2 -1
BITMAP
FC10
0210
02F0
0210
0410
18F0
E010
0010
0010
0200
0500
0880
3060
4010
ENDCHAR
STARTCHAR ACBC
ENCODING 12389
SWIDTH 1600 0
DWIDTH 16 0
BBX 13 14 2 -1
BITMAP
FC10
0210
02F0
0210
0410
18F0
E010
0010
0010
0840
0840
14A0
2310
4208
ENDCHAR
STARTCHAR ACBD
ENCODING 12390
SWIDTH 1600 0
DWIDTH 16 0
BBX 12 14 2 -1
BITMAP
FC10
0210
02F0
0210
0410
18F0
E010
0010
0000
0FC0
3030
2010
3030
0FC0
ENDCHAR
STARTCHAR ACC1
ENCODING 12391
SWIDTH 1600 0
DWIDTH 16 0
BBX 12 14 2 -1
BITMAP
FC10
0210
02F0
0210
0410
18F0
E010
0000
3FF0
2000
3FF0
2000
2000
1FF0
ENDCHAR
STARTCHAR ACC4
ENCODING 12392
SWIDTH 1600 0
DWIDTH 16 0
BBX 12 14 2 -1
BITMAP
F090
0890
0890
0B90
0890
0890
0890
1090
2790
4090
8090
0090
0090
0090
ENDCHAR
STARTCHAR ACC8
ENCODING 12393
SWIDTH 1600 0
DWIDTH 16 0
BBX 12 14 2 -1
BITMAP
F090
0890
0B90
0890
0890
1090
2390
C090
0090
2090
2000
2000
2000
1FF0
ENDCHAR
STARTCHAR ACCC
ENCODING 12394
SWIDTH 1600 0
DWIDTH 16 0
BBX 12 14 2 -1
BITMAP
F090
0890
0B90
0890
1390
2090
C090
0000
3FE0
0010
3FF0
2000
2000
1FF0
ENDCHAR
STARTCHAR ACD5
ENCODING 12395
SWIDTH 1600 0
DWIDTH 16 0
BBX 12 14 2 -1
BITMAP
F090
0B90
0890
0890
1390
2090
C090
0000
2010
2010
3FF0
2010
2010
1FE0
ENDCHAR
STARTCHAR ACD7
ENCODING 12396
SWIDTH 1600 0
DWIDTH 16 0
BBX 12 14 2 -1
BITMAP
F090
0890
0B90
0890
0890
1390
2090
C090
0090
0200
0500
0880
3060
4010
ENDCHAR
STARTCHAR ACE0
ENCODING 12397
SWIDTH 1600 0
DWIDTH 16 0
BBX 13 13 2 0
BITMAP
7FE0
0010
0010
0010
0010
0010
0410
0410
0420
0440
0400
0400
FFF8
ENDCHAR
STARTCHAR ACE1
ENCODING 12398
SWIDTH 1600 0
DWIDTH 16 0
BBX 12 14 2 -1
BITMAP
7FC0
0020
0020
0420
0440
0400
FFF0
0000
0000
7FC0
0020
0020
0020
0020
ENDCHAR
STARTCHAR ACE4
ENCODING 12399
SWIDTH 1600 0
DWIDTH 16 0
BBX 12 14 2 -1
BITMAP
7FC0
0020
0020
0420
0440
0400
FFF0
0000
0000
4000
4000
4000
4000
3FE0
ENDCHAR
STARTCHAR ACE7
ENCODING 12400
SWIDTH 1600 0
DWIDTH 16 0
BBX 12 14 2 -1
BITMAP
7FC0
0020
0020
0420
0440
0400
FFF0
0000
0000
7FE0
4000
4000
4000
3FE0
ENDCHAR
STARTCHAR ACE8
ENCODING 12401
SWIDTH 1600 0
DWIDTH 16 0
BBX 12 14 2 -1
BITMAP
7FC0
0020
0020
0420
0440
0400
FFF0
0000
7FC0
0020
7FE0
4000
4000
3FE0
ENDCHAR
STARTCHAR ACEA
ENCODING 12402
SWIDTH 1600 0
DWIDTH 16 0
BBX 12 14 2 -1
BITMAP
7FC0
0020
0020
0420
0440
0400
FFF0
0000
79E0
0920
7920
4120
4120
39E0
ENDCHAR
STARTCHAR ACEC
ENCODING 12403
SWIDTH 1600 0
DWIDTH 16 0
BBX 12 14 2 -1
BITMAP
7FC0
0020
0020
0420
0440
0400
FFF0
0000
7880
0880
7880
40C0
4120
3A10
ENDCHAR
STARTCHAR ACEF
ENCODING 12404
SWIDTH 1600 0
DWIDTH 16 0
BBX 13 14 2 -1
BITMAP
7FC0
0020
0020
0420
0440
0400
FFF8
0000
78C0
0BF0
7800
41E0
4210
39E0
ENDCHAR
STARTCHAR ACF0
ENCODING 12405
SWIDTH 1600 0
DWIDTH 16 0
BBX 12 14 2 -1
BITMAP
7FC0
0020
0020
0420
0440
0400
FFF0
0000
0000
7FE0
4020
4020
4020
3FE0
ENDCHAR
STARTCHAR ACF1
ENCODING 12406
SWIDTH 1600 0
DWIDTH 16 0
BBX 12 14 2 -1
BITMAP
7FC0
0020
0020
0420
0440
0400
FFF0
0000
4020
4020
7FE0
4020
4020
3FC0
ENDCHAR
STARTCHAR ACF3
ENCODING 12407
SWIDTH 1600 0
DWIDTH 16 0
BBX 12 14 2 -1
BITMAP
7FC0
0020
0020
0420
0440
0400
FFF0
0000
0000
0400
0A00
1100
60C0
8030
ENDCHAR
STARTCHAR ACF5
ENCODING 12408
SWIDTH 1600 0
DWIDTH 16 0
BBX 12 14 2 -1
BITMAP
7FC0
0020
0020
0420
0440
0400
FFF0
0000
0000
1F80
6060
4020
6060
1F80
ENDCHAR
STARTCHAR ACF6
ENCODING 12409
SWIDTH 1600 0
DWIDTH 16 0
BBX 12 14 2 -1
BITMAP
7FC0
0020
0020
0420
0440
0400
FFF0
0000
0000
7FE0
0400
0A00
1180
6060
ENDCHAR
STARTCHAR ACFC
ENCODING 12410
SWIDTH 1600 0
DWIDTH 16 0
BBX 14 14 1 -1
BITMAP
7E10
0110
0110
0110
0110
1110
111C
1210
1010
1090
FF10
0010
0010
0010
ENDCHAR
STARTCHAR ACFD
ENCODING 12411
SWIDTH 1600 0
DWIDTH 16 0
BBX 14 14 1 -1
BITMAP
7E10
0110
0110
1110
121C
1090
FF10
0010
0000
3FE0
0010
0010
0010
0010
ENDCHAR
STARTCHAR AD00
ENCODING 12412
SWIDTH 1600 0
DWIDTH 16 0
BBX 14 14 1 -1
BITMAP
7E10
0110
0110
1110
1210
109C
FF10
0010
0010
2010
2000
2000
2000
1FF0
ENDCHAR
STARTCHAR AD04
ENCODING 12413
SWIDTH 1600 0
DWIDTH 16 0
BBX 14 14 1 -1
BITMAP
7E10
0110
0110
111C
1210
1090
FF10
0000
3FE0
0010
3FF0
2000
2000
1FF0
ENDCHAR
STARTCHAR AD06
ENCODING 12414
SWIDTH 1600 0
DWIDTH 16 0
BBX 14 14 1 -1
BITMAP
7E10
0110
1110
111C
1210
1050
FF90
0000
79F0
0910
7910
4110
4110
39F0
ENDCHAR
STARTCHAR AD0C
ENCODING 12577
SWIDTH 1600 0
DWIDTH 16 0
BBX 14 14 1 -1
BITMAP
7E10
0110
0110
111C
1210
1050
FF90
0010
0000
3FF0
2010
2010
2010
1FF0
ENDCHAR
STARTCHAR AD0D
ENCODING 12578
SWIDTH 1600 0
DWIDTH 16 0
BBX 14 14 1 -1
BITMAP
7E10
0110
0110
111C
1210
1050
FF90
0000
2010
2010
3FF0
2010
2010
1FE0
ENDCHAR
STARTCHAR AD0F
ENCODING 12579
SWIDTH 1600 0
DWIDTH 16 0
BBX 14 14 1 -1
BITMAP
7E10
0110
0110
111C
1210
1050
FF90
0010
0000
0100
0280
0440
1830
2008
ENDCHAR
STARTCHAR AD11
ENCODING 12580
SWIDTH 1600 0
DWIDTH 16 0
BBX 14 14 1 -1
BITMAP
7E10
0110
0110
111C
1210
1050
FF90
0010
0000
0FC0
3030
2010
3030
0FC0
ENDCHAR
STARTCHAR AD18
ENCODING 12581
SWIDTH 1600 0
DWIDTH 16 0
BBX 12 14 2 -1
BITMAP
7890
0490
0490
0490
0490
0490
24F0
2490
2890
2090
2090
FE90
0090
0090
ENDCHAR
STARTCHAR AD1C
ENCODING 12582
SWIDTH 1600 0
DWIDTH 16 0
BBX 12 14 2 -1
BITMAP
7890
0490
0490
2490
28F0
2090
FE90
0090
0090
2090
2000
2000
2000
1FF0
ENDCHAR
STARTCHAR AD20
ENCODING 12583
SWIDTH 1600 0
DWIDTH 16 0
BBX 12 14 2 -1
BITMAP
7890
0490
0490
2490
28F0
2090
FE90
0000
3FE0
0010
3FF0
2000
2000
1FF0
ENDCHAR
STARTCHAR AD29
ENCODING 12584
SWIDTH 1600 0
DWIDTH 16 0
BBX 12 14 2 -1
BITMAP
7890
0490
0490
2490
28F0
2090
FE90
0000
2010
2010
3FF0
2010
2010
1FE0
ENDCHAR
STARTCHAR AD2C
ENCODING 12585
SWIDTH 1600 0
DWIDTH 16 0
BBX 13 14 2 -1
BITMAP
7890
0490
0490
2490
28F0
2090
FE90
0090
0000
0840
0840
14A0
2310
4208
ENDCHAR
STARTCHAR AD2D
ENCODING 12586
SWIDTH 1600 0
DWIDTH 16 0
BBX 12 14 2 -1
BITMAP
7890
0490
0490
2490
28F0
2090
FE90
0090
0000
0FC0
3030
2010
3030
0FC0
ENDCHAR
STARTCHAR AD34
ENCODING 12587
SWIDTH 1600 0
DWIDTH 16 0
BBX 12 14 2 -1
BITMAP
7E10
0110
0110
0110
0110
0110
1110
1210
1010
1010
1050
FF90
0010
0010
ENDCHAR
STARTCHAR AD35
ENCODING 12588
SWIDTH 1600 0
DWIDTH 16 0
BBX 12 14 2 -1
BITMAP
7E10
0110
0110
1110
1210
1050
FF90
0010
0000
3FE0
0010
0010
0010
0010
ENDCHAR
STARTCHAR AD38
ENCODING 12589
SWIDTH 1600 0
DWIDTH 16 0
BBX 12 14 2 -1
BITMAP
7E10
0110
0110
1110
1210
1050
FF90
0010
0010
2010
2000
2000
2000
1FF0
ENDCHAR
STARTCHAR AD3C
ENCODING 12590
SWIDTH 1600 0
DWIDTH 16 0
BBX 12 14 2 -1
BITMAP
7E10
0110
0110
1110
1210
1050
FF90
0000
3FE0
0010
3FF0
2000
2000
1FF0
ENDCHAR
STARTCHAR AD44
ENCODING 12591
SWIDTH 1600 0
DWIDTH 16 0
BBX 12 14 2 -1
BITMAP
7E10
0110
0110
1110
1210
1050
FF90
0010
0000
3FF0
2010
2010
2010
1FF0
ENDCHAR
STARTCHAR AD45
ENCODING 12592
SWIDTH 1600 0
DWIDTH 16 0
BBX 12 14 2 -1
BITMAP
7E10
0110
0110
1110
1210
1050
FF90
0000
2010
2010
3FF0
2010
2010
1FE0
ENDCHAR
STARTCHAR AD47
ENCODING 12593
SWIDTH 1600 0
DWIDTH 16 0
BBX 12 14 2 -1
BITMAP
7E10
0110
0110
1110
1210
1050
FF90
0010
0010
0210
0500
0880
3060
4010
ENDCHAR
STARTCHAR AD49
ENCODING 12594
SWIDTH 1600 0
DWIDTH 16 0
BBX 12 14 2 -1
BITMAP
7E10
0110
0110
1110
1210
1050
FF90
0010
0000
0FC0
3030
2010
3030
0FC0
ENDCHAR
STARTCHAR AD50
ENCODING 12595
SWIDTH 1600 0
DWIDTH 16 0
BBX 13 13 1 0
BITMAP
7FE0
0010
0010
0010
0010
0010
1090
1090
1090
10A0
1080
1080
FFF8
ENDCHAR
STARTCHAR AD54
ENCODING 12596
SWIDTH 1600 0
DWIDTH 16 0
BBX 13 14 1 -1
BITMAP
7FE0
0010
0010
0890
08A0
0880
FFF8
0000
0000
4000
4000
4000
4000
3FF0
ENDCHAR
STARTCHAR AD58
ENCODING 12597
SWIDTH 1600 0
DWIDTH 16 0
BBX 13 14 1 -1
BITMAP
7FE0
0010
0010
0890
08A0
0880
FFF8
0000
7FE0
0010
7FF0
4000
4000
3FF0
ENDCHAR
STARTCHAR AD61
ENCODING 12598
SWIDTH 1600 0
DWIDTH 16 0
BBX 14 14 1 -1
BITMAP
7FE0
0010
0010
0890
08A0
0880
FFFC
0000
4010
4010
7FF0
4010
4010
3FE0
ENDCHAR
STARTCHAR AD63
ENCODING 12599
SWIDTH 1600 0
DWIDTH 16 0
BBX 13 14 1 -1
BITMAP
7FE0
0010
0010
0890
08A0
0880
FFF8
0000
0000
0200
0500
0880
3060
4010
ENDCHAR
STARTCHAR AD6C
ENCODING 12600
SWIDTH 1600 0
DWIDTH 16 0
BBX 13 14 1 -1
BITMAP
7FE0
0010
0010
0010
0010
0020
0000
FFF8
0200
0200
0200
0200
0200
0200
ENDCHAR
STARTCHAR AD6D
ENCODING 12601
SWIDTH 1600 0
DWIDTH 16 0
BBX 13 14 1 -1
BITMAP
7FE0
0010
0010
0020
0000
FFF8
0200
0200
0000
7FE0
0010
0010
0010
0010
ENDCHAR
STARTCHAR AD70
ENCODING 12602
SWIDTH 1600 0
DWIDTH 16 0
BBX 13 14 1 -1
BITMAP
7FE0
0010
0010
0020
0000
FFF8
0200
0200
0200
4200
4000
4000
4000
3FF0
ENDCHAR
STARTCHAR AD73
ENCODING 12603
SWIDTH 1600 0
DWIDTH 16 0
BBX 13 14 1 -1
BITMAP
7FE0
0010
0010
0020
0000
FFF8
0200
0200
0000
7FF0
4000
4000
4000
3FF0
ENDCHAR
STARTCHAR AD74
ENCODING 12604
SWIDTH 1600 0
DWIDTH 16 0
BBX 13 14 1 -1
BITMAP
7FE0
0010
0010
0020
0000
FFF8
0200
0200
7FE0
0010
7FF0
4000
4000
3FF0
ENDCHAR
STARTCHAR AD75
ENCODING 12605
SWIDTH 1600 0
DWIDTH 16 0
BBX 13 14 1 -1
BITMAP
7FE0
0010
0010
0020
0000
FFF8
0200
0200
7DE0
0410
7C10
4010
4010
3C10
ENDCHAR
STARTCHAR AD76
ENCODING 12606
SWIDTH 1600 0
DWIDTH 16 0
BBX 13 14 1 -1
BITMAP
7FE0
0010
0010
0020
0000
FFF8
0200
0200
7DF0
0510
7D10
4110
4110
3DF0
ENDCHAR
STARTCHAR AD7B
ENCODING 12607
SWIDTH 1600 0
DWIDTH 16 0
BBX 13 14 1 -1
BITMAP
7FE0
0010
0010
0020
0000
FFF8
0200
0200
7DF0
0400
7FF8
40A0
4110
3CE0
ENDCHAR
STARTCHAR AD7C
ENCODING 12608
SWIDTH 1600 0
DWIDTH 16 0
BBX 13 14 1 -1
BITMAP
7FE0
0010
0010
0020
0000
FFF8
0200
0200
0000
7FF0
4010
4010
4010
3FF0
ENDCHAR
STARTCHAR AD7D
ENCODING 12609
SWIDTH 1600 0
DWIDTH 16 0
BBX 13 14 1 -1
BITMAP
7FE0
0010
0010
0020
0000
FFF8
0200
0200
4010
4010
7FF0
4010
4010
3FE0
ENDCHAR
STARTCHAR AD7F
ENCODING 12610
SWIDTH 1600 0
DWIDTH 16 0
BBX 13 14 1 -1
BITMAP
7FE0
0010
0010
0020
0000
FFF8
0200
0200
0000
0000
0200
0500
18C0
6030
ENDCHAR
STARTCHAR AD81
ENCODING 12611
SWIDTH 1600 0
DWIDTH 16 0
BBX 13 14 1 -1
BITMAP
7FE0
0010
0010
0020
0000
FFF8
0200
0200
0000
1FC0
6030
4010
6030
1FC0
ENDCHAR
STARTCHAR AD82
ENCODING 12612
SWIDTH 1600 0
DWIDTH 16 0
BBX 13 14 1 -1
BITMAP
7FE0
0010
0010
0020
0000
FFF8
0200
0200
0000
7FF0
0200
0500
18C0
6030
ENDCHAR
STARTCHAR AD88
ENCODING 12613
SWIDTH 1600 0
DWIDTH 16 0
BBX 12 14 2 -1
BITMAP
7E10
0110
0110
0110
0110
0210
0050
FF90
0810
09F0
0810
0810
0810
0810
ENDCHAR
STARTCHAR AD89
ENCODING 12614
SWIDTH 1600 0
DWIDTH 16 0
BBX 12 14 2 -1
BITMAP
7E10
0110
0110
0210
FF90
0410
04F0
0410
0000
3FE0
0010
0010
0010
0010
ENDCHAR
STARTCHAR AD8C
ENCODING 12615
SWIDTH 1600 0
DWIDTH 16 0
BBX 12 14 2 -1
BITMAP
7E10
0110
0110
0210
FF90
0410
04F0
0410
2410
2010
2000
2000
2000
1FF0
ENDCHAR
STARTCHAR AD90
ENCODING 12616
SWIDTH 1600 0
DWIDTH 16 0
BBX 12 14 2 -1
BITMAP
7E10
0110
0110
0210
FF90
0410
04F0
0410
3FE0
0010
3FF0
2000
2000
1FF0
ENDCHAR
STARTCHAR AD9C
ENCODING 12617
SWIDTH 1600 0
DWIDTH 16 0
BBX 13 14 2 -1
BITMAP
7E10
0110
0110
0210
FF90
0810
08F0
0810
0000
0840
0840
14A0
2310
4208
ENDCHAR
STARTCHAR AD9D
ENCODING 12618
SWIDTH 1600 0
DWIDTH 16 0
BBX 12 14 2 -1
BITMAP
7E00
0110
0110
0210
FF90
0810
08F0
0810
0000
0FC0
3030
2010
3030
0FC0
ENDCHAR
STARTCHAR ADA4
ENCODING 12619
SWIDTH 1600 0
DWIDTH 16 0
BBX 12 14 2 -1
BITMAP
7890
0490
0490
0490
0490
0890
0190
FE90
1090
1790
1090
1090
1090
1090
ENDCHAR
STARTCHAR ADB7
ENCODING 12620
SWIDTH 1600 0
DWIDTH 16 0
BBX 12 14 2 -1
BITMAP
7C90
0490
0490
0490
0490
FF90
1090
1790
1090
0200
0300
0480
1840
6030
ENDCHAR
STARTCHAR ADC0
ENCODING 12621
SWIDTH 1600 0
DWIDTH 16 0
BBX 12 14 2 -1
BITMAP
7E10
0110
0110
0110
0110
0210
0010
FFD0
0810
0810
0810
0810
0810
1010
ENDCHAR
STARTCHAR ADC1
ENCODING 12622
SWIDTH 1600 0
DWIDTH 16 0
BBX 12 14 2 -1
BITMAP
7E10
0110
0110
0210
0010
FFD0
0810
0810
0000
3FE0
0010
0010
0010
0010
ENDCHAR
STARTCHAR ADC4
ENCODING 12623
SWIDTH 1600 0
DWIDTH 16 0
BBX 12 14 2 -1
BITMAP
7E10
0110
0110
0210
0010
FFD0
0810
0810
0810
2010
2000
2000
2000
1FF0
ENDCHAR
STARTCHAR ADC8
ENCODING 12624
SWIDTH 1600 0
DWIDTH 16 0
BBX 12 14 2 -1
BITMAP
7E10
0110
0110
0210
0010
FFD0
0810
0800
3FE0
0010
3FF0
2000
2000
1FF0
ENDCHAR
STARTCHAR ADD0
ENCODING 12625
SWIDTH 1600 0
DWIDTH 16 0
BBX 12 14 2 -1
BITMAP
7E10
0110
0110
0210
0010
FFD0
0810
0810
0000
3FF0
2010
2010
2010
1FF0
ENDCHAR
STARTCHAR ADD1
ENCODING 12626
SWIDTH 1600 0
DWIDTH 16 0
BBX 12 14 2 -1
BITMAP
7E10
0110
0110
0210
0010
FFD0
0810
0800
2010
2010
3FF0
2010
2010
1FE0
ENDCHAR
STARTCHAR ADD3
ENCODING 12627
SWIDTH 1600 0
DWIDTH 16 0
BBX 12 14 2 -1
BITMAP
7E10
0110
0110
0210
0010
FFD0
0810
0810
0810
0200
0500
0880
3060
4010
ENDCHAR
STARTCHAR ADDC
ENCODING 12628
SWIDTH 1600 0
DWIDTH 16 0
BBX 12 14 2 -1
BITMAP
7FC0
0020
0020
0020
0020
0040
0000
FFF0
1040
1040
1040
1040
1040
1040
ENDCHAR
STARTCHAR ADE0
ENCODING 12629
SWIDTH 1600 0
DWIDTH 16 0
BBX 13 14 1 -1
BITMAP
3FF0
0010
0010
0010
0020
0000
FFF8
0440
0440
0440
2440
2000
2000
1FF8
ENDCHAR
STARTCHAR ADE4
ENCODING 12630
SWIDTH 1600 0
DWIDTH 16 0
BBX 12 14 2 -1
BITMAP
7FC0
0020
0020
0040
0000
FFF0
1080
1080
7FE0
0020
7FE0
4000
4000
3FE0
ENDCHAR
STARTCHAR ADF8
ENCODING 12631
SWIDTH 1600 0
DWIDTH 16 0
BBX 13 12 2 0
BITMAP
7FE0
0010
0010
0010
0010
0010
0010
0010
0020
0000
0000
FFF8
ENDCHAR
STARTCHAR ADF9
ENCODING 12632
SWIDTH 1600 0
DWIDTH 16 0
BBX 13 14 2 -1
BITMAP
7FE0
0010
0010
0010
0010
0000
FFF8
0000
0000
7FE0
0010
0010
0010
0010
ENDCHAR
STARTCHAR ADFC
ENCODING 12633
SWIDTH 1600 0
DWIDTH 16 0
BBX 13 14 2 -1
BITMAP
7FE0
0010
0010
0010
0010
0000
FFF8
0000
4000
4000
4000
4000
4000
3FF0
ENDCHAR
STARTCHAR ADFF
ENCODING 12634
SWIDTH 1600 0
DWIDTH 16 0
BBX 13 14 2 -1
BITMAP
7FE0
0010
0010
0010
0020
0000
FFF8
0000
0000
7FF0
4000
4000
4000
3FF0
ENDCHAR
STARTCHAR AE00
ENCODING 12635
SWIDTH 1600 0
DWIDTH 16 0
BBX 13 14 2 -1
BITMAP
7FE0
0010
0010
0010
0020
0000
FFF8
0000
7FE0
0010
7FF0
4000
4000
3FF0
ENDCHAR
STARTCHAR AE01
ENCODING 12636
SWIDTH 1600 0
DWIDTH 16 0
BBX 13 14 2 -1
BITMAP
7FE0
0010
0010
0010
0020
0000
FFF8
0000
7DF0
0410
7C10
4010
4010
3C10
ENDCHAR
STARTCHAR AE08
ENCODING 12637
SWIDTH 1600 0
DWIDTH 16 0
BBX 13 14 2 -1
BITMAP
7FE0
0010
0010
0010
0020
0000
FFF8
0000
0000
7FF0
4010
4010
4010
3FF0
ENDCHAR
STARTCHAR AE09
ENCODING 12638
SWIDTH 1600 0
DWIDTH 16 0
BBX 13 14 2 -1
BITMAP
7FE0
0010
0010
0010
0020
0000
FFF8
0000
4010
4010
7FF0
4010
4010
3FE0
ENDCHAR
STARTCHAR AE0B
ENCODING 12639
SWIDTH 1600 0
DWIDTH 16 0
BBX 13 14 2 -1
BITMAP
7FE0
0010
0010
0010
0020
0000
FFF8
0000
0000
0100
0280
0480
1860
6018
ENDCHAR
STARTCHAR AE0D
ENCODING 12640
SWIDTH 1600 0
DWIDTH 16 0
BBX 13 14 2 -1
BITMAP
7FE0
0010
0010
0010
0020
0000
FFF8
0000
0000
1FC0
6030
4010
6030
1FC0
ENDCHAR
STARTCHAR AE14
ENCODING 12641
SWIDTH 1600 0
DWIDTH 16 0
BBX 12 14 2 -1
BITMAP
7F10
0110
0110
0110
0110
0110
0110
0110
0110
0110
FFF0
0010
0010
0010
ENDCHAR
STARTCHAR AE30
ENCODING 12642
SWIDTH 1600 0
DWIDTH 16 0
BBX 12 14 2 -1
BITMAP
0010
FC10
0210
0210
0210
0210
0210
0410
0810
3010
C010
0010
0010
0010
ENDCHAR
STARTCHAR AE31
ENCODING 12643
SWIDTH 1600 0
DWIDTH 16 0
BBX 12 14 2 -1
BITMAP
FC10
0210
0210
0210
0410
1810
E010
0010
0000
3FE0
0010
0010
0010
0010
ENDCHAR
STARTCHAR AE34
ENCODING 12644
SWIDTH 1600 0
DWIDTH 16 0
BBX 12 14 2 -1
BITMAP
FC10
0210
0210
0210
0410
1810
E010
0010
0010
2010
2000
2000
2000
1FF0
ENDCHAR
STARTCHAR AE37
ENCODING 12645
SWIDTH 1600 0
DWIDTH 16 0
BBX 12 14 2 -1
BITMAP
FC10
0210
0210
0210
0410
1810
E010
0010
0000
3FF0
2000
2000
2000
1FF0
ENDCHAR
STARTCHAR AE38
ENCODING 12646
SWIDTH 1600 0
DWIDTH 16 0
BBX 12 14 2 -1
BITMAP
FC10
0210
0210
0210
0410
1810
E010
0000
3FF0
0010
3FF0
2000
2000
1FF0
ENDCHAR
STARTCHAR AE3A
ENCODING 12647
SWIDTH 1600 0
DWIDTH 16 0
BBX 12 14 2 -1
BITMAP
FC10
0210
0210
0210
0410
1810
E010
0000
3CF0
0490
3C90
2090
2090
3CF0
ENDCHAR
STARTCHAR AE40
ENCODING 12648
SWIDTH 1600 0
DWIDTH 16 0
BBX 12 14 2 -1
BITMAP
FC10
0210
0210
0210
0410
1810
E010
0010
0000
3FF0
2010
2010
2010
1FF0
ENDCHAR
STARTCHAR AE41
ENCODING 12649
SWIDTH 1600 0
DWIDTH 16 0
BBX 12 14 2 -1
BITMAP
FC10
0210
0210
0210
0410
1810
E010
0000
2010
2010
3FF0
2010
2010
1FE0
ENDCHAR
STARTCHAR AE43
ENCODING 12650
SWIDTH 1600 0
DWIDTH 16 0
BBX 12 14 2 -1
BITMAP
FC10
0210
0210
0210
0410
1810
E010
0010
0010
0200
0500
0880
3060
4010
ENDCHAR
STARTCHAR AE45
ENCODING 12651
SWIDTH 1600 0
DWIDTH 16 0
BBX 12 14 2 -1
BITMAP
FC10
0210
0210
0210
0410
1810
E010
0010
0000
0FC0
3030
2010
3030
0FC0
ENDCHAR
STARTCHAR AE46
ENCODING 12652
SWIDTH 1600 0
DWIDTH 16 0
BBX 12 14 2 -1
BITMAP
FC10
0210
0210
0210
0410
1810
E010
0000
0000
7FF0
0200
0500
0880
7070
ENDCHAR
STARTCHAR AE4A
ENCODING 12653
SWIDTH 1600 0
DWIDTH 16 0
BBX 12 14 2 -1
BITMAP
FC10
0210
0210
0210
0410
1810
E010
0000
0000
7FF0
1040
1040
1040
7FF0
ENDCHAR
STARTCHAR AE4C
ENCODING 12654
SWIDTH 1600 0
DWIDTH 16 0
BBX 14 14 1 -1
BITMAP
0010
EE10
1110
1110
1110
1110
111C
1110
2110
C210
0410
1810
0010
0010
ENDCHAR
STARTCHAR AE4D
ENCODING 12655
SWIDTH 1600 0
DWIDTH 16 0
BBX 13 14 2 -1
BITMAP
E620
1120
1120
1120
2138
C220
0420
0020
0000
7FC0
0020
0020
0020
0020
ENDCHAR
STARTCHAR AE4E
ENCODING 12656
SWIDTH 1600 0
DWIDTH 16 0
BBX 13 14 2 -1
BITMAP
E620
1120
1120
1138
2120
C220
0420
0000
0000
7BC0
0420
0420
0420
0420
ENDCHAR
STARTCHAR AE50
ENCODING 12657
SWIDTH 1600 0
DWIDTH 16 0
BBX 13 14 2 -1
BITMAP
E620
1120
1120
1120
1120
2138
C220
0420
0020
4020
4000
4000
4000
3FE0
ENDCHAR
STARTCHAR AE54
ENCODING 12658
SWIDTH 1600 0
DWIDTH 16 0
BBX 13 14 2 -1
BITMAP
E620
1120
1120
1138
2120
C220
0420
0000
7FC0
0020
7FE0
4000
4000
3FE0
ENDCHAR
STARTCHAR AE56
ENCODING 12659
SWIDTH 1600 0
DWIDTH 16 0
BBX 13 14 2 -1
BITMAP
E620
1120
1120
1120
2138
C220
0420
0000
79E0
0920
7920
4120
4120
79E0
ENDCHAR
STARTCHAR AE5C
ENCODING 12660
SWIDTH 1600 0
DWIDTH 16 0
BBX 13 14 2 -1
BITMAP
E620
1120
1120
1120
2138
C220
0420
0020
0000
7FE0
4020
4020
4020
3FE0
ENDCHAR
STARTCHAR AE5D
ENCODING 12661
SWIDTH 1600 0
DWIDTH 16 0
BBX 13 14 2 -1
BITMAP
E620
1120
1120
1120
2138
C220
0420
0000
4020
4020
7FE0
4020
4020
3FC0
ENDCHAR
STARTCHAR AE5F
ENCODING 12662
SWIDTH 1600 0
DWIDTH 16 0
BBX 13 14 2 -1
BITMAP
E620
1120
1120
1120
2138
C220
0420
0020
0020
0200
0500
0880
3060
4010
ENDCHAR
STARTCHAR AE60
ENCODING 12663
SWIDTH 1600 0
DWIDTH 16 0
BBX 13 14 2 -1
BITMAP
E620
1120
1120
1120
2138
C220
0420
0020
0000
1080
1080
2940
4620
8410
ENDCHAR
STARTCHAR AE61
ENCODING 12664
SWIDTH 1600 0
DWIDTH 16 0
BBX 13 14 2 -1
BITMAP
E620
1120
1120
1120
2138
C220
0420
0020
0000
1F80
6060
4020
6060
1F80
ENDCHAR
STARTCHAR AE65
ENCODING 12665
SWIDTH 1600 0
DWIDTH 16 0
BBX 13 14 2 -1
BITMAP
E620
1120
1120
1120
2138
C220
0420
0000
7FE0
4000
7FE0
4000
4000
3FE0
ENDCHAR
STARTCHAR AE68
ENCODING 12666
SWIDTH 1600 0
DWIDTH 16 0
BBX 13 14 1 -1
BITMAP
EC48
1248
1248
1248
1248
1248
1278
1248
1248
2248
C448
1848
0048
0048
ENDCHAR
STARTCHAR AE69
ENCODING 12667
SWIDTH 1600 0
DWIDTH 16 0
BBX 13 14 1 -1
BITMAP
EC48
1248
1248
1248
2278
C448
0848
0048
0000
3FF0
0008
0008
0008
0008
ENDCHAR
STARTCHAR AE6C
ENCODING 12668
SWIDTH 1600 0
DWIDTH 16 0
BBX 13 14 1 -1
BITMAP
EC48
1248
1248
1248
2278
C448
0848
0048
0048
2008
2000
2000
2000
1FF8
ENDCHAR
STARTCHAR AE70
ENCODING 12669
SWIDTH 1600 0
DWIDTH 16 0
BBX 13 14 1 -1
BITMAP
EC48
1248
1248
1278
2248
C448
0848
0000
3FF0
0008
3FF8
2000
2000
1FF8
ENDCHAR
STARTCHAR AE78
ENCODING 12670
SWIDTH 1600 0
DWIDTH 16 0
BBX 13 14 1 -1
BITMAP
EC48
1248
1248
1248
2278
C448
0848
0048
0000
3FF8
2008
2008
2008
1FF8
ENDCHAR
STARTCHAR AE79
ENCODING 12833
SWIDTH 1600 0
DWIDTH 16 0
BBX 13 14 1 -1
BITMAP
EC48
1248
1248
1248
2278
C448
0848
0000
2008
2008
3FF8
2008
2008
1FF0
ENDCHAR
STARTCHAR AE7B
ENCODING 12834
SWIDTH 1600 0
DWIDTH 16 0
BBX 13 14 1 -1
BITMAP
EC48
1248
1248
1248
2278
C448
0848
0048
0000
0100
0280
0440
1830
2008
ENDCHAR
STARTCHAR AE7C
ENCODING 12835
SWIDTH 1600 0
DWIDTH 16 0
BBX 14 14 1 -1
BITMAP
EC48
1248
1248
1248
2278
C448
0848
0048
0000
0420
0420
0A50
1188
2104
ENDCHAR
STARTCHAR AE7D
ENCODING 12836
SWIDTH 1600 0
DWIDTH 16 0
BBX 13 14 1 -1
BITMAP
EC48
1248
1248
1248
2278
C448
0848
0048
0000
0FE0
3018
2008
3018
0FE0
ENDCHAR
STARTCHAR AE84
ENCODING 12837
SWIDTH 1600 0
DWIDTH 16 0
BBX 13 14 2 -1
BITMAP
EE20
1120
1120
1138
1120
1120
1120
1120
2138
C220
0420
0020
0020
0020
ENDCHAR
STARTCHAR AE85
ENCODING 12838
SWIDTH 1600 0
DWIDTH 16 0
BBX 13 14 2 -1
BITMAP
EE20
1120
1138
1120
2120
C238
0420
0020
0000
7FC0
0020
0020
0020
0020
ENDCHAR
STARTCHAR AE8C
ENCODING 12839
SWIDTH 1600 0
DWIDTH 16 0
BBX 13 14 2 -1
BITMAP
EE20
1120
1138
1120
2138
C220
0420
0000
7FC0
0020
7FE0
4000
4000
3FE0
ENDCHAR
STARTCHAR AEBC
ENCODING 12840
SWIDTH 1600 0
DWIDTH 16 0
BBX 12 14 2 -1
BITMAP
EE10
1110
1110
1110
1110
1170
1110
1110
1110
2110
C210
0410
0010
0010
ENDCHAR
STARTCHAR AEBD
ENCODING 12841
SWIDTH 1600 0
DWIDTH 16 0
BBX 12 14 2 -1
BITMAP
EE10
1110
1110
1110
2170
C210
0410
0010
0000
3FE0
0010
0010
0010
0010
ENDCHAR
STARTCHAR AEBE
ENCODING 12842
SWIDTH 1600 0
DWIDTH 16 0
BBX 12 14 2 -1
BITMAP
EE10
1110
1110
1110
2170
C210
0410
0010
0000
79E0
0410
0410
0410
0410
ENDCHAR
STARTCHAR AEC0
ENCODING 12843
SWIDTH 1600 0
DWIDTH 16 0
BBX 12 14 2 -1
BITMAP
EE10
1110
1110
1110
2170
C210
0410
0010
0010
2010
2000
2000
2000
1FF0
ENDCHAR
STARTCHAR AEC4
ENCODING 12844
SWIDTH 1600 0
DWIDTH 16 0
BBX 12 14 2 -1
BITMAP
EE10
1110
1110
1110
2170
C210
0410
0000
3FE0
0010
3FF0
2000
2000
1FF0
ENDCHAR
STARTCHAR AECC
ENCODING 12845
SWIDTH 1600 0
DWIDTH 16 0
BBX 12 14 2 -1
BITMAP
EE10
1110
1110
1110
2170
C210
0410
0010
0000
3FF0
2010
2010
2010
1FF0
ENDCHAR
STARTCHAR AECD
ENCODING 12846
SWIDTH 1600 0
DWIDTH 16 0
BBX 12 14 2 -1
BITMAP
EE10
1110
1110
1110
2170
C210
0410
0000
2010
2010
3FF0
2010
2010
1FE0
ENDCHAR
STARTCHAR AECF
ENCODING 12847
SWIDTH 1600 0
DWIDTH 16 0
BBX 13 14 2 -1
BITMAP
EE10
1110
1110
1110
2170
C210
0410
0010
0010
0100
0280
0440
1830
2008
ENDCHAR
STARTCHAR AED0
ENCODING 12848
SWIDTH 1600 0
DWIDTH 16 0
BBX 13 14 2 -1
BITMAP
EE10
1110
1110
1110
2170
C210
0410
0010
0010
0840
0840
14A0
2310
4208
ENDCHAR
STARTCHAR AED1
ENCODING 12849
SWIDTH 1600 0
DWIDTH 16 0
BBX 12 14 2 -1
BITMAP
EE10
1110
1110
1110
2170
C210
0410
0010
0000
0FC0
3030
2010
3030
0FC0
ENDCHAR
STARTCHAR AED8
ENCODING 12850
SWIDTH 1600 0
DWIDTH 16 0
BBX 12 14 2 -1
BITMAP
D890
2490
2490
2490
2490
2790
2490
2490
4490
8890
1090
0090
0090
0090
ENDCHAR
STARTCHAR AED9
ENCODING 12851
SWIDTH 1600 0
DWIDTH 16 0
BBX 13 14 1 -1
BITMAP
EC48
1248
1248
1248
23C8
C448
0848
0048
0000
3FF0
0008
0008
0008
0008
ENDCHAR
STARTCHAR AEDC
ENCODING 12852
SWIDTH 1600 0
DWIDTH 16 0
BBX 13 14 1 -1
BITMAP
EC48
1248
1248
1248
23C8
C448
0848
0048
0048
2048
2000
2000
2000
1FF8
ENDCHAR
STARTCHAR AEE8
ENCODING 12853
SWIDTH 1600 0
DWIDTH 16 0
BBX 13 14 1 -1
BITMAP
EC48
1248
1248
1248
23C8
C448
0848
0048
0000
3FF8
2008
2008
2008
1FF8
ENDCHAR
STARTCHAR AEEB
ENCODING 12854
SWIDTH 1600 0
DWIDTH 16 0
BBX 13 14 1 -1
BITMAP
EC48
1248
1248
1248
23C8
C448
0848
0048
0048
0100
0280
0440
1830
2008
ENDCHAR
STARTCHAR AEED
ENCODING 12855
SWIDTH 1600 0
DWIDTH 16 0
BBX 13 14 1 -1
BITMAP
EC48
1248
1248
1248
23C8
C448
0848
0048
0000
0FE0
3018
2008
3018
0FE0
ENDCHAR
STARTCHAR AEF4
ENCODING 12856
SWIDTH 1600 0
DWIDTH 16 0
BBX 12 15 2 -1
BITMAP
0010
EE10
1110
1110
1170
1110
1110
1110
1170
2110
4210
8410
0810
0010
0010
ENDCHAR
STARTCHAR AEF8
ENCODING 12857
SWIDTH 1600 0
DWIDTH 16 0
BBX 12 14 2 -1
BITMAP
EE10
1110
1170
1110
2110
C270
0C10
0010
0010
2010
2000
2000
2000
1FF0
ENDCHAR
STARTCHAR AEFC
ENCODING 12858
SWIDTH 1600 0
DWIDTH 16 0
BBX 12 14 2 -1
BITMAP
EE10
1110
1170
1110
2110
C270
0C10
0000
3FE0
0010
3FF0
2000
2000
1FF0
ENDCHAR
STARTCHAR AF07
ENCODING 12859
SWIDTH 1600 0
DWIDTH 16 0
BBX 12 14 2 -1
BITMAP
EE10
1110
1170
1110
2110
C270
0C10
0010
0010
0210
0500
0880
3060
4010
ENDCHAR
STARTCHAR AF08
ENCODING 12860
SWIDTH 1600 0
DWIDTH 16 0
BBX 13 13 2 0
BITMAP
EE10
1110
1170
1110
2110
C270
0C10
0010
0850
0840
14A0
2310
4208
ENDCHAR
STARTCHAR AF0D
ENCODING 12861
SWIDTH 1600 0
DWIDTH 16 0
BBX 12 14 2 -1
BITMAP
EE10
1110
1170
1110
2110
C270
0C10
0000
3FF0
2000
3FF0
2000
2000
1FF0
ENDCHAR
STARTCHAR AF10
ENCODING 12862
SWIDTH 1600 0
DWIDTH 16 0
BBX 12 14 2 -1
BITMAP
D850
2450
2450
2450
25D0
2450
2450
2450
45D0
8850
1050
0050
0050
0050
ENDCHAR
STARTCHAR AF2C
ENCODING 12863
SWIDTH 1600 0
DWIDTH 16 0
BBX 13 13 2 0
BITMAP
79E0
0410
0410
0410
0410
0410
0410
0510
0920
1140
0100
0100
FFF8
ENDCHAR
STARTCHAR AF2D
ENCODING 12864
SWIDTH 1600 0
DWIDTH 16 0
BBX 13 14 2 -1
BITMAP
79E0
0410
0410
0510
0920
0100
FFF8
0000
0000
7FE0
0010
0010
0010
0010
ENDCHAR
STARTCHAR AF30
ENCODING 12865
SWIDTH 1600 0
DWIDTH 16 0
BBX 13 14 2 -1
BITMAP
79E0
0410
0410
0510
0920
0100
FFF8
0000
0000
4000
4000
4000
4000
3FF0
ENDCHAR
STARTCHAR AF32
ENCODING 12866
SWIDTH 1600 0
DWIDTH 16 0
BBX 13 14 2 -1
BITMAP
79E0
0410
0410
0510
0920
0100
FFF8
0000
41E0
4000
43F0
4120
4210
3DE0
ENDCHAR
STARTCHAR AF34
ENCODING 12867
SWIDTH 1600 0
DWIDTH 16 0
BBX 13 14 2 -1
BITMAP
79E0
0410
0410
0510
0920
0100
FFF8
0000
3FE0
0010
3FF0
2000
2000
1FF0
ENDCHAR
STARTCHAR AF3C
ENCODING 12868
SWIDTH 1600 0
DWIDTH 16 0
BBX 13 14 2 -1
BITMAP
79E0
0410
0410
0510
0920
0100
FFF8
0000
0000
3FF0
2010
2010
2010
1FF0
ENDCHAR
STARTCHAR AF3D
ENCODING 12869
SWIDTH 1600 0
DWIDTH 16 0
BBX 13 14 2 -1
BITMAP
79E0
0410
0410
0510
0920
0100
FFF8
0000
2010
2010
3FF0
2010
2010
1FE0
ENDCHAR
STARTCHAR AF3F
ENCODING 12870
SWIDTH 1600 0
DWIDTH 16 0
BBX 13 14 2 -1
BITMAP
79E0
0410
0410
0510
0920
0100
FFF8
0000
0000
0100
0100
0280
0C60
7018
ENDCHAR
STARTCHAR AF41
ENCODING 12871
SWIDTH 1600 0
DWIDTH 16 0
BBX 13 14 2 -1
BITMAP
79E0
0410
0410
0510
0920
0100
FFF8
0000
0000
0FC0
3030
2010
3030
0FC0
ENDCHAR
STARTCHAR AF42
ENCODING 12872
SWIDTH 1600 0
DWIDTH 16 0
BBX 13 14 2 -1
BITMAP
79E0
0410
0410
0510
0920
0100
FFF8
0000
0000
3FF8
0100
0280
0C60
3018
ENDCHAR
STARTCHAR AF43
ENCODING 12873
SWIDTH 1600 0
DWIDTH 16 0
BBX 13 14 2 -1
BITMAP
79E0
0410
0410
0510
0920
0100
FFF8
0000
0FE0
0000
3FF8
0100
06C0
3838
ENDCHAR
STARTCHAR AF48
ENCODING 12874
SWIDTH 1600 0
DWIDTH 16 0
BBX 14 14 1 -1
BITMAP
E710
1090
1090
1090
1090
1090
251C
0410
0410
0450
FF90
0010
0010
0010
ENDCHAR
STARTCHAR AF49
ENCODING 12875
SWIDTH 1600 0
DWIDTH 16 0
BBX 14 14 1 -1
BITMAP
E710
1090
1090
1090
251C
0450
FF90
0010
0000
7FE0
0010
0010
0010
0010
ENDCHAR
STARTCHAR AF50
ENCODING 12876
SWIDTH 1600 0
DWIDTH 16 0
BBX 14 14 1 -1
BITMAP
E710
1090
1090
1090
251C
0410
FFD0
0000
3FE0
0010
3FF0
2000
2000
1FF0
ENDCHAR
STARTCHAR AF5C
ENCODING 12877
SWIDTH 1600 0
DWIDTH 16 0
BBX 14 14 1 -1
BITMAP
E710
1090
1090
1090
251C
0450
FF90
0010
0010
0840
0840
14A0
2310
4208
ENDCHAR
STARTCHAR AF5D
ENCODING 12878
SWIDTH 1600 0
DWIDTH 16 0
BBX 14 14 1 -1
BITMAP
E710
1090
1090
1090
251C
0410
0450
FF90
0000
1FC0
6030
4010
6030
1FC0
ENDCHAR
STARTCHAR AF64
ENCODING 12879
SWIDTH 1600 0
DWIDTH 16 0
BBX 13 14 1 -1
BITMAP
CC48
2248
2248
2248
2248
2248
2278
4A48
0848
0948
FE48
0048
0048
0048
ENDCHAR
STARTCHAR AF65
ENCODING 12880
SWIDTH 1600 0
DWIDTH 16 0
BBX 12 14 2 -1
BITMAP
EE90
2290
2290
2290
22F0
0890
0890
FF90
0090
7FF0
0010
0010
0010
0010
ENDCHAR
STARTCHAR AF79
ENCODING 12881
SWIDTH 1600 0
DWIDTH 16 0
BBX 12 14 2 -1
BITMAP
EE90
2290
2290
2290
22F0
0890
0890
FF90
0090
1FC0
6030
4010
6030
1FC0
ENDCHAR
STARTCHAR AF80
ENCODING 12882
SWIDTH 1600 0
DWIDTH 16 0
BBX 12 14 2 -1
BITMAP
E710
1090
1090
1090
1090
1090
1490
2510
0410
0450
FF90
0010
0010
0010
ENDCHAR
STARTCHAR AF84
ENCODING 12883
SWIDTH 1600 0
DWIDTH 16 0
BBX 12 14 2 -1
BITMAP
E710
1090
1090
1090
1490
2510
0450
FF90
0010
2010
2000
2000
2000
1FF0
ENDCHAR
STARTCHAR AF88
ENCODING 12884
SWIDTH 1600 0
DWIDTH 16 0
BBX 12 14 2 -1
BITMAP
E710
1090
1090
1090
2510
0410
FFD0
0000
3FE0
0010
3FF0
2000
2000
1FF0
ENDCHAR
STARTCHAR AF90
ENCODING 12885
SWIDTH 1600 0
DWIDTH 16 0
BBX 12 14 2 -1
BITMAP
E710
1090
1090
1090
2510
0410
FFD0
0010
0000
3FF0
2010
2010
2010
1FF0
ENDCHAR
STARTCHAR AF91
ENCODING 12886
SWIDTH 1600 0
DWIDTH 16 0
BBX 12 14 2 -1
BITMAP
E710
1090
1090
1090
2510
0410
FFD0
0000
2010
2010
3FF0
2010
2010
1FE0
ENDCHAR
STARTCHAR AF95
ENCODING 12887
SWIDTH 1600 0
DWIDTH 16 0
BBX 12 14 2 -1
BITMAP
E710
1090
1090
1090
2510
0410
FFD0
0010
0010
0FC0
3030
2010
3030
0FC0
ENDCHAR
STARTCHAR AF9C
ENCODING 12888
SWIDTH 1600 0
DWIDTH 16 0
BBX 12 12 2 0
BITMAP
F3C0
0820
0820
0820
0820
1020
2920
4940
0900
0900
0900
FFF0
ENDCHAR
STARTCHAR AFB8
ENCODING 12889
SWIDTH 1600 0
DWIDTH 16 0
BBX 12 14 2 -1
BITMAP
F3C0
0820
0820
0820
0820
1040
0000
0000
FFF0
0200
0200
0200
0200
0200
ENDCHAR
STARTCHAR AFB9
ENCODING 12890
SWIDTH 1600 0
DWIDTH 16 0
BBX 12 14 2 -1
BITMAP
F3C0
0820
0820
0820
1040
0000
FFF0
0200
0200
7FC0
0020
0020
0020
0020
ENDCHAR
STARTCHAR AFBC
ENCODING 12891
SWIDTH 1600 0
DWIDTH 16 0
BBX 12 14 2 -1
BITMAP
F3C0
0820
0820
0820
1040
0000
FFF0
0200
0200
4200
4200
4000
4000
3FE0
ENDCHAR
STARTCHAR AFC0
ENCODING 12892
SWIDTH 1600 0
DWIDTH 16 0
BBX 12 14 2 -1
BITMAP
F3C0
0820
0820
0820
1040
0000
FFF0
0200
7FC0
0020
7FE0
4000
4000
3FE0
ENDCHAR
STARTCHAR AFC7
ENCODING 12893
SWIDTH 1600 0
DWIDTH 16 0
BBX 12 14 2 -1
BITMAP
F3C0
0820
0820
0820
1040
0000
FFF0
0200
7AC0
0800
7BF0
4120
4210
3DE0
ENDCHAR
STARTCHAR AFC8
ENCODING 12894
SWIDTH 1600 0
DWIDTH 16 0
BBX 12 14 2 -1
BITMAP
F3C0
0820
0820
0820
1040
0000
FFF0
0200
0200
7FE0
4020
4020
4020
3FE0
ENDCHAR
STARTCHAR AFC9
ENCODING 12895
SWIDTH 1600 0
DWIDTH 16 0
BBX 12 14 2 -1
BITMAP
F3C0
0820
0820
0820
1040
0000
FFF0
0200
4220
4020
7FE0
4020
4020
3FC0
ENDCHAR
STARTCHAR AFCB
ENCODING 12896
SWIDTH 1600 0
DWIDTH 16 0
BBX 12 14 2 -1
BITMAP
F3C0
0820
0820
0820
1040
0000
FFF0
0200
0200
0000
0200
0500
18C0
E030
ENDCHAR
STARTCHAR AFCD
ENCODING 12897
SWIDTH 1600 0
DWIDTH 16 0
BBX 12 14 2 -1
BITMAP
F3C0
0820
0820
0820
1040
0000
FFF0
0200
0200
1F80
6060
4020
6060
1F80
ENDCHAR
STARTCHAR AFCE
ENCODING 12898
SWIDTH 1600 0
DWIDTH 16 0
BBX 13 14 1 -1
BITMAP
7DF0
0410
0410
0410
0410
0410
FFF8
0100
0100
3FF0
0300
0580
1870
6010
ENDCHAR
STARTCHAR AFD4
ENCODING 12899
SWIDTH 1600 0
DWIDTH 16 0
BBX 12 14 2 -1
BITMAP
E710
1090
1090
1090
1090
2110
0050
FF90
0810
09F0
0810
0810
0810
0810
ENDCHAR
STARTCHAR AFDC
ENCODING 12900
SWIDTH 1600 0
DWIDTH 16 0
BBX 12 14 2 -1
BITMAP
E710
1090
1090
2110
FFD0
0810
08F0
0010
7FE0
0010
7FF0
4000
4000
3FF0
ENDCHAR
STARTCHAR AFE8
ENCODING 12901
SWIDTH 1600 0
DWIDTH 16 0
BBX 12 14 2 -1
BITMAP
E710
1090
1090
2110
FF90
0810
08F0
0010
0000
1080
1080
2940
4620
8410
ENDCHAR
STARTCHAR AFE9
ENCODING 12902
SWIDTH 1600 0
DWIDTH 16 0
BBX 12 14 2 -1
BITMAP
E710
1090
1090
2110
FFD0
0810
08F0
0010
0000
1FC0
6030
4010
6030
1FC0
ENDCHAR
STARTCHAR AFF0
ENCODING 12903
SWIDTH 1600 0
DWIDTH 16 0
BBX 13 14 1 -1
BITMAP
6C48
1248
1248
1248
1248
2448
0048
FF48
0848
0BC8
0848
0848
0848
0048
ENDCHAR
STARTCHAR AFF1
ENCODING 12904
SWIDTH 1600 0
DWIDTH 16 0
BBX 13 14 1 -1
BITMAP
6C48
1248
1248
2448
FF48
0848
0BC8
0048
0000
3FF0
0008
0008
0008
0008
ENDCHAR
STARTCHAR AFF4
ENCODING 12905
SWIDTH 1600 0
DWIDTH 16 0
BBX 13 14 1 -1
BITMAP
6C48
1248
1248
2448
FF48
0848
0BC8
0848
0048
2000
2000
2000
2000
1FF8
ENDCHAR
STARTCHAR AFF8
ENCODING 12906
SWIDTH 1600 0
DWIDTH 16 0
BBX 13 14 1 -1
BITMAP
6C48
1248
1248
2448
FFC8
0848
09C8
0000
3FF0
0008
3FF8
2000
2000
1FF8
ENDCHAR
STARTCHAR B000
ENCODING 12907
SWIDTH 1600 0
DWIDTH 16 0
BBX 13 14 1 -1
BITMAP
6C48
1248
1248
2448
FFC8
0848
0BC8
0848
0000
3FF8
2008
2008
2008
1FF8
ENDCHAR
STARTCHAR B001
ENCODING 12908
SWIDTH 1600 0
DWIDTH 16 0
BBX 13 14 1 -1
BITMAP
6648
1148
1148
2248
FFC8
0848
0BC8
0800
2008
2008
3FF8
2008
2008
1FF0
ENDCHAR
STARTCHAR B004
ENCODING 12909
SWIDTH 1600 0
DWIDTH 16 0
BBX 14 14 1 -1
BITMAP
6C48
1248
1248
2448
FF48
0848
0BC8
0848
0000
0420
0420
0A50
1188
2104
ENDCHAR
STARTCHAR B00C
ENCODING 12910
SWIDTH 1600 0
DWIDTH 16 0
BBX 12 14 2 -1
BITMAP
E710
1090
1090
1090
1090
2110
0010
FFD0
0410
0410
0410
0410
0410
0410
ENDCHAR
STARTCHAR B010
ENCODING 12911
SWIDTH 1600 0
DWIDTH 16 0
BBX 12 14 2 -1
BITMAP
EE10
1110
1110
1110
2210
FFD0
0410
0410
0410
2010
2000
2000
2000
1FF0
ENDCHAR
STARTCHAR B014
ENCODING 12912
SWIDTH 1600 0
DWIDTH 16 0
BBX 12 14 2 -1
BITMAP
EE10
1110
1110
1110
2210
FFD0
0410
0400
3FE0
0010
3FF0
2000
2000
1FF0
ENDCHAR
STARTCHAR B01C
ENCODING 12913
SWIDTH 1600 0
DWIDTH 16 0
BBX 12 14 2 -1
BITMAP
EE10
1110
1110
1110
2210
FFD0
0410
0410
0000
3FF0
2010
2010
2010
1FF0
ENDCHAR
STARTCHAR B01D
ENCODING 12914
SWIDTH 1600 0
DWIDTH 16 0
BBX 12 14 2 -1
BITMAP
EE10
1110
1110
1110
2210
FFD0
0410
0400
2010
2010
3FF0
2010
2010
1FE0
ENDCHAR
STARTCHAR B028
ENCODING 12915
SWIDTH 1600 0
DWIDTH 16 0
BBX 12 14 2 -1
BITMAP
F3C0
0820
0820
0820
0820
1040
0000
FFF0
1040
1040
1040
1040
1040
1040
ENDCHAR
STARTCHAR B044
ENCODING 12916
SWIDTH 1600 0
DWIDTH 16 0
BBX 14 13 1 0
BITMAP
79E0
0410
0410
0410
0410
0410
0410
0410
0410
0410
0820
0000
FFFC
ENDCHAR
STARTCHAR B045
ENCODING 12917
SWIDTH 1600 0
DWIDTH 16 0
BBX 13 14 2 -1
BITMAP
79E0
0410
0410
0410
0820
0000
FFF8
0000
0000
3FE0
0010
0010
0010
0010
ENDCHAR
STARTCHAR B048
ENCODING 12918
SWIDTH 1600 0
DWIDTH 16 0
BBX 13 14 2 -1
BITMAP
79E0
0410
0410
0410
0820
0000
FFF8
0000
0000
2000
2000
2000
2000
1FF0
ENDCHAR
STARTCHAR B04A
ENCODING 12919
SWIDTH 1600 0
DWIDTH 16 0
BBX 13 14 2 -1
BITMAP
79E0
0410
0410
0410
0820
0000
FFF8
0000
2060
2000
21F8
2090
2108
1EF0
ENDCHAR
STARTCHAR B04C
ENCODING 12920
SWIDTH 1600 0
DWIDTH 16 0
BBX 13 14 2 -1
BITMAP
79E0
0410
0410
0410
0820
0000
FFF8
0000
3FE0
0010
3FF0
2000
2000
1FF0
ENDCHAR
STARTCHAR B04E
ENCODING 12921
SWIDTH 1600 0
DWIDTH 16 0
BBX 13 14 2 -1
BITMAP
79E0
0410
0410
0410
0820
0000
FFF8
0000
71F0
0910
7910
4110
4110
38F0
ENDCHAR
STARTCHAR B053
ENCODING 12922
SWIDTH 1600 0
DWIDTH 16 0
BBX 13 14 2 -1
BITMAP
79E0
0410
0410
0410
0820
0000
FFF8
0000
71E0
0800
7BF0
4120
4210
39E0
ENDCHAR
STARTCHAR B054
ENCODING 12923
SWIDTH 1600 0
DWIDTH 16 0
BBX 13 14 2 -1
BITMAP
79E0
0410
0410
0410
0820
0000
FFF8
0000
0000
3FF0
2010
2010
2010
1FF0
ENDCHAR
STARTCHAR B055
ENCODING 12924
SWIDTH 1600 0
DWIDTH 16 0
BBX 13 14 2 -1
BITMAP
79E0
0410
0410
0410
0820
0000
FFF8
0000
2010
2010
3FF0
2010
2010
1FE0
ENDCHAR
STARTCHAR B057
ENCODING 12925
SWIDTH 1600 0
DWIDTH 16 0
BBX 13 14 2 -1
BITMAP
79E0
0410
0410
0410
0820
0000
FFF8
0000
0100
0100
0280
0440
1830
2008
ENDCHAR
STARTCHAR B059
ENCODING 12926
SWIDTH 1600 0
DWIDTH 16 0
BBX 13 14 2 -1
BITMAP
79E0
0410
0410
0410
0820
0000
FFF8
0000
0000
0FC0
3030
2010
3030
0FC0
ENDCHAR
STARTCHAR B05D
ENCODING 13089
SWIDTH 1600 0
DWIDTH 16 0
BBX 13 14 1 -1
BITMAP
79E0
0410
0410
0410
0820
0000
FFF8
0000
3FF0
2000
3FF0
2000
2000
1FF0
ENDCHAR
STARTCHAR B07C
ENCODING 13090
SWIDTH 1600 0
DWIDTH 16 0
BBX 12 14 2 -1
BITMAP
0010
EE10
1110
1110
1110
1110
1110
1110
2110
C210
0C10
0010
0010
0010
ENDCHAR
STARTCHAR B07D
ENCODING 13091
SWIDTH 1600 0
DWIDTH 16 0
BBX 12 14 2 -1
BITMAP
EE10
1110
1110
1110
2110
C210
0C10
0010
0000
3FE0
0010
0010
0010
0010
ENDCHAR
STARTCHAR B080
ENCODING 13092
SWIDTH 1600 0
DWIDTH 16 0
BBX 12 14 2 -1
BITMAP
EE10
1110
1110
1110
2110
C210
0C10
0010
0010
2010
2000
2000
2000
1FF0
ENDCHAR
STARTCHAR B084
ENCODING 13093
SWIDTH 1600 0
DWIDTH 16 0
BBX 12 14 2 -1
BITMAP
EE10
1110
1110
1110
2110
C210
0C10
0000
3FE0
0010
3FF0
2000
2000
1FF0
ENDCHAR
STARTCHAR B08C
ENCODING 13094
SWIDTH 1600 0
DWIDTH 16 0
BBX 12 14 2 -1
BITMAP
EE10
1110
1110
1110
2110
C210
0C10
0000
0000
3FF0
2010
2010
2010
1FF0
ENDCHAR
STARTCHAR B08D
ENCODING 13095
SWIDTH 1600 0
DWIDTH 16 0
BBX 12 14 2 -1
BITMAP
EE10
1110
1110
1110
2110
C210
0C10
0000
2010
2010
3FF0
2010
2010
1FE0
ENDCHAR
STARTCHAR B08F
ENCODING 13096
SWIDTH 1600 0
DWIDTH 16 0
BBX 13 14 2 -1
BITMAP
EE10
1110
1110
1110
2110
C210
0C10
0010
0010
0110
0100
0280
0C60
3018
ENDCHAR
STARTCHAR B091
ENCODING 13097
SWIDTH 1600 0
DWIDTH 16 0
BBX 12 14 2 -1
BITMAP
EE10
1110
1110
1110
2110
C210
0C10
0010
0000
0FC0
3030
2010
3030
0FC0
ENDCHAR
STARTCHAR B098
ENCODING 13098
SWIDTH 1600 0
DWIDTH 16 0
BBX 13 14 2 -1
BITMAP
0020
8020
8020
8020
8020
8038
8020
8020
8020
8120
7E20
0020
0020
0020
ENDCHAR
STARTCHAR B099
ENCODING 13099
SWIDTH 1600 0
DWIDTH 16 0
BBX 13 14 2 -1
BITMAP
8020
8020
8020
8038
80A0
7F20
0020
0020
0000
7FC0
0020
0020
0020
0020
ENDCHAR
STARTCHAR B09A
ENCODING 13100
SWIDTH 1600 0
DWIDTH 16 0
BBX 13 14 2 -1
BITMAP
8020
8020
8020
8038
80A0
7F20
0020
0020
0000
F3C0
0820
0820
0820
0820
ENDCHAR
STARTCHAR B09C
ENCODING 13101
SWIDTH 1600 0
DWIDTH 16 0
BBX 13 14 2 -1
BITMAP
8020
8020
8020
8038
80A0
7F20
0020
0020
0020
4000
4000
4000
4000
3FE0
ENDCHAR
STARTCHAR B09F
ENCODING 13102
SWIDTH 1600 0
DWIDTH 16 0
BBX 13 14 2 -1
BITMAP
8020
8020
8020
8038
80A0
7F20
0020
0020
0000
7FE0
4000
4000
4000
3FE0
ENDCHAR
STARTCHAR B0A0
ENCODING 13103
SWIDTH 1600 0
DWIDTH 16 0
BBX 13 14 2 -1
BITMAP
8020
8020
8020
8038
80A0
7F20
0020
0000
7FC0
0020
7FE0
4000
4000
3FE0
ENDCHAR
STARTCHAR B0A1
ENCODING 13104
SWIDTH 1600 0
DWIDTH 16 0
BBX 13 14 2 -1
BITMAP
8020
8020
8020
8038
80A0
7F20
0020
0000
FBC0
0820
F820
8020
8020
7820
ENDCHAR
STARTCHAR B0A2
ENCODING 13105
SWIDTH 1600 0
DWIDTH 16 0
BBX 13 14 2 -1
BITMAP
8020
8020
8020
8038
80A0
7F20
0020
0000
E3E0
1220
F220
8220
8220
7BE0
ENDCHAR
STARTCHAR B0A8
ENCODING 13106
SWIDTH 1600 0
DWIDTH 16 0
BBX 13 14 2 -1
BITMAP
8020
8020
8020
8038
80A0
7F20
0020
0020
0000
7FE0
4020
4020
4020
3FE0
ENDCHAR
STARTCHAR B0A9
ENCODING 13107
SWIDTH 1600 0
DWIDTH 16 0
BBX 13 14 2 -1
BITMAP
8020
8020
8020
8038
80A0
7F20
0020
0000
4020
4020
7FE0
4020
4020
3FC0
ENDCHAR
STARTCHAR B0AB
ENCODING 13108
SWIDTH 1600 0
DWIDTH 16 0
BBX 13 14 2 -1
BITMAP
8020
8020
8020
8020
80B8
7F20
0020
0020
0020
0200
0200
0500
18C0
6030
ENDCHAR
STARTCHAR B0AC
ENCODING 13109
SWIDTH 1600 0
DWIDTH 16 0
BBX 13 14 2 -1
BITMAP
8020
8020
8020
8038
80A0
7F20
0020
0020
0020
1080
1080
2940
4620
8410
ENDCHAR
STARTCHAR B0AD
ENCODING 13110
SWIDTH 1600 0
DWIDTH 16 0
BBX 13 14 2 -1
BITMAP
8020
8020
8020
8038
80A0
7F20
0020
0020
0000
1F80
6060
4020
6060
1F80
ENDCHAR
STARTCHAR B0AE
ENCODING 13111
SWIDTH 1600 0
DWIDTH 16 0
BBX 13 14 2 -1
BITMAP
8020
8020
8020
8038
80A0
7F20
0020
0020
0000
7FF0
0200
0500
18C0
6030
ENDCHAR
STARTCHAR B0AF
ENCODING 13112
SWIDTH 1600 0
DWIDTH 16 0
BBX 13 14 2 -1
BITMAP
8020
8020
8020
8038
80A0
7F20
0020
0020
0F80
0000
7FF0
0200
0D80
7070
ENDCHAR
STARTCHAR B0B1
ENCODING 13113
SWIDTH 1600 0
DWIDTH 16 0
BBX 13 14 2 -1
BITMAP
8020
8020
8020
8038
80A0
7F20
0020
0000
7FE0
4000
7FE0
4000
4000
3FE0
ENDCHAR
STARTCHAR B0B3
ENCODING 13114
SWIDTH 1600 0
DWIDTH 16 0
BBX 13 14 2 -1
BITMAP
8020
8020
8020
8038
80A0
7F20
0020
0000
0F80
0000
7FF0
1040
2020
1FC0
ENDCHAR
STARTCHAR B0B4
ENCODING 13115
SWIDTH 1600 0
DWIDTH 16 0
BBX 12 14 2 -1
BITMAP
0110
8110
8110
8110
8110
8110
81F0
8110
8110
8510
7910
0110
0110
0110
ENDCHAR
STARTCHAR B0B5
ENCODING 13116
SWIDTH 1600 0
DWIDTH 16 0
BBX 12 14 2 -1
BITMAP
8110
8110
8110
81F0
8510
7910
0110
0110
0000
7FE0
0010
0010
0010
0010
ENDCHAR
STARTCHAR B0B8
ENCODING 13117
SWIDTH 1600 0
DWIDTH 16 0
BBX 12 14 2 -1
BITMAP
8110
8110
8110
81F0
8510
7910
0110
0110
4110
4000
4000
4000
4000
3FF0
ENDCHAR
STARTCHAR B0BC
ENCODING 13118
SWIDTH 1600 0
DWIDTH 16 0
BBX 12 14 2 -1
BITMAP
8110
8110
8110
81F0
8510
7910
0110
0000
7FE0
0010
7FF0
4000
4000
3FF0
ENDCHAR
STARTCHAR B0C4
ENCODING 13119
SWIDTH 1600 0
DWIDTH 16 0
BBX 12 14 2 -1
BITMAP
8110
8110
8110
81F0
8510
7910
0110
0110
0000
7FF0
4010
4010
4010
3FF0
ENDCHAR
STARTCHAR B0C5
ENCODING 13120
SWIDTH 1600 0
DWIDTH 16 0
BBX 12 14 2 -1
BITMAP
8110
8110
8110
81F0
8510
7910
0110
0000
4010
4010
7FF0
4010
4010
3FE0
ENDCHAR
STARTCHAR B0C7
ENCODING 13121
SWIDTH 1600 0
DWIDTH 16 0
BBX 13 14 2 -1
BITMAP
8110
8110
8110
81F0
8510
7910
0110
0010
0000
0100
0280
0440
1830
2008
ENDCHAR
STARTCHAR B0C8
ENCODING 13122
SWIDTH 1600 0
DWIDTH 16 0
BBX 13 14 2 -1
BITMAP
8110
8110
8110
81F0
8510
7910
0110
0110
0000
0840
0840
14A0
2310
4208
ENDCHAR
STARTCHAR B0C9
ENCODING 13123
SWIDTH 1600 0
DWIDTH 16 0
BBX 12 14 2 -1
BITMAP
8110
8110
8110
81F0
8510
7910
0110
0010
0000
0FC0
3030
2010
3030
0FC0
ENDCHAR
STARTCHAR B0D0
ENCODING 13124
SWIDTH 1600 0
DWIDTH 16 0
BBX 13 14 2 -1
BITMAP
0020
8020
8020
8038
8020
8020
8020
8020
8038
8120
7E20
0020
0020
0020
ENDCHAR
STARTCHAR B0D1
ENCODING 13125
SWIDTH 1600 0
DWIDTH 16 0
BBX 13 14 2 -1
BITMAP
8020
8020
8038
8020
80A0
FF38
0020
0020
0000
7FC0
0020
0020
0020
0020
ENDCHAR
STARTCHAR B0D4
ENCODING 13126
SWIDTH 1600 0
DWIDTH 16 0
BBX 13 14 2 -1
BITMAP
8020
8020
8038
8020
80A0
7F38
0020
0020
4020
4000
4000
4000
4000
3FE0
ENDCHAR
STARTCHAR B0D8
ENCODING 13127
SWIDTH 1600 0
DWIDTH 16 0
BBX 13 14 2 -1
BITMAP
8020
8020
8038
8020
80A0
7F38
0020
0000
7FC0
0020
7FE0
4000
4000
3FE0
ENDCHAR
STARTCHAR B0E0
ENCODING 13128
SWIDTH 1600 0
DWIDTH 16 0
BBX 13 14 2 -1
BITMAP
8020
8020
8038
8020
80A0
7F38
0020
0020
0000
7FE0
4020
4020
4020
3FE0
ENDCHAR
STARTCHAR B0E5
ENCODING 13129
SWIDTH 1600 0
DWIDTH 16 0
BBX 13 14 2 -1
BITMAP
8020
8020
8038
8020
80A0
7F38
0020
0020
0020
1F80
6060
4020
6060
1F80
ENDCHAR
STARTCHAR B108
ENCODING 13130
SWIDTH 1600 0
DWIDTH 16 0
BBX 12 14 2 -1
BITMAP
0010
8010
8010
8010
81F0
8010
8010
8010
7F10
0010
0010
0010
0010
0010
ENDCHAR
STARTCHAR B109
ENCODING 13131
SWIDTH 1600 0
DWIDTH 16 0
BBX 12 14 2 -1
BITMAP
8010
8010
81F0
8010
8010
7F10
0010
0010
0000
7FE0
0010
0010
0010
0010
ENDCHAR
STARTCHAR B10B
ENCODING 13132
SWIDTH 1600 0
DWIDTH 16 0
BBX 13 14 2 -1
BITMAP
8010
8010
81F0
8010
8010
7F10
0000
0000
7840
0440
0440
04A0
0510
0608
ENDCHAR
STARTCHAR B10C
ENCODING 13133
SWIDTH 1600 0
DWIDTH 16 0
BBX 12 14 2 -1
BITMAP
8010
8010
81F0
8010
8010
7F10
0010
0010
2010
2000
2000
2000
2000
1FF0
ENDCHAR
STARTCHAR B110
ENCODING 13134
SWIDTH 1600 0
DWIDTH 16 0
BBX 12 14 2 -1
BITMAP
8010
8010
81F0
8010
8010
7F10
0010
0000
3FE0
0010
3FF0
2000
2000
1FF0
ENDCHAR
STARTCHAR B112
ENCODING 13135
SWIDTH 1600 0
DWIDTH 16 0
BBX 12 14 2 -1
BITMAP
8010
8010
81F0
8010
8010
7F10
0010
0000
71F0
0910
7910
4110
4110
3DF0
ENDCHAR
STARTCHAR B113
ENCODING 13136
SWIDTH 1600 0
DWIDTH 16 0
BBX 12 14 2 -1
BITMAP
8010
8010
81F0
8010
8010
7F10
0010
0000
7110
0910
79F0
4110
4110
3CE0
ENDCHAR
STARTCHAR B118
ENCODING 13137
SWIDTH 1600 0
DWIDTH 16 0
BBX 12 14 2 -1
BITMAP
8010
8010
81F0
8010
8010
7F10
0010
0010
0000
3FF0
2010
2010
2010
1FF0
ENDCHAR
STARTCHAR B119
ENCODING 13138
SWIDTH 1600 0
DWIDTH 16 0
BBX 12 14 2 -1
BITMAP
8010
8010
81F0
8010
8010
7F10
0010
0000
2010
2010
3FF0
2010
2010
1FE0
ENDCHAR
STARTCHAR B11B
ENCODING 13139
SWIDTH 1600 0
DWIDTH 16 0
BBX 12 14 2 -1
BITMAP
8010
8010
81F0
8010
8010
7F10
0010
0010
0010
0200
0500
0880
3060
4010
ENDCHAR
STARTCHAR B11C
ENCODING 13140
SWIDTH 1600 0
DWIDTH 16 0
BBX 13 14 2 -1
BITMAP
8010
8010
81F0
8010
8010
7F10
0010
0010
0000
0840
0840
14A0
2310
4208
ENDCHAR
STARTCHAR B11D
ENCODING 13141
SWIDTH 1600 0
DWIDTH 16 0
BBX 12 14 2 -1
BITMAP
8010
8010
81F0
8010
8010
7F10
0010
0010
0000
0FC0
3030
2010
3030
0FC0
ENDCHAR
STARTCHAR B123
ENCODING 13142
SWIDTH 1600 0
DWIDTH 16 0
BBX 13 14 2 -1
BITMAP
8010
8010
81F0
8010
8010
7F10
0010
0000
07C0
0000
3FF8
0820
1010
0FE0
ENDCHAR
STARTCHAR B124
ENCODING 13143
SWIDTH 1600 0
DWIDTH 16 0
BBX 12 14 2 -1
BITMAP
0090
8090
8090
8090
8F90
8090
8090
8090
7C90
0090
0090
0090
0090
0090
ENDCHAR
STARTCHAR B125
ENCODING 13144
SWIDTH 1600 0
DWIDTH 16 0
BBX 12 14 2 -1
BITMAP
8090
8090
8090
8790
8090
8090
7C90
0090
0000
3FE0
0010
0010
0010
0010
ENDCHAR
STARTCHAR B128
ENCODING 13145
SWIDTH 1600 0
DWIDTH 16 0
BBX 12 14 2 -1
BITMAP
8090
8090
8090
8790
8090
8090
7890
0090
0090
4090
4000
4000
4000
3FF0
ENDCHAR
STARTCHAR B12C
ENCODING 13146
SWIDTH 1600 0
DWIDTH 16 0
BBX 12 14 2 -1
BITMAP
8090
8090
8790
8090
8090
7C90
0090
0000
7FE0
0010
7FF0
4000
4000
3FF0
ENDCHAR
STARTCHAR B134
ENCODING 13147
SWIDTH 1600 0
DWIDTH 16 0
BBX 12 14 2 -1
BITMAP
8090
8090
8090
8790
8090
8090
7C90
0090
0000
3FF0
2010
2010
2010
1FF0
ENDCHAR
STARTCHAR B135
ENCODING 13148
SWIDTH 1600 0
DWIDTH 16 0
BBX 12 14 2 -1
BITMAP
8090
8090
8790
8090
8090
7C90
0090
0000
2010
2010
3FF0
2010
2010
1FE0
ENDCHAR
STARTCHAR B137
ENCODING 13149
SWIDTH 1600 0
DWIDTH 16 0
BBX 12 14 2 -1
BITMAP
8090
8090
8090
8790
8090
8090
7C90
0090
0090
0200
0500
0880
3060
4010
ENDCHAR
STARTCHAR B138
ENCODING 13150
SWIDTH 1600 0
DWIDTH 16 0
BBX 13 14 2 -1
BITMAP
8090
8090
8090
8790
8090
8090
7C90
0090
0000
0840
0840
14A0
2310
4208
ENDCHAR
STARTCHAR B139
ENCODING 13151
SWIDTH 1600 0
DWIDTH 16 0
BBX 12 14 2 -1
BITMAP
8090
8090
8090
8790
8090
8090
7C90
0090
0000
1FC0
6030
4010
6030
1FC0
ENDCHAR
STARTCHAR B140
ENCODING 13152
SWIDTH 1600 0
DWIDTH 16 0
BBX 12 14 2 -1
BITMAP
0010
8010
8010
83F0
8010
8010
83F0
8010
8010
7F10
0010
0010
0010
0010
ENDCHAR
STARTCHAR B141
ENCODING 13153
SWIDTH 1600 0
DWIDTH 16 0
BBX 12 14 2 -1
BITMAP
8010
81F0
8010
8010
81F0
8010
7E10
0010
0000
3FE0
0010
0010
0010
0010
ENDCHAR
STARTCHAR B144
ENCODING 13154
SWIDTH 1600 0
DWIDTH 16 0
BBX 12 14 2 -1
BITMAP
8010
81F0
8010
8010
81F0
8010
7E10
0010
0010
2000
2000
2000
2000
1FF0
ENDCHAR
STARTCHAR B148
ENCODING 13155
SWIDTH 1600 0
DWIDTH 16 0
BBX 12 14 2 -1
BITMAP
8010
81F0
8010
8010
81F0
8010
7E10
0000
3FE0
0010
3FF0
2000
2000
1FF0
ENDCHAR
STARTCHAR B150
ENCODING 13156
SWIDTH 1600 0
DWIDTH 16 0
BBX 12 14 2 -1
BITMAP
8010
81F0
8010
8010
81F0
8010
7E10
0010
0000
3FF0
2010
2010
2010
1FF0
ENDCHAR
STARTCHAR B151
ENCODING 13157
SWIDTH 1600 0
DWIDTH 16 0
BBX 12 14 2 -1
BITMAP
8010
81F0
8010
8010
81F0
8010
7E10
0000
2010
2010
3FF0
2010
2010
1FE0
ENDCHAR
STARTCHAR B154
ENCODING 13158
SWIDTH 1600 0
DWIDTH 16 0
BBX 13 14 2 -1
BITMAP
8010
81F0
8010
8010
81F0
8010
7E10
0010
0000
0840
0840
14A0
2310
4208
ENDCHAR
STARTCHAR B155
ENCODING 13159
SWIDTH 1600 0
DWIDTH 16 0
BBX 12 14 2 -1
BITMAP
8010
81F0
8010
8010
81F0
8010
7E10
0010
0000
0FC0
3030
2010
3030
0FC0
ENDCHAR
STARTCHAR B158
ENCODING 13160
SWIDTH 1600 0
DWIDTH 16 0
BBX 12 14 2 -1
BITMAP
8010
81F0
8010
8010
81F0
8010
7E10
0010
0000
3FE0
0010
3FF0
0010
0010
ENDCHAR
STARTCHAR B15C
ENCODING 13161
SWIDTH 1600 0
DWIDTH 16 0
BBX 12 14 2 -1
BITMAP
0090
8090
8090
8790
8090
8090
8790
8090
7890
0090
0090
0090
0090
0010
ENDCHAR
STARTCHAR B160
ENCODING 13162
SWIDTH 1600 0
DWIDTH 16 0
BBX 12 14 2 -1
BITMAP
8090
8090
8790
8090
8090
8790
8090
7890
0090
2010
2000
2000
2000
1FF0
ENDCHAR
STARTCHAR B178
ENCODING 13163
SWIDTH 1600 0
DWIDTH 16 0
BBX 13 12 2 0
BITMAP
4000
4000
4000
4000
4000
3FF0
0000
0200
0200
0200
0200
FFF8
ENDCHAR
STARTCHAR B179
ENCODING 13164
SWIDTH 1600 0
DWIDTH 16 0
BBX 13 14 2 -1
BITMAP
4000
4000
4000
3FF0
0200
0200
FFF8
0000
0000
7FE0
0010
0010
0010
0010
ENDCHAR
STARTCHAR B17C
ENCODING 13165
SWIDTH 1600 0
DWIDTH 16 0
BBX 13 14 2 -1
BITMAP
4000
4000
4000
3FF0
0200
0200
FFF8
0000
0000
4000
4000
4000
4000
3FF0
ENDCHAR
STARTCHAR B180
ENCODING 13166
SWIDTH 1600 0
DWIDTH 16 0
BBX 13 14 2 -1
BITMAP
4000
4000
4000
3FF0
0200
0200
FFF8
0000
7FE0
0010
7FF0
4000
4000
3FF0
ENDCHAR
STARTCHAR B182
ENCODING 13167
SWIDTH 1600 0
DWIDTH 16 0
BBX 13 14 2 -1
BITMAP
4000
4000
4000
3FF0
0200
0200
FFF8
0000
71F0
0910
7910
4110
4110
3DF0
ENDCHAR
STARTCHAR B188
ENCODING 13168
SWIDTH 1600 0
DWIDTH 16 0
BBX 13 14 2 -1
BITMAP
4000
4000
4000
3FF0
0200
0200
FFF8
0000
0000
7FF0
4010
4010
4010
3FF0
ENDCHAR
STARTCHAR B189
ENCODING 13169
SWIDTH 1600 0
DWIDTH 16 0
BBX 13 14 2 -1
BITMAP
4000
4000
4000
3FF0
0200
0200
FFF8
0000
4010
4010
7FF0
4010
4010
3FE0
ENDCHAR
STARTCHAR B18B
ENCODING 13170
SWIDTH 1600 0
DWIDTH 16 0
BBX 13 14 2 -1
BITMAP
4000
4000
4000
3FF0
0200
0200
FFF8
0000
0000
0200
0500
0880
3060
4010
ENDCHAR
STARTCHAR B18D
ENCODING 13171
SWIDTH 1600 0
DWIDTH 16 0
BBX 13 14 2 -1
BITMAP
4000
4000
4000
3FF0
0200
0200
FFF8
0000
0000
1FC0
6030
4010
6030
1FC0
ENDCHAR
STARTCHAR B192
ENCODING 13172
SWIDTH 1600 0
DWIDTH 16 0
BBX 13 14 2 -1
BITMAP
4000
4000
4000
3FF0
0200
0200
FFF8
0000
0000
7FF0
1040
1040
1040
7FF0
ENDCHAR
STARTCHAR B193
ENCODING 13173
SWIDTH 1600 0
DWIDTH 16 0
BBX 13 14 2 -1
BITMAP
4000
4000
4000
3FF0
0200
0200
FFF8
0000
0F80
0000
7FF0
1040
2020
1FC0
ENDCHAR
STARTCHAR B194
ENCODING 13174
SWIDTH 1600 0
DWIDTH 16 0
BBX 14 14 1 -1
BITMAP
0010
4010
4010
4010
4010
3F90
001C
0810
0810
0810
FFD0
0010
0010
0010
ENDCHAR
STARTCHAR B198
ENCODING 13175
SWIDTH 1600 0
DWIDTH 16 0
BBX 14 14 1 -1
BITMAP
4010
4010
4010
3F90
0410
041C
FFD0
0010
0010
2010
2000
2000
2000
1FF0
ENDCHAR
STARTCHAR B19C
ENCODING 13176
SWIDTH 1600 0
DWIDTH 16 0
BBX 14 14 1 -1
BITMAP
4010
4010
4010
3F90
041C
0410
FFD0
0000
3FE0
0010
3FF0
2000
2000
1FF0
ENDCHAR
STARTCHAR B1A8
ENCODING 13177
SWIDTH 1600 0
DWIDTH 16 0
BBX 14 14 1 -1
BITMAP
4010
4010
4010
3F90
041C
0410
FFD0
0010
0000
0840
0840
14A0
2310
4208
ENDCHAR
STARTCHAR B1CC
ENCODING 13178
SWIDTH 1600 0
DWIDTH 16 0
BBX 12 14 2 -1
BITMAP
0010
4010
4010
4010
4010
3F90
0010
0410
0410
0410
FFD0
0010
0010
0010
ENDCHAR
STARTCHAR B1D0
ENCODING 13179
SWIDTH 1600 0
DWIDTH 16 0
BBX 12 14 2 -1
BITMAP
4010
4010
4010
3F90
0410
0410
FFD0
0010
0010
2010
2000
2000
2000
1FF0
ENDCHAR
STARTCHAR B1D4
ENCODING 13180
SWIDTH 1600 0
DWIDTH 16 0
BBX 12 14 2 -1
BITMAP
4010
4010
4010
3F90
0410
0410
FFD0
0000
7FE0
0010
7FF0
4000
4000
3FF0
ENDCHAR
STARTCHAR B1DC
ENCODING 13181
SWIDTH 1600 0
DWIDTH 16 0
BBX 12 14 2 -1
BITMAP
4010
4010
4010
3F90
0410
0410
FFD0
0010
0000
3FF0
2010
2010
2010
1FF0
ENDCHAR
STARTCHAR B1DD
ENCODING 13182
SWIDTH 1600 0
DWIDTH 16 0
BBX 12 14 2 -1
BITMAP
4010
4010
4010
3F90
0410
0410
FFD0
0000
2010
2010
3FF0
2010
2010
1FE0
ENDCHAR
STARTCHAR B1DF
ENCODING 13345
SWIDTH 1600 0
DWIDTH 16 0
BBX 12 14 2 -1
BITMAP
4010
4010
4010
3F90
0410
0410
FFD0
0010
0000
0200
0500
0880
3060
4010
ENDCHAR
STARTCHAR B1E8
ENCODING 13346
SWIDTH 1600 0
DWIDTH 16 0
BBX 12 12 2 0
BITMAP
4000
4000
4000
4000
4000
3FE0
0000
1080
1080
1080
1080
FFF0
ENDCHAR
STARTCHAR B1E9
ENCODING 13347
SWIDTH 1600 0
DWIDTH 16 0
BBX 12 14 2 -1
BITMAP
4000
4000
4000
3FE0
1080
1080
FFF0
0000
0000
7FC0
0020
0020
0020
0020
ENDCHAR
STARTCHAR B1EC
ENCODING 13348
SWIDTH 1600 0
DWIDTH 16 0
BBX 12 14 2 -1
BITMAP
4000
4000
4000
3FE0
1080
1080
FFF0
0000
0000
4000
4000
4000
4000
3FE0
ENDCHAR
STARTCHAR B1F0
ENCODING 13349
SWIDTH 1600 0
DWIDTH 16 0
BBX 12 14 2 -1
BITMAP
4000
4000
4000
3FE0
1080
1080
FFF0
0000
7FC0
0020
7FE0
4000
4000
3FE0
ENDCHAR
STARTCHAR B1F9
ENCODING 13350
SWIDTH 1600 0
DWIDTH 16 0
BBX 12 14 2 -1
BITMAP
4000
4000
4000
3FE0
1080
1080
FFF0
0000
4020
4020
7FE0
4020
4020
3FC0
ENDCHAR
STARTCHAR B1FB
ENCODING 13351
SWIDTH 1600 0
DWIDTH 16 0
BBX 12 14 2 -1
BITMAP
4000
4000
4000
3FE0
1080
1080
FFF0
0000
0000
0400
0A00
1100
60C0
8020
ENDCHAR
STARTCHAR B1FD
ENCODING 13352
SWIDTH 1600 0
DWIDTH 16 0
BBX 12 14 2 -1
BITMAP
4000
4000
4000
3FE0
1080
1080
FFF0
0000
0000
1F80
6060
4020
6060
1F80
ENDCHAR
STARTCHAR B204
ENCODING 13353
SWIDTH 1600 0
DWIDTH 16 0
BBX 13 14 2 -1
BITMAP
4000
4000
4000
4000
4000
3FF0
0000
0000
FFF8
0200
0200
0200
0200
0200
ENDCHAR
STARTCHAR B205
ENCODING 13354
SWIDTH 1600 0
DWIDTH 16 0
BBX 13 14 2 -1
BITMAP
4000
4000
4000
4000
3FF0
0000
FFF8
0200
0200
7FE0
0010
0010
0010
0010
ENDCHAR
STARTCHAR B208
ENCODING 13355
SWIDTH 1600 0
DWIDTH 16 0
BBX 13 14 2 -1
BITMAP
4000
4000
4000
4000
3FF0
0000
FFF8
0200
0200
4200
4200
4000
4000
3FF0
ENDCHAR
STARTCHAR B20B
ENCODING 13356
SWIDTH 1600 0
DWIDTH 16 0
BBX 13 14 2 -1
BITMAP
4000
4000
4000
4000
3FF0
0000
FFF8
0200
0200
7FF0
4000
4000
4000
3FF0
ENDCHAR
STARTCHAR B20C
ENCODING 13357
SWIDTH 1600 0
DWIDTH 16 0
BBX 13 14 2 -1
BITMAP
4000
4000
4000
4000
3FF0
0000
FFF8
0200
7FE0
0010
7FF0
4000
4000
3FF0
ENDCHAR
STARTCHAR B214
ENCODING 13358
SWIDTH 1600 0
DWIDTH 16 0
BBX 13 14 2 -1
BITMAP
4000
4000
4000
4000
3FF0
0000
FFF8
0200
0200
7FF0
4010
4010
4010
3FF0
ENDCHAR
STARTCHAR B215
ENCODING 13359
SWIDTH 1600 0
DWIDTH 16 0
BBX 13 14 2 -1
BITMAP
4000
4000
4000
4000
3FF0
0000
FFF8
0200
4210
4010
7FF0
4010
4010
3FE0
ENDCHAR
STARTCHAR B217
ENCODING 13360
SWIDTH 1600 0
DWIDTH 16 0
BBX 13 14 2 -1
BITMAP
4000
4000
4000
4000
3FF0
0000
FFF8
0200
0200
0000
0200
0500
18C0
6038
ENDCHAR
STARTCHAR B219
ENCODING 13361
SWIDTH 1600 0
DWIDTH 16 0
BBX 13 14 2 -1
BITMAP
4000
4000
4000
4000
3FF0
0000
FFF8
0200
0200
1FC0
6030
4010
6030
1FC0
ENDCHAR
STARTCHAR B220
ENCODING 13362
SWIDTH 1600 0
DWIDTH 16 0
BBX 12 14 2 -1
BITMAP
0010
4010
4010
4010
4090
3F10
0010
0050
FF90
0810
08F0
0810
0810
0010
ENDCHAR
STARTCHAR B234
ENCODING 13363
SWIDTH 1600 0
DWIDTH 16 0
BBX 14 14 1 -1
BITMAP
2008
2008
2008
1FC8
0008
FFE8
0408
04F8
0008
0420
0420
0A50
1188
2104
ENDCHAR
STARTCHAR B23C
ENCODING 13364
SWIDTH 1600 0
DWIDTH 16 0
BBX 12 14 2 -1
BITMAP
8090
8090
8090
8090
FE90
0090
0090
FF90
1090
1790
1090
1090
1090
1090
ENDCHAR
STARTCHAR B258
ENCODING 13365
SWIDTH 1600 0
DWIDTH 16 0
BBX 11 14 3 -1
BITMAP
8020
8020
8020
8020
FF20
0020
0060
FFA0
0820
0820
0820
0820
0820
0820
ENDCHAR
STARTCHAR B25C
ENCODING 13366
SWIDTH 1600 0
DWIDTH 16 0
BBX 12 14 2 -1
BITMAP
4010
4010
4010
4010
7FD0
0010
0010
FFF0
0410
0410
4410
4000
4000
7FF0
ENDCHAR
STARTCHAR B260
ENCODING 13367
SWIDTH 1600 0
DWIDTH 16 0
BBX 12 14 2 -1
BITMAP
4010
4010
4010
7FD0
0010
0010
FFF0
0810
7FF0
0010
0010
7FF0
4000
3FF0
ENDCHAR
STARTCHAR B268
ENCODING 13368
SWIDTH 1600 0
DWIDTH 16 0
BBX 13 14 1 -1
BITMAP
0008
2008
2008
2008
3FE8
0008
FFF8
0408
0408
1FF8
1008
1008
1008
1FF8
ENDCHAR
STARTCHAR B269
ENCODING 13369
SWIDTH 1600 0
DWIDTH 16 0
BBX 13 14 1 -1
BITMAP
2008
2008
2008
3FE8
0008
0008
FFF8
0408
1400
1008
1FF8
1008
1008
1FF8
ENDCHAR
STARTCHAR B274
ENCODING 13370
SWIDTH 1600 0
DWIDTH 16 0
BBX 12 14 2 -1
BITMAP
4000
4000
4000
4000
4000
3FE0
0000
0000
FFF0
1080
1080
1080
1080
1080
ENDCHAR
STARTCHAR B275
ENCODING 13371
SWIDTH 1600 0
DWIDTH 16 0
BBX 12 14 2 -1
BITMAP
4000
4000
4000
3FE0
0000
FFF0
1080
1080
0000
7FC0
0020
0020
0020
0020
ENDCHAR
STARTCHAR B27C
ENCODING 13372
SWIDTH 1600 0
DWIDTH 16 0
BBX 12 14 2 -1
BITMAP
4000
4000
4000
3FE0
0000
FFF0
1080
1080
7FC0
0020
7FE0
4000
4000
3FE0
ENDCHAR
STARTCHAR B284
ENCODING 13373
SWIDTH 1600 0
DWIDTH 16 0
BBX 12 14 2 -1
BITMAP
4000
4000
4000
3FE0
0000
FFF0
1080
1080
0000
7FE0
4020
4020
4020
3FE0
ENDCHAR
STARTCHAR B285
ENCODING 13374
SWIDTH 1600 0
DWIDTH 16 0
BBX 12 14 2 -1
BITMAP
4000
4000
4000
3FE0
0000
FFF0
1080
1080
50A0
4020
7FE0
4020
4020
3FC0
ENDCHAR
STARTCHAR B289
ENCODING 13375
SWIDTH 1600 0
DWIDTH 16 0
BBX 12 14 2 -1
BITMAP
4000
4000
4000
7FE0
0000
FFF0
1080
1080
0000
1F80
6060
4020
6060
1F80
ENDCHAR
STARTCHAR B290
ENCODING 13376
SWIDTH 1600 0
DWIDTH 16 0
BBX 13 12 2 0
BITMAP
4000
4000
4000
4000
4000
4000
3FF0
0000
0000
0000
0000
FFF8
ENDCHAR
STARTCHAR B291
ENCODING 13377
SWIDTH 1600 0
DWIDTH 16 0
BBX 13 14 2 -1
BITMAP
4000
4000
4000
4000
3FF0
0000
0000
FFF8
0000
7FE0
0010
0010
0010
0010
ENDCHAR
STARTCHAR B294
ENCODING 13378
SWIDTH 1600 0
DWIDTH 16 0
BBX 13 14 2 -1
BITMAP
4000
4000
4000
4000
3FF0
0000
0000
FFF8
0000
0000
4000
4000
4000
3FF0
ENDCHAR
STARTCHAR B298
ENCODING 13379
SWIDTH 1600 0
DWIDTH 16 0
BBX 13 14 2 -1
BITMAP
4000
4000
4000
4000
3FF0
0000
FFF8
0000
7FF0
0010
7FF0
4000
4000
3FF0
ENDCHAR
STARTCHAR B299
ENCODING 13380
SWIDTH 1600 0
DWIDTH 16 0
BBX 13 14 2 -1
BITMAP
4000
4000
4000
4000
3FF0
0000
FFF8
0000
7DE0
0410
7C10
4010
4010
3C10
ENDCHAR
STARTCHAR B29A
ENCODING 13381
SWIDTH 1600 0
DWIDTH 16 0
BBX 13 14 2 -1
BITMAP
4000
4000
4000
4000
3FF0
0000
FFF8
0000
79F0
0910
7910
4110
4110
39F0
ENDCHAR
STARTCHAR B2A0
ENCODING 13382
SWIDTH 1600 0
DWIDTH 16 0
BBX 13 14 2 -1
BITMAP
4000
4000
4000
4000
3FF0
0000
FFF8
0000
0000
7FF0
4010
4010
4010
3FF0
ENDCHAR
STARTCHAR B2A1
ENCODING 13383
SWIDTH 1600 0
DWIDTH 16 0
BBX 13 14 2 -1
BITMAP
4000
4000
4000
4000
3FF0
0000
FFF8
0000
4010
4010
7FF0
4010
4010
3FE0
ENDCHAR
STARTCHAR B2A3
ENCODING 13384
SWIDTH 1600 0
DWIDTH 16 0
BBX 13 14 1 -1
BITMAP
2000
2000
2000
2000
3FF8
0000
0000
FFF8
0000
0300
0300
0480
1840
6038
ENDCHAR
STARTCHAR B2A5
ENCODING 13385
SWIDTH 1600 0
DWIDTH 16 0
BBX 12 14 2 -1
BITMAP
4000
4000
4000
4000
3FE0
0000
FFF0
0000
0000
1F80
6060
4020
6060
1F80
ENDCHAR
STARTCHAR B2A6
ENCODING 13386
SWIDTH 1600 0
DWIDTH 16 0
BBX 12 14 2 -1
BITMAP
4000
4000
4000
4000
3FE0
0000
FFF0
0000
0000
7FF0
0200
0500
18C0
6030
ENDCHAR
STARTCHAR B2AA
ENCODING 13387
SWIDTH 1600 0
DWIDTH 16 0
BBX 12 14 2 -1
BITMAP
4000
4000
4000
4000
3FE0
0000
FFF0
0000
0000
7FE0
1080
1080
1080
7FE0
ENDCHAR
STARTCHAR B2AC
ENCODING 13388
SWIDTH 1600 0
DWIDTH 16 0
BBX 12 14 2 -1
BITMAP
0010
4010
4010
4010
4010
4010
3F10
0010
0010
0050
FF90
0010
0010
0010
ENDCHAR
STARTCHAR B2B0
ENCODING 13389
SWIDTH 1600 0
DWIDTH 16 0
BBX 12 14 2 -1
BITMAP
4010
4010
4010
4010
3F10
0010
FFD0
0010
0010
2010
2000
2000
2000
1FF0
ENDCHAR
STARTCHAR B2B4
ENCODING 13390
SWIDTH 1600 0
DWIDTH 16 0
BBX 12 14 2 -1
BITMAP
4010
4010
4010
4010
3F90
0010
FFD0
0000
3FE0
0010
3FF0
2000
2000
1FF0
ENDCHAR
STARTCHAR B2C8
ENCODING 13391
SWIDTH 1600 0
DWIDTH 16 0
BBX 11 14 3 -1
BITMAP
0020
8020
8020
8020
8020
8020
8020
8020
7F20
0020
0020
0020
0020
0020
ENDCHAR
STARTCHAR B2C9
ENCODING 13392
SWIDTH 1600 0
DWIDTH 16 0
BBX 12 14 2 -1
BITMAP
8010
8010
8010
8010
8010
7F90
0010
0010
0000
7FE0
0010
0010
0010
0010
ENDCHAR
STARTCHAR B2CC
ENCODING 13393
SWIDTH 1600 0
DWIDTH 16 0
BBX 12 14 2 -1
BITMAP
8010
8010
8010
8010
8010
7F90
0010
0010
0010
4000
4000
4000
4000
3FF0
ENDCHAR
STARTCHAR B2D0
ENCODING 13394
SWIDTH 1600 0
DWIDTH 16 0
BBX 12 14 2 -1
BITMAP
8010
8010
8010
8010
8010
7F90
0010
0000
7FE0
0010
7FF0
4000
4000
3FF0
ENDCHAR
STARTCHAR B2D2
ENCODING 13395
SWIDTH 1600 0
DWIDTH 16 0
BBX 12 14 2 -1
BITMAP
8010
8010
8010
8010
8010
7F90
0010
0000
71F0
0910
7910
4110
4110
3DF0
ENDCHAR
STARTCHAR B2D8
ENCODING 13396
SWIDTH 1600 0
DWIDTH 16 0
BBX 12 14 2 -1
BITMAP
8010
8010
8010
8010
8010
7F90
0010
0000
7FF0
4010
4010
4010
4010
3FF0
ENDCHAR
STARTCHAR B2D9
ENCODING 13397
SWIDTH 1600 0
DWIDTH 16 0
BBX 12 14 2 -1
BITMAP
8010
8010
8010
8010
8010
7F90
0010
0000
4010
4010
7FF0
4010
4010
3FE0
ENDCHAR
STARTCHAR B2DB
ENCODING 13398
SWIDTH 1600 0
DWIDTH 16 0
BBX 12 14 2 -1
BITMAP
8010
8010
8010
8010
8010
7F90
0010
0010
0010
0200
0500
0880
3060
4010
ENDCHAR
STARTCHAR B2DD
ENCODING 13399
SWIDTH 1600 0
DWIDTH 16 0
BBX 12 14 2 -1
BITMAP
8010
8010
8010
8010
8010
7F90
0010
0010
0000
0FC0
3030
2010
3030
0FC0
ENDCHAR
STARTCHAR B2E2
ENCODING 13400
SWIDTH 1600 0
DWIDTH 16 0
BBX 12 14 2 -1
BITMAP
8010
8010
8010
8010
8010
7F90
0010
0010
0000
7FF0
1040
1040
1040
7FF0
ENDCHAR
STARTCHAR B2E4
ENCODING 13401
SWIDTH 1600 0
DWIDTH 16 0
BBX 13 14 2 -1
BITMAP
0020
FE20
8020
8020
8020
8038
8020
8020
7F20
0020
0020
0020
0020
0020
ENDCHAR
STARTCHAR B2E5
ENCODING 13402
SWIDTH 1600 0
DWIDTH 16 0
BBX 13 14 2 -1
BITMAP
FF20
8020
8020
8038
8020
7F20
0020
0020
0000
7FC0
0020
0020
0020
0020
ENDCHAR
STARTCHAR B2E6
ENCODING 13403
SWIDTH 1600 0
DWIDTH 16 0
BBX 13 14 2 -1
BITMAP
FF20
8020
8020
8038
8020
7F20
0020
0020
0000
F3C0
0820
0820
0820
0820
ENDCHAR
STARTCHAR B2E8
ENCODING 13404
SWIDTH 1600 0
DWIDTH 16 0
BBX 13 14 2 -1
BITMAP
FF20
8020
8020
8038
8020
7F20
0020
0020
0020
4020
4000
4000
4000
3FE0
ENDCHAR
STARTCHAR B2EB
ENCODING 13405
SWIDTH 1600 0
DWIDTH 16 0
BBX 13 14 2 -1
BITMAP
FF20
8020
8020
8038
8020
7F20
0020
0020
0000
7FE0
4000
4000
4000
3FE0
ENDCHAR
STARTCHAR B2EC
ENCODING 13406
SWIDTH 1600 0
DWIDTH 16 0
BBX 13 14 2 -1
BITMAP
FF20
8020
8020
8038
8020
7F20
0020
0000
7FC0
0020
7FE0
4000
4000
3FE0
ENDCHAR
STARTCHAR B2ED
ENCODING 13407
SWIDTH 1600 0
DWIDTH 16 0
BBX 13 14 2 -1
BITMAP
FF20
8020
8020
8038
8020
7F20
0020
0000
F3C0
0820
F820
8020
8020
7820
ENDCHAR
STARTCHAR B2EE
ENCODING 13408
SWIDTH 1600 0
DWIDTH 16 0
BBX 13 14 2 -1
BITMAP
FF20
8020
8020
8038
8020
7F20
0020
0000
F3E0
1220
F220
8220
8220
71E0
ENDCHAR
STARTCHAR B2EF
ENCODING 13409
SWIDTH 1600 0
DWIDTH 16 0
BBX 13 14 2 -1
BITMAP
FF20
8020
8020
8038
8020
7F20
0020
0000
E220
1220
F3E0
8220
8220
79C0
ENDCHAR
STARTCHAR B2F3
ENCODING 13410
SWIDTH 1600 0
DWIDTH 16 0
BBX 13 14 2 -1
BITMAP
FF20
8020
8020
8038
8020
7F20
0020
0000
71E0
0800
7BF0
4120
4210
3DE0
ENDCHAR
STARTCHAR B2F4
ENCODING 13411
SWIDTH 1600 0
DWIDTH 16 0
BBX 13 14 2 -1
BITMAP
FF20
8020
8020
8038
8020
7F20
0020
0020
0000
7FE0
4020
4020
4020
3FE0
ENDCHAR
STARTCHAR B2F5
ENCODING 13412
SWIDTH 1600 0
DWIDTH 16 0
BBX 13 14 2 -1
BITMAP
FF20
8020
8020
8038
8020
7F20
0020
0000
4020
4020
7FE0
4020
4020
3FC0
ENDCHAR
STARTCHAR B2F7
ENCODING 13413
SWIDTH 1600 0
DWIDTH 16 0
BBX 13 14 2 -1
BITMAP
FF20
8020
8020
8038
8020
7F20
0020
0020
0020
0200
0500
0880
3060
4010
ENDCHAR
STARTCHAR B2F8
ENCODING 13414
SWIDTH 1600 0
DWIDTH 16 0
BBX 13 14 2 -1
BITMAP
FF20
8020
8020
8038
8020
7F20
0020
0020
0000
1080
1080
2940
4620
8410
ENDCHAR
ENDFONT
